<?xml version="1.0" standalone="no"?>
<!DOCTYPE svg PUBLIC "-//W3C//DTD SVG 1.1//EN" "http://www.w3.org/Graphics/SVG/1.1/DTD/svg11.dtd" >
<svg xmlns="http://www.w3.org/2000/svg">
<metadata>
This is a custom SVG webfont generated by Font Squirrel.
Copyright   : Copyright c Laurenz Brunner wwwlinetocom 2004 All rights reserved
Designer    : Laurenz Brunner
Foundry     : Laurenz Brunner wwwlinetocom
Foundry URL : wwwlinetocom
</metadata>
<defs>
<font id="Akkurat-LightRegular" horiz-adv-x="1185" >
<font-face units-per-em="2048" ascent="1638" descent="-410" />
<missing-glyph horiz-adv-x="448" />
<glyph unicode=" "  horiz-adv-x="448" />
<glyph unicode="&#x09;" horiz-adv-x="448" />
<glyph unicode="&#xa0;" horiz-adv-x="448" />
<glyph unicode="!" horiz-adv-x="641" d="M272 0v160h158v-160h-158zM285 1075v406h129v-406l-29 -600h-72z" />
<glyph unicode="&#x22;" horiz-adv-x="913" d="M201 1223v258h127v-258l-31 -318h-68zM516 1223v258h127v-258l-31 -318h-67z" />
<glyph unicode="#" horiz-adv-x="1597" d="M174 414v94h277l61 436h-270v94h284l60 414h90l-58 -414h451l59 414h95l-60 -414h273v-94h-287l-62 -436h279v-94h-293l-57 -414h-92l57 414h-451l-57 -414h-94l57 414h-262zM543 508h452l62 436h-451z" />
<glyph unicode="$" d="M70 479h104q0 -80 28.5 -146.5t78.5 -115.5q51 -53 121.5 -82t148.5 -33v613l-94 12q-70 8 -134.5 36t-110.5 71t-73.5 106.5t-27.5 144.5q0 88 35.5 153t89.5 114q129 115 315 125v194h86v-196q92 -10 172 -46t133 -94q55 -59 89 -130.5t38 -164.5h-104q-4 70 -30 128.5 t-71 105.5q-41 45 -100 69.5t-127 32.5v-563l98 -12q168 -23 262.5 -120t94.5 -259q0 -94 -33 -161.5t-84 -117.5q-125 -125 -338 -137v-190h-86v190q-102 6 -195.5 44t-158.5 106q-59 63 -93 145t-34 178zM215 1085q0 -63 20.5 -108t56.5 -76t81 -46t94 -21l84 -11v557 q-68 -4 -129.5 -23.5t-108.5 -62.5q-41 -35 -69.5 -86t-28.5 -123zM637 102q80 6 145.5 34t116.5 75q37 35 62.5 89t25.5 122q0 121 -69.5 187.5t-194.5 84.5l-86 11v-603z" />
<glyph unicode="%" horiz-adv-x="1931" d="M141 1120q0 72 15.5 139.5t52.5 120.5q39 55 101.5 91t146.5 36q86 0 148.5 -34.5t103.5 -92.5q37 -53 52 -120.5t15 -139.5q0 -74 -15.5 -140.5t-51.5 -121.5q-41 -53 -102.5 -90t-147.5 -37q-84 0 -147.5 37t-102.5 90q-37 55 -52.5 121.5t-15.5 140.5zM236 1120 q0 -61 13 -115.5t39.5 -94.5t68.5 -62.5t102 -22.5q59 0 102 22.5t68.5 62.5t39 94.5t13.5 115.5q0 59 -13.5 113.5t-40 94.5t-69.5 63.5t-102 23.5t-101.5 -23.5t-68 -63.5t-38.5 -94.5t-13 -113.5zM383 31l1079 1470l76 -51l-1083 -1475zM1145 358q0 74 15.5 140.5 t53.5 122.5q39 53 100.5 90t147.5 37t147.5 -36t100.5 -91t54.5 -122t15.5 -141q0 -72 -15.5 -139t-54.5 -121q-39 -55 -100.5 -91t-147.5 -36t-147.5 36t-100.5 91q-39 53 -54 120.5t-15 139.5zM1239 358q0 -59 12.5 -113.5t40 -94t68.5 -62t102 -22.5q59 0 101.5 22.5 t69 62t38.5 94t12 113.5q0 61 -12 115.5t-38.5 94.5t-68.5 62.5t-102 22.5q-61 0 -102 -22.5t-68.5 -62.5t-40 -94.5t-12.5 -115.5z" />
<glyph unicode="&#x26;" horiz-adv-x="1501" d="M188 389q0 113 53.5 203t149.5 145l117 70l-109 121q-55 59 -78.5 120.5t-23.5 131.5t25.5 130t71.5 104t110.5 69.5t140.5 25.5q74 0 138.5 -22.5t112.5 -65.5t76.5 -104.5t28.5 -136.5q0 -106 -48 -180t-134 -126l-155 -92l393 -444q47 82 62.5 181t15.5 220v90h258 v-94h-158q0 -59 -5 -123.5t-17.5 -127t-33 -121t-51.5 -105.5l232 -258h-133l-156 176q-80 -94 -192.5 -149.5t-251.5 -55.5q-92 0 -171 29t-139.5 83t-94.5 132t-34 174zM295 389q0 -72 25.5 -129t71.5 -98t105.5 -63.5t129.5 -22.5q125 0 215 48t157 130l-426 477 l-116 -69q-74 -43 -118 -114t-44 -159zM401 1180q0 -53 25 -104.5t63 -96.5l109 -125l168 104q61 39 97 96.5t36 125.5q0 106 -72.5 170.5t-181.5 64.5q-49 0 -93 -17.5t-78 -47t-53.5 -73.5t-19.5 -97z" />
<glyph unicode="'" horiz-adv-x="501" d="M188 1223v258h127v-258l-30 -318h-68z" />
<glyph unicode="(" horiz-adv-x="606" d="M156 674q0 123 22.5 250t66.5 248.5t107.5 236.5t149.5 207l63 -49q-154 -199 -232.5 -416t-78.5 -477q0 -258 79 -475t232 -416l-63 -51q-86 94 -149.5 208.5t-107.5 236.5t-66.5 248t-22.5 249z" />
<glyph unicode=")" horiz-adv-x="606" d="M41 -217q156 199 233.5 416t77.5 475q0 260 -77.5 477t-233.5 416l65 49q84 -92 148.5 -207t109 -236.5t66 -248.5t21.5 -250t-21.5 -249t-66 -248t-109 -236.5t-148.5 -208.5z" />
<glyph unicode="*" horiz-adv-x="1114" d="M131 1112l31 94l356 -127l-10 377h98l-8 -377l354 127l31 -94l-360 -108l225 -299l-80 -60l-213 311l-213 -311l-78 60l230 299z" />
<glyph unicode="+" horiz-adv-x="1425" d="M152 586v94h512v537h98v-537h512v-94h-512v-576h-98v576h-512z" />
<glyph unicode="," horiz-adv-x="561" d="M184 -199q66 35 91.5 78t25.5 121h-115v188h193v-190q0 -90 -38 -152.5t-122 -101.5z" />
<glyph unicode="-" horiz-adv-x="903" d="M156 584v96h592v-96h-592z" />
<glyph unicode="." horiz-adv-x="550" d="M184 0v188h185v-188h-185z" />
<glyph unicode="/" horiz-adv-x="825" d="M53 -27l654 1534h96l-656 -1534h-94z" />
<glyph unicode="0" d="M127 727q0 86 5 175t24.5 174t52.5 160t90 128q49 49 122 83t173 34t172 -34t123 -83q55 -53 89 -128t52.5 -160t23.5 -174t5 -175t-5 -176t-23.5 -174t-52.5 -159t-89 -128q-51 -49 -123 -83t-172 -34t-173 34t-122 83q-57 53 -90 128t-52.5 159t-24.5 174t-5 176z M233 727q0 -72 3.5 -150.5t16.5 -156.5t39.5 -146.5t78.5 -117.5q39 -37 92 -59.5t131 -22.5q76 0 129 22.5t94 59.5q49 49 77 117.5t40 146.5t15 156.5t3 150.5t-3 150.5t-15 156.5t-40 146.5t-77 115.5q-41 39 -94 61.5t-129 22.5q-78 0 -131 -22.5t-92 -61.5 q-51 -47 -78 -115.5t-40 -146.5t-16.5 -156.5t-3.5 -150.5z" />
<glyph unicode="1" d="M250 1057v117l373 278h94v-1452h-105v1323z" />
<glyph unicode="2" d="M205 1051q0 94 28.5 171.5t83 136t130 90.5t174.5 32q84 0 155.5 -24.5t122.5 -72t81 -116t30 -150.5q0 -94 -43 -183t-101 -159l-542 -676h725v-100h-842v113l581 725q43 55 80 130.5t37 149.5q0 61 -22.5 110.5t-61.5 83.5t-90 51t-110 17q-150 0 -228 -93t-78 -236 h-110z" />
<glyph unicode="3" d="M125 422h106q0 -72 21.5 -134.5t63.5 -110.5t105.5 -75.5t147.5 -27.5q156 0 249 82t93 225q0 162 -93 244t-251 82h-75v100h75q143 0 227.5 72.5t84.5 220.5q0 63 -24 115.5t-65.5 89t-97 56t-114.5 19.5q-152 0 -243 -90t-93 -237h-109q2 96 36 176t93.5 136t140 86 t175.5 30q82 0 157.5 -27t132 -76t88 -120.5t31.5 -157.5q0 -121 -58.5 -214t-176.5 -130q66 -18 114.5 -55t82.5 -86.5t52.5 -110t18.5 -123.5q0 -92 -36 -168t-97.5 -129t-143 -82t-174.5 -29q-104 0 -185 34t-138.5 94.5t-88 142.5t-32.5 178z" />
<glyph unicode="4" d="M113 332v114l592 1006h118l-598 -1016h574v449h106v-449h203v-104h-203v-332h-106v332h-686z" />
<glyph unicode="5" d="M162 420h106q2 -78 28 -142.5t70 -110.5t106.5 -70.5t141.5 -24.5q172 0 256 106.5t84 276.5q0 80 -18 149.5t-58 121.5t-101.5 83t-145.5 31q-94 0 -177 -39t-135 -119h-129l33 770h791v-98h-690l-29 -578q53 88 145 125t191 37q109 0 189.5 -37t134 -101.5t80 -153.5 t26.5 -191t-26.5 -189.5t-82 -154t-140.5 -103.5t-198 -37q-102 0 -185 34t-142.5 95.5t-91 142.5t-33.5 177z" />
<glyph unicode="6" d="M147 729q0 84 6.5 169t24 166t48 151.5t81.5 127.5q49 53 125 95.5t184 42.5q88 0 162 -27t128.5 -76t88 -119.5t37.5 -154.5h-108q-8 125 -89 200.5t-219 75.5q-80 0 -136 -27.5t-93 -70.5q-47 -49 -72.5 -119.5t-38 -147.5t-16.5 -157t-4 -143q45 100 141.5 163.5 t218.5 63.5q106 0 191.5 -36t143 -99.5t87 -152.5t29.5 -195q0 -100 -29.5 -187.5t-87 -155t-141.5 -105.5t-191 -38q-121 0 -207.5 54.5t-134.5 122.5q-41 57 -65.5 124.5t-37.5 143.5t-19.5 154.5t-6.5 156.5zM287 463q0 -74 20.5 -144.5t62.5 -126t104.5 -87t146.5 -31.5 q90 0 153.5 31.5t105.5 85t61.5 124t19.5 144.5q0 76 -19.5 145.5t-61.5 122.5t-106.5 86t-155.5 33q-72 0 -126 -23.5t-95 -64.5q-110 -107 -110 -295z" />
<glyph unicode="7" d="M115 1352v100h907v-111l-625 -1341h-112l630 1352h-800z" />
<glyph unicode="8" d="M135 383q0 59 18.5 117.5t51.5 108.5t81 89t107 60q-102 41 -162.5 134t-60.5 202q0 92 33 164.5t90 122t136 75t167 25.5t165 -25.5t134 -75t90 -122t33 -164.5q0 -109 -60.5 -202t-162.5 -134q57 -20 105 -59.5t82 -89.5t51.5 -108.5t17.5 -117.5q0 -98 -38 -175 t-100.5 -129t-145.5 -79t-175 -27t-175 27t-145.5 79t-99.5 129t-37 175zM244 389q0 -78 27.5 -137t74.5 -100t111.5 -61.5t138.5 -20.5q72 0 136.5 20.5t111.5 61.5t72.5 100t25.5 137q0 76 -26.5 137.5t-73.5 101.5t-112.5 62.5t-137.5 22.5q-74 0 -137.5 -22.5 t-110.5 -62.5t-73.5 -101.5t-26.5 -137.5zM279 1100q0 -72 23.5 -127t66.5 -93t101 -56.5t126 -18.5q66 0 123 18.5t99 56.5t66.5 93t24.5 127q0 68 -25.5 122t-68.5 91t-101.5 55t-121.5 18q-68 0 -124 -18t-99 -55t-66.5 -91t-23.5 -122z" />
<glyph unicode="9" d="M121 995q0 98 30.5 186.5t88 155t140.5 105.5t189 39q123 0 211 -53.5t138 -120.5q39 -57 63.5 -125t36.5 -144.5t15 -155.5t3 -157q0 -84 -4 -171t-18.5 -168t-44 -153.5t-78.5 -130.5q-51 -55 -126 -92t-183 -37q-88 0 -163 27t-131.5 76t-89 119.5t-36.5 154.5h108 q8 -125 90 -200.5t222 -75.5q78 0 134 23.5t95 66.5q41 45 65.5 110.5t36 139t13.5 148.5t2 143v34q-45 -100 -138.5 -163.5t-218.5 -63.5q-106 0 -190 36t-141.5 99.5t-88 152.5t-30.5 195zM227 995q0 -76 20.5 -146.5t61.5 -123.5t106.5 -85t153.5 -32q72 0 126.5 23.5 t97.5 64.5q111 106 110 293q0 76 -21.5 146.5t-63.5 126t-104.5 87t-146.5 31.5q-88 0 -152.5 -31.5t-105.5 -85t-61.5 -124t-20.5 -144.5z" />
<glyph unicode=":" horiz-adv-x="602" d="M229 0v180h174v-180h-174zM229 864v180h174v-180h-174z" />
<glyph unicode=";" horiz-adv-x="602" d="M229 -188q66 37 89.5 75.5t23.5 112.5h-111v180h185v-182q0 -170 -152 -242zM238 864v180h174v-180h-174z" />
<glyph unicode="&#x3c;" horiz-adv-x="1017" d="M115 635l684 684l61 -66l-618 -618l620 -621l-61 -61z" />
<glyph unicode="=" horiz-adv-x="1445" d="M236 285v96h976v-96h-976zM236 778v96h976v-96h-976z" />
<glyph unicode="&#x3e;" horiz-adv-x="1017" d="M156 14l620 621l-616 618l61 66l684 -684l-686 -682z" />
<glyph unicode="?" horiz-adv-x="1017" d="M84 1075q0 100 33 182t93 138.5t143 88.5t184 32q94 0 176 -33t137 -92q49 -51 77.5 -115t28.5 -143q0 -131 -61 -220.5t-160 -152.5q-53 -35 -87 -65.5t-52 -66.5t-25.5 -82t-7.5 -112h-108q0 82 12 141.5t38.5 106.5t72 88t112.5 86q150 100 150 270q0 131 -85 206 t-218 75q-162 0 -250 -85t-88 -247h-115zM428 0v164h166v-164h-166z" />
<glyph unicode="@" horiz-adv-x="1949" d="M176 639q0 193 60.5 352.5t172 274t269.5 178t352 63.5q160 0 300 -47t244.5 -139t165 -225t60.5 -299q0 -98 -23.5 -198.5t-71.5 -182.5t-125 -134.5t-179 -52.5q-70 0 -122 46.5t-65 119.5q-20 -37 -49.5 -66.5t-65.5 -51t-77 -33t-80 -11.5q-80 0 -141.5 31t-102.5 81 t-61.5 116.5t-20.5 140.5q0 86 26 167t75 145.5t121.5 103.5t167.5 39q72 0 136 -35t93 -102l27 118h77l-43 -551v-20q0 -63 29 -105.5t88 -42.5q70 0 125 41t91 109t54.5 154t18.5 174q0 145 -52.5 259.5t-142.5 194.5t-214 121t-263 41q-174 0 -312 -58.5t-235.5 -160.5 t-150.5 -243.5t-53 -311.5q0 -150 50 -284t141 -232t220 -155.5t283 -57.5q139 0 270 24.5t258 77.5v-98q-135 -57 -261 -78.5t-273 -21.5q-176 0 -322.5 63.5t-250 176t-161 262t-57.5 323.5zM717 602q0 -59 14 -110.5t43 -89t72 -59t100 -21.5q74 0 125 35.5t83 89 t47.5 118t15.5 125.5q0 53 -12.5 103.5t-39 89.5t-69.5 61.5t-107 22.5q-66 0 -117 -33t-85.5 -85t-52 -118t-17.5 -129z" />
<glyph unicode="A" horiz-adv-x="1269" d="M16 0l564 1481h106l567 -1481h-110l-152 391h-715l-147 -391h-113zM315 494h637l-321 837z" />
<glyph unicode="B" horiz-adv-x="1378" d="M225 0v1481h525q84 0 167.5 -15.5t153.5 -64.5q72 -47 113 -124t41 -159q0 -121 -54.5 -216t-183.5 -132q139 -33 204.5 -133t65.5 -227q0 -88 -32.5 -169t-102.5 -139q-80 -66 -176 -84t-196 -18h-525zM334 102h416q76 0 147.5 13.5t126.5 48.5t89 96.5t34 157.5 q0 90 -32 149.5t-86 93t-126 47t-153 13.5h-416v-619zM334 825h416q78 0 143 11.5t114.5 43t78 87t28.5 143.5q0 76 -31.5 128t-83 84t-117 44t-132.5 12h-416v-553z" />
<glyph unicode="C" horiz-adv-x="1300" d="M121 741q0 80 5 161t22.5 161t51 151.5t95.5 133.5q78 78 181.5 118.5t209.5 40.5q111 0 203 -35.5t161.5 -100t111.5 -153t50 -190.5h-112q-8 82 -41 150.5t-86 119t-127 77t-160 26.5q-100 0 -176 -33t-135 -94q-51 -51 -79 -116.5t-42 -135.5t-17.5 -141.5 t-3.5 -139.5t3.5 -139.5t18.5 -142t43 -136t79 -116.5q123 -127 309 -127q86 0 160 26.5t127 76.5t86 120t41 150h112q-8 -102 -50 -189.5t-111.5 -153t-161.5 -101.5t-203 -36q-106 0 -209.5 42t-181.5 118q-61 61 -95 134t-51.5 152t-22.5 160.5t-5 161.5z" />
<glyph unicode="D" horiz-adv-x="1390" d="M225 0v1481h492q119 0 213 -41t160 -105q61 -59 97 -129.5t54.5 -148.5t23.5 -158t5 -158t-5 -157.5t-23.5 -158.5t-54.5 -149.5t-97 -130.5q-66 -63 -160 -104t-213 -41h-492zM334 106h383q84 0 160.5 29t134.5 82q51 51 80.5 114.5t44 132t18.5 139.5t4 138 q0 68 -4 138.5t-18.5 139t-44 132t-80.5 113.5q-57 55 -134 82.5t-161 27.5h-383v-1268z" />
<glyph unicode="E" horiz-adv-x="1286" d="M225 0v1481h949v-105h-838v-542h737v-105h-737v-625h838v-104h-949z" />
<glyph unicode="F" horiz-adv-x="1214" d="M225 0v1481h928v-105h-819v-571h737v-105h-737v-700h-109z" />
<glyph unicode="G" horiz-adv-x="1415" d="M129 739q0 80 6 162t27.5 162t57.5 151.5t97 133.5q72 70 172.5 114.5t219.5 44.5q115 0 210 -32.5t163.5 -91t110.5 -139.5t50 -177h-110q-6 74 -32 125t-67 96q-59 63 -143 88t-180 25t-173 -32t-135 -89q-53 -49 -83.5 -114.5t-49 -138.5t-23.5 -145.5t-5 -142.5 q0 -68 6 -142.5t23.5 -147t49 -139t85.5 -115.5q121 -115 303 -115q90 0 167.5 30.5t129.5 86.5q43 45 69.5 101t39.5 116.5t16.5 123t3.5 121.5h-437v107h547v-766h-82l-22 227q-29 -59 -75 -106t-103.5 -80t-123 -50.5t-130.5 -17.5q-119 0 -220.5 44t-171.5 112 q-61 59 -97 132t-56.5 153t-27.5 162.5t-7 162.5z" />
<glyph unicode="H" horiz-adv-x="1495" d="M225 0v1481h109v-647h827v647h109v-1481h-109v727h-827v-727h-109z" />
<glyph unicode="I" horiz-adv-x="561" d="M225 0v1481h111v-1481h-111z" />
<glyph unicode="J" horiz-adv-x="1056" d="M31 449h110q0 -92 26 -169t79 -130q76 -70 203 -70q147 0 221 82q43 43 61.5 107.5t18.5 144.5v1067h108v-1065q0 -100 -27.5 -183t-82.5 -141q-51 -55 -125 -87t-174 -32q-88 0 -157 28t-120 77q-70 61 -104.5 158.5t-36.5 212.5z" />
<glyph unicode="K" horiz-adv-x="1368" d="M225 0v1481h111v-914l815 914h133l-489 -553l540 -928h-123l-491 846l-385 -434v-412h-111z" />
<glyph unicode="L" horiz-adv-x="1138" d="M225 0v1481h109v-1379h770v-102h-879z" />
<glyph unicode="M" horiz-adv-x="1841" d="M225 0v1481h154l547 -1315l536 1315h154v-1481h-107v1325l-540 -1305h-97l-540 1295v-1315h-107z" />
<glyph unicode="N" horiz-adv-x="1540" d="M225 0v1481h123l862 -1309v1309h107v-1481h-125l-858 1313v-1313h-109z" />
<glyph unicode="O" horiz-adv-x="1374" d="M121 741q0 80 5 163t25.5 164t56.5 154.5t99 135.5q70 68 164 108.5t217 40.5q121 0 216 -41t163 -108q63 -61 100 -135t56.5 -155t24.5 -164t5 -163t-5 -163.5t-24.5 -164.5t-56.5 -155t-100 -135q-68 -66 -163 -108t-216 -42q-123 0 -217 42t-164 108q-63 61 -99 135 t-56.5 155t-25.5 164.5t-5 163.5zM233 741q0 -68 3.5 -140.5t18.5 -145t46 -141t86 -119.5q57 -57 135 -86t166 -29q86 0 164 28.5t135 86.5q55 51 87 119.5t46.5 141t17.5 145.5t3 140q0 66 -3 139.5t-17.5 147.5t-46.5 140.5t-87 117.5q-57 57 -135 86t-164 29 q-88 0 -166 -29t-135 -86q-55 -51 -86 -117.5t-46 -140.5t-18.5 -147.5t-3.5 -139.5z" />
<glyph unicode="P" horiz-adv-x="1290" d="M225 0v1481h514q106 0 196.5 -25.5t156 -80t103.5 -136.5t38 -195t-38 -194.5t-103.5 -136t-155.5 -80t-197 -25.5h-405v-608h-109zM334 713h405q82 0 152 18.5t120 59t79.5 103t29.5 150.5t-29.5 150.5t-79.5 103.5t-120 59.5t-152 18.5h-405v-663z" />
<glyph unicode="Q" horiz-adv-x="1374" d="M121 741q0 80 5 163t25.5 164t56.5 154.5t99 135.5q70 68 164 108.5t217 40.5q121 0 216 -41t163 -108q63 -61 100 -135t56.5 -155t24.5 -164t5 -163t-5 -160.5t-23.5 -161.5t-54 -153.5t-95.5 -134.5q14 -18 27.5 -33.5t29.5 -36.5l34 -46q19 -26 51 -62l-76 -62 l-140 179q-63 -45 -142 -71t-171 -26q-123 0 -217 42t-164 108q-63 61 -99 135t-56.5 155t-25.5 164.5t-5 163.5zM233 741q0 -68 3.5 -140.5t18.5 -145t46 -141t86 -119.5q57 -57 135 -86t166 -29q139 0 248 72l-221 282l76 62l219 -279q45 53 72.5 117.5t40 134.5 t15.5 140.5t3 131.5q0 66 -3 139.5t-17.5 147.5t-46.5 140.5t-87 117.5q-57 57 -135 86t-164 29q-88 0 -166 -29t-135 -86q-55 -51 -86 -117.5t-46 -140.5t-18.5 -147.5t-3.5 -139.5z" />
<glyph unicode="R" horiz-adv-x="1370" d="M225 0v1481h541q123 0 215 -30t155.5 -86t96.5 -135t33 -175q0 -145 -83 -252t-225 -146l302 -657h-119l-291 631h-516v-631h-109zM334 731h432q184 0 285.5 83t101.5 241q0 160 -101.5 241.5t-285.5 81.5h-432v-647z" />
<glyph unicode="S" horiz-adv-x="1298" d="M104 426h113q8 -68 38 -126t71 -101q61 -61 146 -91t179 -30q96 0 186.5 25.5t149.5 84.5q41 37 64.5 89.5t23.5 123.5q0 51 -19.5 100.5t-57 88.5t-91 65.5t-119.5 34.5l-276 35q-80 10 -145.5 38t-114.5 74t-77 111.5t-28 151.5q0 92 37 159.5t95 118.5q68 63 164 96 t200 33q119 0 228.5 -44t172.5 -117q47 -55 77 -117t36 -142h-110q-8 57 -27 102.5t-55 86.5q-47 61 -133.5 94t-188.5 33q-80 0 -153.5 -20.5t-129.5 -67.5q-41 -39 -69.5 -91.5t-28.5 -123.5q0 -68 21.5 -114t57.5 -76.5t84 -47t97 -22.5l281 -35q86 -10 156.5 -46 t122 -89.5t79 -122t27.5 -146.5q0 -98 -32 -164.5t-85 -119.5q-74 -74 -182.5 -109t-237.5 -35q-127 0 -233.5 40t-179.5 118q-53 59 -89.5 134t-44.5 161z" />
<glyph unicode="T" horiz-adv-x="1112" d="M31 1376v105h1050v-105h-471v-1376h-108v1376h-471z" />
<glyph unicode="U" horiz-adv-x="1445" d="M199 543v938h108v-940q0 -96 23.5 -180.5t75 -147.5t130 -99t187.5 -36t187.5 36t130 99t76 147t24.5 181v940h108v-938q0 -123 -32.5 -226.5t-98 -180.5t-164 -120t-231.5 -43t-231.5 43t-163 120t-97 180.5t-32.5 226.5z" />
<glyph unicode="V" horiz-adv-x="1196" d="M16 1481h115l471 -1325l463 1325h115l-531 -1481h-102z" />
<glyph unicode="W" horiz-adv-x="1800" d="M82 1481h102l277 -1325l391 1302h98l393 -1302l273 1325h102l-311 -1481h-119l-389 1296l-391 -1296h-115z" />
<glyph unicode="X" horiz-adv-x="1193" d="M47 0l488 750l-486 731h121l430 -647l430 647h117l-488 -731l488 -750h-123l-428 662l-430 -662h-119z" />
<glyph unicode="Y" horiz-adv-x="1136" d="M4 1481h117l450 -787l453 787h111l-512 -893v-588h-107v588z" />
<glyph unicode="Z" horiz-adv-x="1290" d="M104 0v117l943 1261h-928v103h1052v-117l-944 -1262h955v-102h-1078z" />
<glyph unicode="[" horiz-adv-x="669" d="M229 -240v1831h369v-86h-276v-1659h276v-86h-369z" />
<glyph unicode="\" horiz-adv-x="827" d="M25 1507h98l653 -1534h-96z" />
<glyph unicode="]" horiz-adv-x="669" d="M74 -154h274v1659h-274v86h366v-1831h-366v86z" />
<glyph unicode="^" horiz-adv-x="1071" d="M145 846l336 661h115l330 -661h-115l-274 557l-275 -557h-117z" />
<glyph unicode="_" horiz-adv-x="1105" d="M70 0h968v-90h-968v90z" />
<glyph unicode="`" horiz-adv-x="505" d="M41 1376l57 92l330 -241l-35 -58z" />
<glyph unicode="a" horiz-adv-x="1171" d="M121 295q0 139 97 220t255 91l383 27v102q0 129 -78 183.5t-196 54.5q-127 0 -210 -56.5t-91 -173.5h-105q6 80 38 140.5t85 102.5t125 63.5t158 21.5q51 0 105 -9t102.5 -31.5t86 -59.5t58.5 -92q18 -47 22.5 -97.5t4.5 -101.5v-477q0 -55 13 -84t68 -29q18 0 29 2v-92 q-18 -4 -24.5 -5t-24.5 -1q-49 0 -81 16.5t-51.5 45t-26.5 64.5t-7 79q-20 -57 -59 -98.5t-89.5 -70t-108.5 -43t-118 -14.5q-76 0 -141.5 21.5t-114.5 63.5t-76.5 101.5t-27.5 135.5zM227 295q0 -113 75 -169t187 -56q98 0 168 35.5t114 94t64.5 133.5t20.5 150v54 l-373 -23q-119 -8 -187.5 -65.5t-68.5 -153.5z" />
<glyph unicode="b" horiz-adv-x="1218" d="M207 0v1507h104v-639q20 45 57.5 82t83.5 64.5t99 42t108 14.5q92 0 163 -28.5t122 -79.5q84 -80 124 -197t40 -246q0 -135 -42 -254t-130 -194q-53 -47 -120.5 -73t-158.5 -26q-51 0 -104 14.5t-99 42t-84 66.5t-59 88l-12 -184h-92zM309 522q0 -109 32 -202t101 -160 q41 -39 93.5 -61.5t119.5 -22.5q68 0 118 18.5t89 52.5q74 66 106.5 164.5t32.5 210.5q0 100 -28.5 194.5t-89.5 160.5q-41 43 -95.5 67.5t-128.5 24.5q-72 0 -125 -21.5t-94 -58.5q-72 -68 -101.5 -159t-29.5 -208z" />
<glyph unicode="c" horiz-adv-x="1069" d="M117 522q0 133 32.5 238.5t114.5 187.5q53 55 131 89t174 34q82 0 153 -24.5t123 -71.5t85 -111.5t43 -144.5h-109q-16 109 -95 179.5t-200 70.5q-74 0 -131 -23.5t-100 -66.5q-70 -72 -92.5 -163t-22.5 -194q0 -102 22.5 -194t92.5 -164q84 -88 231 -88q123 0 201 73.5 t96 180.5h111q-10 -76 -44 -141.5t-87 -113.5t-124 -75t-153 -27q-96 0 -174 34t-131 89q-82 82 -114.5 187.5t-32.5 238.5z" />
<glyph unicode="d" horiz-adv-x="1218" d="M113 520q0 129 40 246t123 197q51 51 121 79.5t162 28.5q57 0 110.5 -14.5t99.5 -42t83 -64.5t57 -82v639h105v-1507h-92l-13 184q-20 -49 -58 -88t-84 -66.5t-99.5 -42t-106.5 -14.5q-88 0 -156.5 26t-119.5 73q-88 76 -130 194.5t-42 253.5zM219 522q0 -113 33 -211 t104 -164q41 -35 91.5 -53t115.5 -18q70 0 122 22.5t91 61.5q72 68 103.5 161t31.5 201q0 117 -29.5 208t-103.5 159q-39 37 -92 58.5t-127 21.5q-72 0 -126 -24.5t-97 -67.5q-59 -66 -88 -160.5t-29 -194.5z" />
<glyph unicode="e" horiz-adv-x="1124" d="M117 518q0 100 21.5 194.5t80.5 178.5q133 180 354 180q109 0 191 -42t139.5 -111.5t88 -161.5t30.5 -191l-2 -67h-799q2 -92 31 -173t78 -141q45 -53 106.5 -81.5t147.5 -28.5q139 0 227 92q29 29 48.5 64.5t31.5 82.5h108q-12 -68 -42.5 -123t-75.5 -96 q-55 -57 -132 -89t-165 -32q-113 0 -195 42t-139 106q-63 76 -98 177t-35 220zM223 594h692q-2 74 -25.5 142.5t-67.5 121.5t-106.5 84t-142.5 31t-145.5 -30t-109.5 -82t-69.5 -121.5t-25.5 -145.5z" />
<glyph unicode="f" horiz-adv-x="733" d="M68 948v96h208v185q0 57 18.5 110.5t55.5 94.5t92.5 64.5t126.5 23.5q47 0 85 -3t75 -12v-92q-31 4 -67.5 8t-81.5 4q-199 0 -199 -202v-181h328v-96h-328v-948h-105v948h-208z" />
<glyph unicode="g" horiz-adv-x="1112" d="M119 -166q0 76 42 142.5t115 103.5q-55 16 -94 66.5t-39 103.5q0 68 33 116t94 83q-49 49 -76.5 112.5t-27.5 145.5q0 84 29.5 151.5t82 115.5t125 72.5t152.5 24.5q139 0 246 -70q20 66 79.5 104t131.5 38q10 0 19 -2t20 -2v-90q-10 0 -19.5 2t-19.5 2q-57 0 -96 -29 t-50 -84q41 -45 62.5 -104.5t21.5 -128.5q0 -86 -30.5 -153t-85 -113t-126 -71.5t-153.5 -25.5q-117 0 -209 49q-41 -16 -72.5 -49t-31.5 -80q0 -39 21.5 -62.5t51.5 -35.5q29 -12 70 -15.5t70 -3.5h229q98 0 177 -24.5t128 -77.5q39 -37 61.5 -85t22.5 -116 q0 -61 -21.5 -110t-56.5 -84q-68 -70 -178 -97.5t-235 -27.5q-121 0 -222.5 27.5t-166.5 95.5q-37 35 -55.5 81t-18.5 105zM217 -166q0 -41 15.5 -74.5t41.5 -56.5q27 -27 65 -42t78 -25.5t83 -13.5t84 -3q39 0 84 3t91 13.5t86 29t70 46.5q23 23 38.5 56.5t15.5 76.5 t-13.5 73t-35.5 56q-74 76 -254 76h-275q-68 -16 -121 -69.5t-53 -145.5zM268 707q0 -63 21.5 -113.5t60.5 -84.5t92.5 -52.5t112.5 -18.5q61 0 114.5 18.5t92.5 52.5t61.5 84t22.5 114q0 61 -22.5 111t-61.5 86t-92.5 54.5t-114.5 18.5q-59 0 -112.5 -18.5t-92.5 -54.5 t-60.5 -86t-21.5 -111z" />
<glyph unicode="h" horiz-adv-x="1216" d="M207 0v1507h104v-655q20 51 58.5 91t85.5 68.5t101 44t108 15.5q182 0 275 -102.5t93 -278.5v-690h-104v684q0 137 -62.5 213t-208.5 76q-96 0 -162.5 -38t-107.5 -102.5t-58.5 -145.5t-17.5 -165v-522h-104z" />
<glyph unicode="i" horiz-adv-x="542" d="M199 1335v146h145v-146h-145zM217 0v1044h111v-1044h-111z" />
<glyph unicode="j" horiz-adv-x="591" d="M-37 -322l61 -8q30 -4 74 -4q94 0 134 53.5t40 151.5v1173h105v-1177q0 -66 -15.5 -121t-47 -95t-83 -61.5t-125.5 -21.5q-45 0 -75.5 3t-67.5 11v96zM248 1335v146h145v-146h-145z" />
<glyph unicode="k" horiz-adv-x="1118" d="M207 0v1507h106v-1097l588 634h131l-370 -403l419 -641h-127l-366 557l-275 -299v-258h-106z" />
<glyph unicode="l" horiz-adv-x="581" d="M201 209v1298h104v-1294q0 -53 20.5 -89t88.5 -36h49q18 0 41 4v-92q-16 -4 -39 -8t-55 -4q-100 0 -154.5 53t-54.5 168z" />
<glyph unicode="m" horiz-adv-x="1826" d="M207 0v1044h92l12 -180q41 90 123 148.5t195 58.5q137 0 218 -61.5t111 -163.5q43 98 125 161.5t211 63.5q92 0 159 -27.5t108 -79t61 -122t20 -152.5v-690h-104v684q0 135 -56.5 212t-193.5 77q-59 0 -104 -18.5t-80 -51.5q-61 -59 -93 -138t-32 -173v-592h-107v684 q0 135 -57 212t-192 77q-61 0 -105.5 -18.5t-81.5 -51.5q-72 -68 -98.5 -168t-26.5 -213v-522h-104z" />
<glyph unicode="n" horiz-adv-x="1216" d="M207 0v1044h92l12 -190q20 51 58.5 90t85.5 67.5t101 44t108 15.5q182 0 275 -102.5t93 -278.5v-690h-104v684q0 137 -62.5 211t-208.5 74q-96 0 -162.5 -38t-107.5 -101.5t-58.5 -143.5t-17.5 -164v-522h-104z" />
<glyph unicode="o" horiz-adv-x="1138" d="M117 522q0 133 33.5 237.5t115.5 186.5q53 55 130 90t173 35q98 0 175 -35t130 -90q82 -82 116 -186.5t34 -237.5t-34 -237.5t-116 -186.5q-53 -55 -129.5 -90t-175.5 -35q-96 0 -173 35t-130 90q-82 82 -115.5 186.5t-33.5 237.5zM223 522q0 -102 23.5 -192t93.5 -162 q43 -43 99.5 -67.5t129.5 -24.5q76 0 132.5 24.5t99.5 67.5q70 72 93.5 162t23.5 192t-24 192.5t-93 162.5q-43 43 -99.5 67.5t-132.5 24.5q-74 0 -130 -24.5t-99 -67.5q-70 -72 -93.5 -162.5t-23.5 -192.5z" />
<glyph unicode="p" horiz-adv-x="1218" d="M207 -418v1462h92l12 -184q20 49 58.5 88t84.5 66.5t99 42t104 14.5q90 0 158 -25.5t121 -72.5q88 -76 130 -195t42 -254q0 -129 -40 -245.5t-124 -196.5q-51 -51 -121.5 -80t-163.5 -29q-55 0 -108 14.5t-99 42t-83 64.5t-58 82v-594h-104zM309 522q0 -117 30 -208 t101 -158q41 -37 94.5 -58.5t124.5 -21.5q74 0 128.5 24.5t95.5 67.5q61 66 89.5 160t28.5 194q0 113 -32.5 211t-106.5 164q-39 35 -89 53.5t-118 18.5t-120 -22.5t-93 -61.5q-70 -68 -101.5 -161t-31.5 -202z" />
<glyph unicode="q" horiz-adv-x="1218" d="M113 524q0 135 42 254t130 195q51 47 119.5 72.5t156.5 25.5q53 0 106.5 -14.5t99.5 -42t84 -66.5t58 -88l13 184h92v-1462h-105v594q-20 -45 -57 -82t-83 -64.5t-99.5 -42t-110.5 -14.5q-92 0 -161.5 29t-121.5 80q-84 80 -123.5 196.5t-39.5 245.5zM219 522 q0 -100 28.5 -194.5t88.5 -159.5q43 -43 97 -67.5t126 -24.5q74 0 127 21.5t92 58.5q74 68 103.5 159t29.5 207q0 109 -31.5 202t-103.5 161q-39 39 -91 61.5t-122 22.5q-66 0 -116 -18.5t-91 -53.5q-72 -66 -104.5 -164t-32.5 -211z" />
<glyph unicode="r" horiz-adv-x="794" d="M207 0v1044h92l12 -210q35 109 128 165t204 56q25 0 51.5 -1t50.5 -5v-105q-25 6 -51 8t-51 2q-98 0 -161.5 -40t-101.5 -104.5t-53.5 -145t-15.5 -162.5v-502h-104z" />
<glyph unicode="s" horiz-adv-x="1069" d="M113 317h106q8 -92 78 -161q45 -43 107.5 -62.5t138.5 -19.5q82 0 144.5 18.5t103.5 57.5q29 31 42 59.5t13 75.5q0 70 -49 123t-144 67l-202 27q-63 8 -128 30.5t-108 73.5q-59 68 -59 164q0 63 24.5 114.5t65.5 88.5q57 53 131 75.5t155 22.5q94 0 178.5 -29.5 t137.5 -93.5q35 -41 56.5 -91t23.5 -101h-105q-4 25 -15 60.5t-38 64.5q-35 43 -95.5 67.5t-142.5 24.5q-121 0 -188 -47q-80 -59 -80 -146q0 -66 41 -111.5t160 -62.5l199 -26q74 -12 128 -40t90 -68t53 -87t17 -94q0 -111 -71 -193q-55 -63 -144.5 -94t-193.5 -31 q-106 0 -193.5 33t-148.5 100q-45 49 -64.5 97t-23.5 114z" />
<glyph unicode="t" horiz-adv-x="772" d="M49 948v96h209v289l104 25v-314h326v-96h-326v-653q0 -47 8.5 -85t28 -66.5t53 -44t85.5 -15.5q43 0 82.5 5t82.5 13v-92q-45 -10 -88 -17t-86 -7q-145 0 -207.5 84t-62.5 221v657h-209z" />
<glyph unicode="u" horiz-adv-x="1216" d="M186 356v691h105v-685q0 -137 62.5 -210.5t205.5 -73.5q96 0 164 37t107.5 100.5t58 143t18.5 165.5v523h105v-1045h-92l-13 191q-25 -51 -60.5 -91.5t-82.5 -69t-101.5 -43t-109.5 -14.5q-180 0 -273.5 102.5t-93.5 278.5z" />
<glyph unicode="v" horiz-adv-x="974" d="M29 1044h118l353 -897l336 897h110l-397 -1044h-107z" />
<glyph unicode="w" horiz-adv-x="1556" d="M90 1044h100l226 -919l309 905h111l307 -897l227 911h98l-258 -1044h-127l-307 895l-303 -895h-125z" />
<glyph unicode="x" horiz-adv-x="985" d="M45 0l377 541l-369 516h125l318 -447l319 447h121l-373 -516l377 -541h-125l-321 465l-324 -465h-125z" />
<glyph unicode="y" horiz-adv-x="999" d="M33 1044h112l367 -927l350 927h113l-483 -1267q-41 -102 -109 -157.5t-174 -55.5q-31 0 -56.5 2t-41.5 6q-20 4 -33 10v88q20 -4 43 -6q39 -6 84 -6q76 0 120 44t70 110l66 172z" />
<glyph unicode="z" horiz-adv-x="1026" d="M127 0v117l670 829h-670v98h782v-114l-669 -830h675v-100h-788z" />
<glyph unicode="{" horiz-adv-x="733" d="M125 627v98q43 4 81 18.5t68.5 39t48 58t17.5 79.5v372q0 145 77 222t220 77h55v-88h-55q-109 0 -155 -52t-46 -159v-372q0 -90 -56 -155t-140 -89q84 -23 140 -89.5t56 -156.5v-373q0 -106 46 -158.5t155 -52.5h55v-88h-55q-143 0 -220 77t-77 222v373q0 45 -17.5 79 t-48 59.5t-68.5 40t-81 18.5z" />
<glyph unicode="|" horiz-adv-x="538" d="M225 -240v1829h88v-1829h-88z" />
<glyph unicode="}" horiz-adv-x="733" d="M41 -154h55q109 0 155 52.5t46 158.5v373q0 90 56.5 156.5t140.5 89.5q-84 25 -140.5 89t-56.5 155v372q0 106 -46 158.5t-155 52.5h-55v88h55q143 0 220 -76.5t77 -222.5v-372q0 -45 17.5 -79t48 -58.5t68.5 -39t81 -18.5v-98q-43 -4 -81 -18.5t-68.5 -40t-48 -59.5 t-17.5 -79v-373q0 -145 -76.5 -222t-220.5 -77h-55v88z" />
<glyph unicode="~" horiz-adv-x="1294" d="M174 627q57 57 120.5 92t149.5 35q57 0 108.5 -17.5t100.5 -40.5q49 -25 98.5 -43t100.5 -18q63 0 110.5 24.5t92.5 65.5l67 -76q-59 -55 -121.5 -92t-148.5 -37q-55 0 -106.5 19.5t-102.5 44.5q-47 23 -98 42t-103 19q-61 0 -109 -26.5t-93 -69.5z" />
<glyph horiz-adv-x="1290" d="M104 0v117l943 1261h-928v103h1052v-117l-944 -1262h955v-102h-1078zM360 1866l66 55l231 -272l232 272l63 -55l-260 -299h-69z" />
<glyph unicode="&#x17d;" horiz-adv-x="1290" d="M104 0v117l943 1261h-928v103h1052v-117l-944 -1262h955v-102h-1078zM360 1866l66 55l231 -272l232 272l63 -55l-260 -299h-69z" />
<glyph horiz-adv-x="1026" d="M127 0v117l670 829h-670v98h782v-114l-669 -830h675v-100h-788zM256 1427l59 50l209 -244l207 244l57 -50l-235 -270h-61z" />
<glyph unicode="&#x17e;" horiz-adv-x="1026" d="M127 0v117l670 829h-670v98h782v-114l-669 -830h675v-100h-788zM256 1427l59 50l209 -244l207 244l57 -50l-235 -270h-61z" />
<glyph unicode="&#xa1;" horiz-adv-x="641" d="M211 897v158h160v-158h-160zM223 -20l29 602h72l28 -602v-406h-129v406z" />
<glyph unicode="&#xa2;" d="M180 729q0 131 30 237.5t112 188.5q49 49 113.5 81t146.5 40v205h84v-205q78 -6 141 -36t110.5 -79t76 -116.5t34.5 -143.5h-108q-10 109 -78 184.5t-176 88.5v-887q113 12 180 91t78 185h108q-6 -74 -34.5 -141.5t-76 -118.5t-113 -83t-142.5 -38v-182h-84v184 q-82 8 -146.5 40t-113.5 81q-82 82 -112 187.5t-30 236.5zM287 729q0 -102 19.5 -194.5t90.5 -163.5q66 -72 185 -84v887q-59 -6 -105.5 -29t-79.5 -60q-72 -72 -91 -163t-19 -193z" />
<glyph unicode="&#xa3;" horiz-adv-x="1206" d="M106 727v94h175v242q0 109 29.5 188.5t82.5 132t125 76t152 23.5q94 0 164.5 -32t117.5 -85t69.5 -120.5t22.5 -137.5h-100q0 55 -16.5 105.5t-51 89t-88 61t-124.5 22.5q-82 0 -136.5 -25.5t-86 -71.5t-44 -105.5t-12.5 -124.5v-238h379v-94h-379v-430q0 -25 -4 -54.5 t-16.5 -55t-31 -47t-46.5 -34.5v-4h508q119 0 172 65.5t57 158.5h98q-4 -158 -94 -242t-233 -84h-684v115q80 6 125 52t45 140v420h-175z" />
<glyph unicode="&#xa4;" d="M199 66l166 145q-53 63 -84 144t-31 173q0 90 28.5 169t79.5 143l-159 139l84 84l139 -162q59 47 132 75t159 28t158.5 -28t132.5 -75l137 162l84 -84l-162 -139q53 -63 82 -142.5t29 -169.5q0 -92 -30 -172t-85 -145l166 -145l-84 -82l-144 166q-59 -45 -130.5 -71 t-153.5 -26q-84 0 -156 24.5t-131 72.5l-143 -166zM348 528q0 -78 27.5 -147.5t76 -121.5t115 -83t146.5 -31t146.5 31t114.5 83t74.5 122t26.5 147q0 78 -26.5 146.5t-74.5 121t-114.5 83t-146.5 30.5t-146.5 -30.5t-115 -83t-76 -121t-27.5 -146.5z" />
<glyph unicode="&#xa5;" d="M31 1452h114l445 -772l440 772h109l-451 -790h344v-82h-393l-2 -7v-211h395v-83h-395v-279h-105v279h-350v83h350v211l-2 7h-348v82h301z" />
<glyph unicode="&#xa6;" horiz-adv-x="550" d="M225 -104v663h101v-663h-101zM225 915v670h101v-670h-101z" />
<glyph unicode="&#xa7;" horiz-adv-x="1136" d="M152 655q0 76 44 153t134 130q-98 106 -99 227q0 72 27 126.5t68 94.5q51 49 115.5 74t136.5 25q78 0 144 -26.5t109 -72.5q102 -104 103 -266h-109q0 59 -16 109.5t-57 93.5q-29 29 -73 46t-101 17q-102 0 -168 -57q-33 -31 -52.5 -69.5t-19.5 -88.5q0 -66 27.5 -111.5 t74.5 -88.5l430 -375q68 -59 97.5 -124.5t29.5 -154.5q0 -76 -44 -152.5t-134 -129.5q98 -106 99 -228q0 -72 -27 -126t-68 -95q-51 -47 -115.5 -72.5t-136.5 -25.5q-78 0 -144.5 27.5t-109.5 70.5q-102 104 -102 273h109q0 -61 16 -113.5t57 -93.5q29 -31 73 -48.5 t101 -17.5q102 0 168 60q33 29 52.5 68.5t19.5 86.5q0 68 -27.5 114t-74.5 87l-430 377q-68 57 -97.5 122.5t-29.5 153.5zM250 666q0 -66 20.5 -113t73.5 -96l408 -357q68 35 107.5 90.5t39.5 116.5q0 68 -20.5 114t-73.5 95l-408 356q-68 -35 -107.5 -90t-39.5 -116z" />
<glyph unicode="&#xa8;" horiz-adv-x="606" d="M47 1300v134h127v-134h-127zM432 1300v134h127v-134h-127z" />
<glyph unicode="&#xa9;" horiz-adv-x="1837" d="M152 739q0 160 60 300.5t164.5 246t243 165.5t300.5 60q158 0 298 -60t244.5 -165.5t164 -246t59.5 -300.5t-59.5 -300t-164 -245.5t-245 -166t-297.5 -60.5q-162 0 -300.5 60.5t-243 166t-164.5 245.5t-60 300zM252 739q0 -141 51 -265t141.5 -215t212 -144.5 t263.5 -53.5q139 0 261 53.5t212 144.5t141 215t51 265q0 139 -51 264t-141 218.5t-212 146.5t-261 53q-141 0 -263 -53t-212.5 -146.5t-141.5 -218.5t-51 -264zM557 735q0 86 23.5 162t70.5 133t117 91t164 34q66 0 124 -20.5t103 -59.5t73 -96t34 -131h-107 q-8 96 -70.5 151.5t-156.5 55.5q-72 0 -122 -24.5t-82 -67.5t-47 -101.5t-15 -126.5t15 -125t47 -100t82 -67.5t122 -24.5q94 0 156.5 55t70.5 152h107q-6 -74 -34 -131.5t-73 -96.5t-103.5 -59.5t-123.5 -20.5q-94 0 -164 34t-117 90.5t-70.5 132t-23.5 161.5z" />
<glyph unicode="&#xaa;" horiz-adv-x="1021" d="M150 889q0 106 72.5 167.5t191.5 69.5l293 21v76q0 98 -58.5 138t-150.5 40q-94 0 -154.5 -43t-67.5 -131h-83q8 123 92 188.5t213 65.5q39 0 81 -7.5t78.5 -24.5t65.5 -46t45 -70q14 -39 18.5 -75.5t4.5 -77.5v-361q0 -43 10 -64.5t49 -21.5q12 0 22 2v-73l-20 -5h-18 q-74 0 -99.5 43t-27.5 105q-31 -68 -107 -116t-172 -48q-57 0 -107.5 15.5t-88 47t-60 78t-22.5 107.5zM236 889q0 -86 55 -128t143 -42q74 0 125 27.5t84 72.5t48.5 101.5t15.5 113.5v35l-287 -16q-88 -4 -136 -48t-48 -116z" />
<glyph unicode="&#xab;" horiz-adv-x="1093" d="M115 608l338 457l69 -51l-284 -406l284 -403l-69 -55zM549 608l340 457l69 -51l-286 -406l286 -403l-69 -55z" />
<glyph unicode="&#xac;" horiz-adv-x="1294" d="M131 584v96h971v-432h-98v336h-873z" />
<glyph unicode="&#xad;" horiz-adv-x="903" d="M156 584v96h592v-96h-592z" />
<glyph unicode="&#xae;" horiz-adv-x="1837" d="M152 739q0 160 60 300.5t164.5 246t243 165.5t300.5 60q158 0 298 -60t244.5 -165.5t164 -246t59.5 -300.5t-59.5 -300t-164 -245.5t-245 -166t-297.5 -60.5q-162 0 -300.5 60.5t-243 166t-164.5 245.5t-60 300zM252 739q0 -141 51 -265t141.5 -215t212 -144.5 t263.5 -53.5q139 0 261 53.5t212 144.5t141 215t51 265q0 139 -51 264t-141 218.5t-212 146.5t-261 53q-141 0 -263 -53t-212.5 -146.5t-141.5 -218.5t-51 -264zM666 334v821h286q70 0 121 -20.5t85 -57.5t51.5 -84t17.5 -96q0 -78 -40 -141.5t-120 -93.5l152 -328h-113 l-139 307h-203v-307h-98zM764 741h186q94 0 135 49.5t41 108.5q0 57 -39.5 106.5t-134.5 49.5h-188v-314z" />
<glyph unicode="&#xaf;" horiz-adv-x="616" d="M35 1286v98h549v-98h-549z" />
<glyph unicode="&#xb0;" horiz-adv-x="995" d="M152 1163q0 72 27.5 135.5t74.5 110.5t110.5 73.5t135.5 26.5q70 0 133 -26.5t110.5 -73.5t74 -110.5t26.5 -135.5t-26.5 -135t-74 -110.5t-111 -74t-132.5 -26.5q-72 0 -135.5 26.5t-110.5 74t-74.5 110.5t-27.5 135zM248 1163q0 -53 19.5 -99t53 -81t78.5 -54.5 t101 -19.5q51 0 97 19.5t80 54.5t52.5 81t18.5 99t-18.5 100.5t-52.5 81t-80 54t-97 20.5q-55 0 -100.5 -20.5t-79 -54t-53 -81t-19.5 -100.5z" />
<glyph unicode="&#xb1;" horiz-adv-x="1189" d="M152 0v92h886v-92h-886zM152 735v92h395v400h98v-400h393v-92h-393v-411h-98v411h-395z" />
<glyph unicode="&#xb2;" horiz-adv-x="858" d="M152 1231q0 53 19 101t53 85t84 57.5t114 20.5q51 0 97 -14.5t83 -43t58.5 -70.5t21.5 -99q0 -82 -49 -140.5t-107 -109.5l-213 -195h394v-90h-543v78l325 299q37 35 65 73t28 85q0 68 -47.5 101.5t-112.5 33.5q-86 0 -127 -50t-41 -122h-102z" />
<glyph unicode="&#xb3;" horiz-adv-x="876" d="M152 967h96q6 -86 57 -130t135 -44q51 0 92 12t68 43q29 35 29 90q0 53 -41 90t-121 37h-61v88h61q74 0 108.5 33t34.5 86q0 29 -9 51.5t-28 38.5q-45 47 -129 47t-132 -41t-54 -125h-96q10 121 88 186.5t194 65.5q141 0 213 -82q25 -29 39.5 -60.5t14.5 -74.5 q0 -51 -30 -101.5t-83 -66.5q66 -25 96.5 -72t30.5 -106q0 -76 -39 -127q-37 -53 -100.5 -76.5t-145.5 -23.5q-53 0 -102 16t-89 50t-66.5 83.5t-30.5 112.5z" />
<glyph unicode="&#xb4;" horiz-adv-x="505" d="M74 1237l329 242l58 -93l-352 -206z" />
<glyph unicode="&#xb5;" horiz-adv-x="1236" d="M207 -418v1462h104v-684q0 -137 62.5 -210.5t208.5 -73.5q94 0 161.5 37t108.5 100t58.5 143t17.5 166v522h104v-1044h-92l-12 190q-23 -51 -60 -90t-84 -67.5t-101 -44t-110 -15.5q-109 0 -169 31t-93 72v-494h-104z" />
<glyph unicode="&#xb6;" horiz-adv-x="1406" d="M156 1106q0 76 29.5 144.5t79.5 119.5t117 80t144 29h705v-101h-209v-1640h-102v1640h-291v-1640h-103v997q-78 0 -144.5 30t-116.5 80t-79.5 116.5t-29.5 144.5z" />
<glyph unicode="&#xb7;" horiz-adv-x="591" d="M188 532v189h185v-189h-185z" />
<glyph unicode="&#xb8;" horiz-adv-x="362" d="M57 -403l150 282h98l-137 -334z" />
<glyph unicode="&#xb9;" horiz-adv-x="649" d="M131 1210v113l209 158h94v-760h-98v643z" />
<glyph unicode="&#xba;" horiz-adv-x="1021" d="M170 1059q0 100 22.5 182t86.5 143q41 43 100 69t135 26t134.5 -26t99.5 -69q63 -61 85.5 -143t22.5 -182t-22.5 -181t-85.5 -145q-41 -41 -99.5 -67.5t-134.5 -26.5t-135.5 26.5t-99.5 67.5q-63 63 -86 144.5t-23 181.5zM254 1059q0 -78 14.5 -146.5t67.5 -121.5 q63 -68 178 -68q111 0 174 68q53 53 67.5 121.5t14.5 146.5t-14.5 146.5t-67.5 123.5q-31 31 -75 49.5t-99 18.5q-57 0 -103 -18.5t-75 -49.5q-53 -55 -67.5 -123.5t-14.5 -146.5z" />
<glyph unicode="&#xbb;" horiz-adv-x="1093" d="M135 205l287 403l-287 406l72 51l336 -457l-336 -458zM569 205l287 403l-287 406l72 51l338 -457l-338 -458z" />
<glyph unicode="&#xbc;" horiz-adv-x="1771" d="M215 1210v113l209 158h94v-760h-98v643zM322 31l1079 1470l76 -51l-1082 -1475zM1001 170v102l328 502h113l-340 -512h287v172h98v-172h135v-92h-135v-170h-98v170h-388z" />
<glyph unicode="&#xbd;" horiz-adv-x="1918" d="M205 1210v113l209 158h94v-760h-98v643zM315 31l1080 1470l75 -51l-1081 -1475zM1133 498q0 53 18 101t53 85t85 58.5t112 21.5q51 0 98 -14.5t83 -42t57.5 -70.5t21.5 -100q0 -82 -48 -140.5t-108 -109.5l-215 -195h393v-92h-542v78l325 301q35 35 65 72.5t30 85.5 q0 68 -47.5 100.5t-112.5 32.5q-84 0 -126 -50.5t-42 -121.5h-100z" />
<glyph unicode="&#xbe;" horiz-adv-x="1859" d="M160 967h94q8 -86 58 -130t134 -44q51 0 93.5 12t66.5 43q29 35 29 90q0 53 -41 90t-119 37h-63v88h63q72 0 106.5 33t34.5 86q0 29 -9 51.5t-25 38.5q-47 47 -131 47q-82 0 -131.5 -41t-53.5 -125h-98q10 121 88 186.5t195 65.5q141 0 213 -82q25 -29 39 -60.5t14 -74.5 q0 -51 -30 -101.5t-83 -66.5q66 -25 96.5 -72t30.5 -106q0 -76 -39 -127q-37 -53 -100.5 -76.5t-145.5 -23.5q-53 0 -102 16t-89 50t-65.5 83.5t-29.5 112.5zM416 31l1079 1470l76 -51l-1082 -1475zM1087 170v102l330 502h113l-342 -512h289v172h98v-172h133v-92h-133v-170 h-98v170h-390z" />
<glyph unicode="&#xbf;" horiz-adv-x="1017" d="M63 -80q0 133 61.5 221t160.5 152q53 33 87 64.5t52 67.5t24.5 82t6.5 111h108q0 -82 -11 -141t-38 -106t-72 -88t-112 -86q-150 -100 -150 -271q0 -131 84 -205.5t219 -74.5q162 0 250 85t88 246h115q0 -100 -34 -181t-93 -138t-142 -88t-184 -31q-94 0 -176 32t-137 93 q-49 49 -78 112.5t-29 143.5zM426 891v162h166v-162h-166z" />
<glyph unicode="&#xc0;" horiz-adv-x="1269" d="M16 0l564 1481h106l567 -1481h-110l-152 391h-715l-147 -391h-113zM315 494h637l-321 837zM418 1853l57 93l330 -244l-37 -55z" />
<glyph unicode="&#xc1;" horiz-adv-x="1269" d="M16 0l564 1481h106l567 -1481h-110l-152 391h-715l-147 -391h-113zM315 494h637l-321 837zM422 1661l330 242l59 -93l-354 -206z" />
<glyph unicode="&#xc2;" horiz-adv-x="1269" d="M16 0l564 1481h106l567 -1481h-110l-152 391h-715l-147 -391h-113zM315 494h637l-321 837zM330 1651l262 299h67l263 -299l-66 -58l-231 275l-230 -275z" />
<glyph unicode="&#xc3;" horiz-adv-x="1269" d="M16 0l564 1481h106l567 -1481h-110l-152 391h-715l-147 -391h-113zM303 1755q39 35 80 62.5t98 27.5q39 0 75 -14t67.5 -31.5t63.5 -31t65 -13.5q37 0 65.5 13.5t52.5 35.5l54 -53q-41 -37 -83 -62.5t-98 -25.5q-37 0 -72.5 13.5t-69.5 31.5t-66.5 31.5t-69.5 13.5 q-35 0 -61.5 -14.5t-53.5 -38.5zM315 494h637l-321 837z" />
<glyph unicode="&#xc4;" horiz-adv-x="1269" d="M16 0l564 1481h106l567 -1481h-110l-152 391h-715l-147 -391h-113zM315 494h637l-321 837zM373 1657v131h125v-131h-125zM756 1657v131h125v-131h-125z" />
<glyph unicode="&#xc5;" horiz-adv-x="1269" d="M16 0l537 1417q-66 23 -109 81t-43 138q0 98 61.5 163t172.5 65t172 -64.5t61 -163.5q0 -82 -45 -140t-112 -81l542 -1415h-110l-152 391h-715l-147 -391h-113zM315 494h637l-321 837zM485 1634q0 -63 40 -108t110 -45t110.5 45t40.5 108q0 61 -40.5 107.5t-110.5 46.5 t-110 -46.5t-40 -107.5z" />
<glyph unicode="&#xc6;" horiz-adv-x="1851" d="M0 0l655 1481h1086v-101h-727v-538h622v-103h-622v-637h727v-102h-834v414h-610l-180 -414h-117zM342 514h565v866h-186z" />
<glyph unicode="&#xc7;" horiz-adv-x="1300" d="M121 741q0 80 5 161t22.5 161t51 151.5t95.5 133.5q78 78 181.5 118.5t209.5 40.5q111 0 203 -35.5t161.5 -100t111.5 -153t50 -190.5h-112q-8 82 -41 150.5t-86 119t-127 77t-160 26.5q-100 0 -176 -33t-135 -94q-51 -51 -79 -116.5t-42 -135.5t-17.5 -141.5 t-3.5 -139.5t3.5 -139.5t18.5 -142t43 -136t79 -116.5q123 -127 309 -127q86 0 160 26.5t127 76.5t86 120t41 150h112q-8 -102 -50 -189.5t-111.5 -153t-161.5 -101.5t-203 -36q-106 0 -209.5 42t-181.5 118q-61 61 -95 134t-51.5 152t-22.5 160.5t-5 161.5zM510 -383 l149 283h99l-137 -334z" />
<glyph unicode="&#xc8;" horiz-adv-x="1286" d="M225 0v1481h949v-105h-838v-542h737v-105h-737v-625h838v-104h-949zM487 1812l56 93l329 -242l-34 -57z" />
<glyph unicode="&#xc9;" horiz-adv-x="1286" d="M225 0v1481h949v-105h-838v-542h737v-105h-737v-625h838v-104h-949zM496 1661l329 242l58 -93l-353 -206z" />
<glyph unicode="&#xca;" horiz-adv-x="1286" d="M225 0v1481h949v-105h-838v-542h737v-105h-737v-625h838v-104h-949zM391 1661l260 299h70l260 -299l-63 -57l-232 274l-231 -274z" />
<glyph unicode="&#xcb;" horiz-adv-x="1286" d="M225 0v1481h949v-105h-838v-542h737v-105h-737v-625h838v-104h-949zM430 1698v133h125v-133h-125zM815 1698v133h125v-133h-125z" />
<glyph unicode="&#xcc;" horiz-adv-x="561" d="M70 1802l55 92l330 -241l-35 -58zM225 0v1481h111v-1481h-111z" />
<glyph unicode="&#xcd;" horiz-adv-x="561" d="M84 1661l330 242l59 -93l-354 -206zM225 0v1481h111v-1481h-111z" />
<glyph unicode="&#xce;" horiz-adv-x="561" d="M-10 1651l260 299h69l263 -299l-66 -58l-231 275l-230 -275zM225 0v1481h111v-1481h-111z" />
<glyph unicode="&#xcf;" horiz-adv-x="561" d="M72 1702v133h125v-133h-125zM225 0v1481h111v-1481h-111zM358 1702v133h127v-133h-127z" />
<glyph unicode="&#xd0;" horiz-adv-x="1421" d="M98 725v88h158v668h492q119 0 213 -41t161 -105q59 -59 95 -129.5t54.5 -148.5t23.5 -158t5 -158t-5 -157.5t-23.5 -158.5t-54 -149.5t-95.5 -130.5q-68 -63 -162 -104t-212 -41h-492v725h-158zM365 106h383q84 0 160.5 29t133.5 82q51 51 81 114.5t44.5 132t18.5 139.5 t4 138q0 68 -4 138.5t-18.5 139t-44 132t-81.5 113.5q-57 55 -134 82.5t-160 27.5h-383v-561h356v-88h-356v-619z" />
<glyph unicode="&#xd1;" horiz-adv-x="1540" d="M225 0v1481h123l862 -1309v1309h107v-1481h-125l-858 1313v-1313h-109zM465 1700q41 37 82 63.5t96 26.5q41 0 76 -13.5t67.5 -30.5t63.5 -31.5t65 -14.5q35 0 65 14.5t54 36.5l51 -55q-39 -35 -81.5 -61.5t-96.5 -26.5q-39 0 -73.5 14t-68.5 31.5t-67.5 31t-68.5 13.5 t-62.5 -14.5t-52.5 -36.5z" />
<glyph unicode="&#xd2;" horiz-adv-x="1374" d="M121 741q0 80 5 163t25.5 164t56.5 154.5t99 135.5q70 68 164 108.5t217 40.5q121 0 216 -41t163 -108q63 -61 100 -135t56.5 -155t24.5 -164t5 -163t-5 -163.5t-24.5 -164.5t-56.5 -155t-100 -135q-68 -66 -163 -108t-216 -42q-123 0 -217 42t-164 108q-63 61 -99 135 t-56.5 155t-25.5 164.5t-5 163.5zM233 741q0 -68 3.5 -140.5t18.5 -145t46 -141t86 -119.5q57 -57 135 -86t166 -29q86 0 164 28.5t135 86.5q55 51 87 119.5t46.5 141t17.5 145.5t3 140q0 66 -3 139.5t-17.5 147.5t-46.5 140.5t-87 117.5q-57 57 -135 86t-164 29 q-88 0 -166 -29t-135 -86q-55 -51 -86 -117.5t-46 -140.5t-18.5 -147.5t-3.5 -139.5zM483 1812l56 93l329 -242l-34 -57z" />
<glyph unicode="&#xd3;" horiz-adv-x="1374" d="M121 741q0 80 5 163t25.5 164t56.5 154.5t99 135.5q70 68 164 108.5t217 40.5q121 0 216 -41t163 -108q63 -61 100 -135t56.5 -155t24.5 -164t5 -163t-5 -163.5t-24.5 -164.5t-56.5 -155t-100 -135q-68 -66 -163 -108t-216 -42q-123 0 -217 42t-164 108q-63 61 -99 135 t-56.5 155t-25.5 164.5t-5 163.5zM233 741q0 -68 3.5 -140.5t18.5 -145t46 -141t86 -119.5q57 -57 135 -86t166 -29q86 0 164 28.5t135 86.5q55 51 87 119.5t46.5 141t17.5 145.5t3 140q0 66 -3 139.5t-17.5 147.5t-46.5 140.5t-87 117.5q-57 57 -135 86t-164 29 q-88 0 -166 -29t-135 -86q-55 -51 -86 -117.5t-46 -140.5t-18.5 -147.5t-3.5 -139.5zM481 1671l330 242l57 -92l-352 -207z" />
<glyph unicode="&#xd4;" horiz-adv-x="1374" d="M121 741q0 80 5 163t25.5 164t56.5 154.5t99 135.5q70 68 164 108.5t217 40.5q121 0 216 -41t163 -108q63 -61 100 -135t56.5 -155t24.5 -164t5 -163t-5 -163.5t-24.5 -164.5t-56.5 -155t-100 -135q-68 -66 -163 -108t-216 -42q-123 0 -217 42t-164 108q-63 61 -99 135 t-56.5 155t-25.5 164.5t-5 163.5zM233 741q0 -68 3.5 -140.5t18.5 -145t46 -141t86 -119.5q57 -57 135 -86t166 -29q86 0 164 28.5t135 86.5q55 51 87 119.5t46.5 141t17.5 145.5t3 140q0 66 -3 139.5t-17.5 147.5t-46.5 140.5t-87 117.5q-57 57 -135 86t-164 29 q-88 0 -166 -29t-135 -86q-55 -51 -86 -117.5t-46 -140.5t-18.5 -147.5t-3.5 -139.5zM379 1651l260 299h70l260 -299l-64 -58l-233 275l-230 -275z" />
<glyph unicode="&#xd5;" horiz-adv-x="1374" d="M121 741q0 80 5 163t25.5 164t56.5 154.5t99 135.5q70 68 164 108.5t217 40.5q121 0 216 -41t163 -108q63 -61 100 -135t56.5 -155t24.5 -164t5 -163t-5 -163.5t-24.5 -164.5t-56.5 -155t-100 -135q-68 -66 -163 -108t-216 -42q-123 0 -217 42t-164 108q-63 61 -99 135 t-56.5 155t-25.5 164.5t-5 163.5zM233 741q0 -68 3.5 -140.5t18.5 -145t46 -141t86 -119.5q57 -57 135 -86t166 -29q86 0 164 28.5t135 86.5q55 51 87 119.5t46.5 141t17.5 145.5t3 140q0 66 -3 139.5t-17.5 147.5t-46.5 140.5t-87 117.5q-57 57 -135 86t-164 29 q-88 0 -166 -29t-135 -86q-55 -51 -86 -117.5t-46 -140.5t-18.5 -147.5t-3.5 -139.5zM358 1753q41 35 82 62.5t97 27.5q41 0 75.5 -14t67.5 -31.5t63.5 -31t65.5 -13.5t64.5 13.5t54.5 35.5l51 -53q-39 -37 -82 -62.5t-96 -25.5q-39 0 -74 13.5t-68.5 31.5t-67.5 31.5 t-69 13.5t-62.5 -15.5t-51.5 -37.5z" />
<glyph unicode="&#xd6;" horiz-adv-x="1374" d="M121 741q0 80 5 163t25.5 164t56.5 154.5t99 135.5q70 68 164 108.5t217 40.5q121 0 216 -41t163 -108q63 -61 100 -135t56.5 -155t24.5 -164t5 -163t-5 -163.5t-24.5 -164.5t-56.5 -155t-100 -135q-68 -66 -163 -108t-216 -42q-123 0 -217 42t-164 108q-63 61 -99 135 t-56.5 155t-25.5 164.5t-5 163.5zM233 741q0 -68 3.5 -140.5t18.5 -145t46 -141t86 -119.5q57 -57 135 -86t166 -29q86 0 164 28.5t135 86.5q55 51 87 119.5t46.5 141t17.5 145.5t3 140q0 66 -3 139.5t-17.5 147.5t-46.5 140.5t-87 117.5q-57 57 -135 86t-164 29 q-88 0 -166 -29t-135 -86q-55 -51 -86 -117.5t-46 -140.5t-18.5 -147.5t-3.5 -139.5zM420 1661v131h125v-131h-125zM805 1661v131h125v-131h-125z" />
<glyph unicode="&#xd7;" horiz-adv-x="1409" d="M152 131l489 490l-489 487l65 63l488 -485l487 485l65 -63l-489 -487l489 -490l-65 -63l-487 487l-488 -487z" />
<glyph unicode="&#xd8;" horiz-adv-x="1374" d="M121 741q0 80 5 163t25.5 164t56.5 154.5t99 135.5q70 68 164 108.5t217 40.5q76 0 143.5 -17t120.5 -48l74 162l82 -37l-80 -176q20 -16 39 -33q63 -61 100 -135t56.5 -155t24.5 -164t5 -163t-5 -163.5t-24.5 -164.5t-56.5 -155t-100 -135q-68 -66 -163 -108t-216 -42 q-78 0 -143.5 17.5t-122.5 46.5l-82 -180l-82 34l88 197q-10 10 -19.5 17.5t-19.5 17.5q-63 61 -99 135t-56.5 155t-25.5 164.5t-5 163.5zM233 741q0 -68 3.5 -141.5t18.5 -146t45 -140t87 -118.5l6 -7l516 1158q-98 55 -221 55q-88 0 -166 -29t-135 -86q-55 -51 -86 -117.5 t-46 -140.5t-18.5 -147.5t-3.5 -139.5zM465 135q49 -29 105.5 -42t117.5 -13q86 0 164 28.5t135 86.5q55 51 87 119.5t46.5 141t17.5 145.5t3 140q0 66 -3 139.5t-17.5 147.5t-46.5 140.5t-87 117.5l-4 4z" />
<glyph unicode="&#xd9;" horiz-adv-x="1445" d="M199 543v938h108v-940q0 -96 23.5 -180.5t75 -147.5t130 -99t187.5 -36t187.5 36t130 99t76 147t24.5 181v940h108v-938q0 -123 -32.5 -226.5t-98 -180.5t-164 -120t-231.5 -43t-231.5 43t-163 120t-97 180.5t-32.5 226.5zM487 1802l56 92l329 -241l-34 -58z" />
<glyph unicode="&#xda;" horiz-adv-x="1445" d="M199 543v938h108v-940q0 -96 23.5 -180.5t75 -147.5t130 -99t187.5 -36t187.5 36t130 99t76 147t24.5 181v940h108v-938q0 -123 -32.5 -226.5t-98 -180.5t-164 -120t-231.5 -43t-231.5 43t-163 120t-97 180.5t-32.5 226.5zM530 1661l330 242l60 -93l-355 -206z" />
<glyph unicode="&#xdb;" horiz-adv-x="1445" d="M199 543v938h108v-940q0 -96 23.5 -180.5t75 -147.5t130 -99t187.5 -36t187.5 36t130 99t76 147t24.5 181v940h108v-938q0 -123 -32.5 -226.5t-98 -180.5t-164 -120t-231.5 -43t-231.5 43t-163 120t-97 180.5t-32.5 226.5zM420 1651l262 299h68l262 -299l-66 -58 l-231 275l-230 -275z" />
<glyph unicode="&#xdc;" horiz-adv-x="1445" d="M199 543v938h108v-940q0 -96 23.5 -180.5t75 -147.5t130 -99t187.5 -36t187.5 36t130 99t76 147t24.5 181v940h108v-938q0 -123 -32.5 -226.5t-98 -180.5t-164 -120t-231.5 -43t-231.5 43t-163 120t-97 180.5t-32.5 226.5zM467 1659v131h127v-131h-127zM852 1659v131h125 v-131h-125z" />
<glyph unicode="&#xdd;" horiz-adv-x="1136" d="M4 1481h117l450 -787l453 787h111l-512 -893v-588h-107v588zM383 1640l330 242l57 -92l-352 -207z" />
<glyph unicode="&#xde;" horiz-adv-x="1247" d="M225 0v1481h109v-291h368q106 0 195.5 -25.5t155 -80t101.5 -136.5t36 -194q0 -113 -36 -195t-101.5 -136t-154.5 -81t-196 -27h-368v-315h-109zM334 422h368q80 0 150 18.5t120 59.5t77.5 103.5t27.5 150.5t-27.5 149.5t-77.5 102.5t-120 59t-150 18h-368v-661z" />
<glyph unicode="&#xdf;" horiz-adv-x="1236" d="M59 944v100h185v35q0 94 26.5 173t77.5 137.5t125 90t172 31.5q82 0 154.5 -25.5t126 -74.5t85 -117.5t31.5 -152.5q0 -47 -11 -94.5t-35.5 -90.5t-59.5 -76.5t-82 -48.5q70 -18 124 -56t92 -90t57.5 -116.5t19.5 -134.5q0 -102 -37 -184t-99.5 -141.5t-148.5 -90 t-186 -30.5q-76 0 -154 12v100q37 -4 74 -7t72 -3q78 0 145.5 21.5t116.5 65.5t77.5 106.5t28.5 144.5q0 172 -104.5 255t-267.5 83h-82v102h82q141 0 205.5 77t64.5 198q0 63 -24.5 113.5t-63.5 84t-91.5 53t-109.5 19.5q-76 0 -132 -25.5t-92 -70.5t-54.5 -105.5 t-18.5 -132.5v-1079h-104v944h-185z" />
<glyph unicode="&#xe0;" horiz-adv-x="1171" d="M121 295q0 139 97 220t255 91l383 27v102q0 129 -78 183.5t-196 54.5q-127 0 -210 -56.5t-91 -173.5h-105q6 80 38 140.5t85 102.5t125 63.5t158 21.5q51 0 105 -9t102.5 -31.5t86 -59.5t58.5 -92q18 -47 22.5 -97.5t4.5 -101.5v-477q0 -55 13 -84t68 -29q18 0 29 2v-92 q-18 -4 -24.5 -5t-24.5 -1q-49 0 -81 16.5t-51.5 45t-26.5 64.5t-7 79q-20 -57 -59 -98.5t-89.5 -70t-108.5 -43t-118 -14.5q-76 0 -141.5 21.5t-114.5 63.5t-76.5 101.5t-27.5 135.5zM227 295q0 -113 75 -169t187 -56q98 0 168 35.5t114 94t64.5 133.5t20.5 150v54 l-373 -23q-119 -8 -187.5 -65.5t-68.5 -153.5zM383 1393l55 92l330 -242l-35 -57z" />
<glyph unicode="&#xe1;" horiz-adv-x="1171" d="M121 295q0 139 97 220t255 91l383 27v102q0 129 -78 183.5t-196 54.5q-127 0 -210 -56.5t-91 -173.5h-105q6 80 38 140.5t85 102.5t125 63.5t158 21.5q51 0 105 -9t102.5 -31.5t86 -59.5t58.5 -92q18 -47 22.5 -97.5t4.5 -101.5v-477q0 -55 13 -84t68 -29q18 0 29 2v-92 q-18 -4 -24.5 -5t-24.5 -1q-49 0 -81 16.5t-51.5 45t-26.5 64.5t-7 79q-20 -57 -59 -98.5t-89.5 -70t-108.5 -43t-118 -14.5q-76 0 -141.5 21.5t-114.5 63.5t-76.5 101.5t-27.5 135.5zM227 295q0 -113 75 -169t187 -56q98 0 168 35.5t114 94t64.5 133.5t20.5 150v54 l-373 -23q-119 -8 -187.5 -65.5t-68.5 -153.5zM377 1245l330 242l57 -92l-352 -207z" />
<glyph unicode="&#xe2;" horiz-adv-x="1171" d="M121 295q0 139 97 220t255 91l383 27v102q0 129 -78 183.5t-196 54.5q-127 0 -210 -56.5t-91 -173.5h-105q6 80 38 140.5t85 102.5t125 63.5t158 21.5q51 0 105 -9t102.5 -31.5t86 -59.5t58.5 -92q18 -47 22.5 -97.5t4.5 -101.5v-477q0 -55 13 -84t68 -29q18 0 29 2v-92 q-18 -4 -24.5 -5t-24.5 -1q-49 0 -81 16.5t-51.5 45t-26.5 64.5t-7 79q-20 -57 -59 -98.5t-89.5 -70t-108.5 -43t-118 -14.5q-76 0 -141.5 21.5t-114.5 63.5t-76.5 101.5t-27.5 135.5zM227 295q0 -113 75 -169t187 -56q98 0 168 35.5t114 94t64.5 133.5t20.5 150v54 l-373 -23q-119 -8 -187.5 -65.5t-68.5 -153.5zM289 1231l260 299h69l261 -299l-64 -57l-231 274l-232 -274z" />
<glyph unicode="&#xe3;" horiz-adv-x="1171" d="M121 295q0 139 97 220t255 91l383 27v102q0 129 -78 183.5t-196 54.5q-127 0 -210 -56.5t-91 -173.5h-105q6 80 38 140.5t85 102.5t125 63.5t158 21.5q51 0 105 -9t102.5 -31.5t86 -59.5t58.5 -92q18 -47 22.5 -97.5t4.5 -101.5v-477q0 -55 13 -84t68 -29q18 0 29 2v-92 q-18 -4 -24.5 -5t-24.5 -1q-49 0 -81 16.5t-51.5 45t-26.5 64.5t-7 79q-20 -57 -59 -98.5t-89.5 -70t-108.5 -43t-118 -14.5q-76 0 -141.5 21.5t-114.5 63.5t-76.5 101.5t-27.5 135.5zM227 295q0 -113 75 -169t187 -56q98 0 168 35.5t114 94t64.5 133.5t20.5 150v54 l-373 -23q-119 -8 -187.5 -65.5t-68.5 -153.5zM268 1354q37 35 77 60.5t93 25.5q39 0 72 -13.5t64.5 -30t61.5 -29.5t62 -13q35 0 61.5 13t51.5 36l49 -53q-37 -33 -78 -57.5t-92 -24.5q-39 0 -71.5 12t-64.5 28.5t-64.5 30t-65.5 13.5t-59.5 -13.5t-49.5 -35.5z" />
<glyph unicode="&#xe4;" horiz-adv-x="1171" d="M121 295q0 139 97 220t255 91l383 27v102q0 129 -78 183.5t-196 54.5q-127 0 -210 -56.5t-91 -173.5h-105q6 80 38 140.5t85 102.5t125 63.5t158 21.5q51 0 105 -9t102.5 -31.5t86 -59.5t58.5 -92q18 -47 22.5 -97.5t4.5 -101.5v-477q0 -55 13 -84t68 -29q18 0 29 2v-92 q-18 -4 -24.5 -5t-24.5 -1q-49 0 -81 16.5t-51.5 45t-26.5 64.5t-7 79q-20 -57 -59 -98.5t-89.5 -70t-108.5 -43t-118 -14.5q-76 0 -141.5 21.5t-114.5 63.5t-76.5 101.5t-27.5 135.5zM227 295q0 -113 75 -169t187 -56q98 0 168 35.5t114 94t64.5 133.5t20.5 150v54 l-373 -23q-119 -8 -187.5 -65.5t-68.5 -153.5zM330 1300v134h125v-134h-125zM715 1300v134h125v-134h-125z" />
<glyph unicode="&#xe5;" horiz-adv-x="1171" d="M121 295q0 139 97 220t255 91l383 27v102q0 129 -78 183.5t-196 54.5q-127 0 -210 -56.5t-91 -173.5h-105q6 80 38 140.5t85 102.5t125 63.5t158 21.5q51 0 105 -9t102.5 -31.5t86 -59.5t58.5 -92q18 -47 22.5 -97.5t4.5 -101.5v-477q0 -55 13 -84t68 -29q18 0 29 2v-92 q-18 -4 -24.5 -5t-24.5 -1q-49 0 -81 16.5t-51.5 45t-26.5 64.5t-7 79q-20 -57 -59 -98.5t-89.5 -70t-108.5 -43t-118 -14.5q-76 0 -141.5 21.5t-114.5 63.5t-76.5 101.5t-27.5 135.5zM227 295q0 -113 75 -169t187 -56q98 0 168 35.5t114 94t64.5 133.5t20.5 150v54 l-373 -23q-119 -8 -187.5 -65.5t-68.5 -153.5zM350 1399q0 94 58.5 156.5t164.5 62.5q109 0 167.5 -62.5t58.5 -156.5q0 -98 -65.5 -158.5t-160.5 -60.5q-92 0 -157.5 60.5t-65.5 158.5zM430 1399q0 -59 39 -102.5t104 -43.5q68 0 106 43t38 103q0 61 -38 104t-106 43 q-66 0 -104.5 -43t-38.5 -104z" />
<glyph unicode="&#xe6;" horiz-adv-x="1779" d="M121 293q0 63 27.5 120.5t74.5 98.5t111.5 64.5t140.5 23.5h350v135q0 113 -70.5 175.5t-199.5 62.5q-121 0 -197.5 -59.5t-85.5 -176.5h-104q10 158 113.5 246t273.5 88q51 0 104.5 -11t100.5 -33.5t85 -58.5t60 -87q49 88 135 139t213 51q92 0 160 -27.5t117 -76.5 q78 -74 111.5 -186.5t33.5 -241.5v-35h-743v-49q0 -76 19.5 -146.5t60.5 -124t102.5 -84t147.5 -30.5q117 0 190.5 62.5t95.5 180.5h107q-27 -158 -130.5 -249t-262.5 -91q-150 0 -243 73t-142 192q-47 -125 -153 -191.5t-249 -66.5q-76 0 -139.5 21.5t-111.5 62t-75.5 98 t-27.5 131.5zM225 293q0 -55 20.5 -96t54.5 -67t80 -39t99 -13q84 0 149.5 29.5t108.5 80t65.5 118t22.5 140.5v58h-344q-113 0 -184.5 -58.5t-71.5 -152.5zM936 600h633q-2 88 -26.5 164t-82.5 131q-37 35 -88 56.5t-119 21.5q-82 0 -141 -27.5t-98 -78t-58.5 -119 t-19.5 -148.5z" />
<glyph unicode="&#xe7;" horiz-adv-x="1069" d="M117 522q0 133 32.5 238.5t114.5 187.5q53 55 131 89t174 34q82 0 153 -24.5t123 -71.5t85 -111.5t43 -144.5h-109q-16 109 -95 179.5t-200 70.5q-74 0 -131 -23.5t-100 -66.5q-70 -72 -92.5 -163t-22.5 -194q0 -102 22.5 -194t92.5 -164q84 -88 231 -88q123 0 201 73.5 t96 180.5h111q-10 -76 -44 -141.5t-87 -113.5t-124 -75t-153 -27q-96 0 -174 34t-131 89q-82 82 -114.5 187.5t-32.5 238.5zM410 -393l155 293h101l-142 -346z" />
<glyph unicode="&#xe8;" horiz-adv-x="1124" d="M117 518q0 100 21.5 194.5t80.5 178.5q133 180 354 180q109 0 191 -42t139.5 -111.5t88 -161.5t30.5 -191l-2 -67h-799q2 -92 31 -173t78 -141q45 -53 106.5 -81.5t147.5 -28.5q139 0 227 92q29 29 48.5 64.5t31.5 82.5h108q-12 -68 -42.5 -123t-75.5 -96 q-55 -57 -132 -89t-165 -32q-113 0 -195 42t-139 106q-63 76 -98 177t-35 220zM223 594h692q-2 74 -25.5 142.5t-67.5 121.5t-106.5 84t-142.5 31t-145.5 -30t-109.5 -82t-69.5 -121.5t-25.5 -145.5zM383 1397l55 92l330 -242l-35 -57z" />
<glyph unicode="&#xe9;" horiz-adv-x="1124" d="M117 518q0 100 21.5 194.5t80.5 178.5q133 180 354 180q109 0 191 -42t139.5 -111.5t88 -161.5t30.5 -191l-2 -67h-799q2 -92 31 -173t78 -141q45 -53 106.5 -81.5t147.5 -28.5q139 0 227 92q29 29 48.5 64.5t31.5 82.5h108q-12 -68 -42.5 -123t-75.5 -96 q-55 -57 -132 -89t-165 -32q-113 0 -195 42t-139 106q-63 76 -98 177t-35 220zM223 594h692q-2 74 -25.5 142.5t-67.5 121.5t-106.5 84t-142.5 31t-145.5 -30t-109.5 -82t-69.5 -121.5t-25.5 -145.5zM385 1241l330 242l57 -92l-352 -207z" />
<glyph unicode="&#xea;" horiz-adv-x="1124" d="M117 518q0 100 21.5 194.5t80.5 178.5q133 180 354 180q109 0 191 -42t139.5 -111.5t88 -161.5t30.5 -191l-2 -67h-799q2 -92 31 -173t78 -141q45 -53 106.5 -81.5t147.5 -28.5q139 0 227 92q29 29 48.5 64.5t31.5 82.5h108q-12 -68 -42.5 -123t-75.5 -96 q-55 -57 -132 -89t-165 -32q-113 0 -195 42t-139 106q-63 76 -98 177t-35 220zM223 594h692q-2 74 -25.5 142.5t-67.5 121.5t-106.5 84t-142.5 31t-145.5 -30t-109.5 -82t-69.5 -121.5t-25.5 -145.5zM285 1231l260 299h69l260 -299l-63 -57l-231 274l-232 -274z" />
<glyph unicode="&#xeb;" horiz-adv-x="1124" d="M117 518q0 100 21.5 194.5t80.5 178.5q133 180 354 180q109 0 191 -42t139.5 -111.5t88 -161.5t30.5 -191l-2 -67h-799q2 -92 31 -173t78 -141q45 -53 106.5 -81.5t147.5 -28.5q139 0 227 92q29 29 48.5 64.5t31.5 82.5h108q-12 -68 -42.5 -123t-75.5 -96 q-55 -57 -132 -89t-165 -32q-113 0 -195 42t-139 106q-63 76 -98 177t-35 220zM223 594h692q-2 74 -25.5 142.5t-67.5 121.5t-106.5 84t-142.5 31t-145.5 -30t-109.5 -82t-69.5 -121.5t-25.5 -145.5zM324 1300v134h125v-134h-125zM709 1300v134h125v-134h-125z" />
<glyph unicode="&#xec;" horiz-adv-x="542" d="M49 1456l57 92l330 -241l-35 -58zM217 0v1044h109v-1044h-109z" />
<glyph unicode="&#xed;" horiz-adv-x="542" d="M90 1307l330 241l59 -92l-354 -207zM217 0v1044h109v-1044h-109z" />
<glyph unicode="&#xee;" horiz-adv-x="542" d="M-25 1280l261 299h69l260 -299l-63 -55l-232 272l-231 -272zM217 0v1044h109v-1044h-109z" />
<glyph unicode="&#xef;" horiz-adv-x="542" d="M53 1352v131h125v-131h-125zM217 0v1044h109v-1044h-109zM354 1352v131h127v-131h-127z" />
<glyph unicode="&#xf0;" horiz-adv-x="1130" d="M117 522q0 133 30.5 238.5t110.5 187.5q55 55 132 89t175 34q45 0 84 -7t74 -20l-117 205h-262v84h213l-100 174h121l96 -174h211v-84h-162l231 -411v-2q33 -68 47.5 -145t14.5 -169q0 -133 -31 -238.5t-113 -187.5q-53 -55 -130.5 -89t-176.5 -34q-98 0 -175 34t-132 89 q-80 82 -110.5 187.5t-30.5 238.5zM223 522q0 -102 20.5 -194t90.5 -164q84 -88 231 -88q150 0 234 88q70 72 90 164t20 194t-20.5 193.5t-89.5 163.5q-43 43 -100.5 66.5t-133.5 23.5q-74 0 -131 -23.5t-100 -66.5q-70 -72 -90.5 -163.5t-20.5 -193.5z" />
<glyph unicode="&#xf1;" horiz-adv-x="1216" d="M207 0v1044h92l12 -190q20 51 58.5 90t85.5 67.5t101 44t108 15.5q182 0 275 -102.5t93 -278.5v-690h-104v684q0 137 -62.5 211t-208.5 74q-96 0 -162.5 -38t-107.5 -101.5t-58.5 -143.5t-17.5 -164v-522h-104zM311 1360q37 35 77 60.5t95 25.5q37 0 71 -13.5t64.5 -30 t61.5 -29.5t61 -13q35 0 61.5 13t51.5 36l51 -53q-39 -33 -79 -57.5t-93 -24.5q-37 0 -70.5 12t-65.5 28.5t-63.5 30t-66.5 13.5q-33 0 -58.5 -13.5t-50.5 -33.5z" />
<glyph unicode="&#xf2;" horiz-adv-x="1138" d="M117 522q0 133 33.5 237.5t115.5 186.5q53 55 130 90t173 35q98 0 175 -35t130 -90q82 -82 116 -186.5t34 -237.5t-34 -237.5t-116 -186.5q-53 -55 -129.5 -90t-175.5 -35q-96 0 -173 35t-130 90q-82 82 -115.5 186.5t-33.5 237.5zM223 522q0 -102 23.5 -192t93.5 -162 q43 -43 99.5 -67.5t129.5 -24.5q76 0 132.5 24.5t99.5 67.5q70 72 93.5 162t23.5 192t-24 192.5t-93 162.5q-43 43 -99.5 67.5t-132.5 24.5q-74 0 -130 -24.5t-99 -67.5q-70 -72 -93.5 -162.5t-23.5 -192.5zM369 1391l55 92l330 -242l-35 -57z" />
<glyph unicode="&#xf3;" horiz-adv-x="1138" d="M117 522q0 133 33.5 237.5t115.5 186.5q53 55 130 90t173 35q98 0 175 -35t130 -90q82 -82 116 -186.5t34 -237.5t-34 -237.5t-116 -186.5q-53 -55 -129.5 -90t-175.5 -35q-96 0 -173 35t-130 90q-82 82 -115.5 186.5t-33.5 237.5zM223 522q0 -102 23.5 -192t93.5 -162 q43 -43 99.5 -67.5t129.5 -24.5q76 0 132.5 24.5t99.5 67.5q70 72 93.5 162t23.5 192t-24 192.5t-93 162.5q-43 43 -99.5 67.5t-132.5 24.5q-74 0 -130 -24.5t-99 -67.5q-70 -72 -93.5 -162.5t-23.5 -192.5zM391 1243l330 242l57 -92l-352 -207z" />
<glyph unicode="&#xf4;" horiz-adv-x="1138" d="M117 522q0 133 33.5 237.5t115.5 186.5q53 55 130 90t173 35q98 0 175 -35t130 -90q82 -82 116 -186.5t34 -237.5t-34 -237.5t-116 -186.5q-53 -55 -129.5 -90t-175.5 -35q-96 0 -173 35t-130 90q-82 82 -115.5 186.5t-33.5 237.5zM223 522q0 -102 23.5 -192t93.5 -162 q43 -43 99.5 -67.5t129.5 -24.5q76 0 132.5 24.5t99.5 67.5q70 72 93.5 162t23.5 192t-24 192.5t-93 162.5q-43 43 -99.5 67.5t-132.5 24.5q-74 0 -130 -24.5t-99 -67.5q-70 -72 -93.5 -162.5t-23.5 -192.5zM279 1231l260 299h69l260 -299l-63 -57l-234 274l-229 -274z" />
<glyph unicode="&#xf5;" horiz-adv-x="1138" d="M117 522q0 133 33.5 237.5t115.5 186.5q53 55 130 90t173 35q98 0 175 -35t130 -90q82 -82 116 -186.5t34 -237.5t-34 -237.5t-116 -186.5q-53 -55 -129.5 -90t-175.5 -35q-96 0 -173 35t-130 90q-82 82 -115.5 186.5t-33.5 237.5zM223 522q0 -102 23.5 -192t93.5 -162 q43 -43 99.5 -67.5t129.5 -24.5q76 0 132.5 24.5t99.5 67.5q70 72 93.5 162t23.5 192t-24 192.5t-93 162.5q-43 43 -99.5 67.5t-132.5 24.5q-74 0 -130 -24.5t-99 -67.5q-70 -72 -93.5 -162.5t-23.5 -192.5zM276 1374q37 35 77 60.5t93 25.5q39 0 72 -13t64.5 -29.5 t61.5 -30t63 -13.5q35 0 61.5 13.5t50.5 37.5l49 -55q-37 -33 -77.5 -57.5t-92.5 -24.5q-39 0 -71.5 13.5t-64.5 29t-64.5 28.5t-65.5 13t-59.5 -13t-48.5 -34z" />
<glyph unicode="&#xf6;" horiz-adv-x="1138" d="M117 522q0 133 33.5 237.5t115.5 186.5q53 55 130 90t173 35q98 0 175 -35t130 -90q82 -82 116 -186.5t34 -237.5t-34 -237.5t-116 -186.5q-53 -55 -129.5 -90t-175.5 -35q-96 0 -173 35t-130 90q-82 82 -115.5 186.5t-33.5 237.5zM223 522q0 -102 23.5 -192t93.5 -162 q43 -43 99.5 -67.5t129.5 -24.5q76 0 132.5 24.5t99.5 67.5q70 72 93.5 162t23.5 192t-24 192.5t-93 162.5q-43 43 -99.5 67.5t-132.5 24.5q-74 0 -130 -24.5t-99 -67.5q-70 -72 -93.5 -162.5t-23.5 -192.5zM315 1300v134h125v-134h-125zM700 1300v134h125v-134h-125z" />
<glyph unicode="&#xf7;" horiz-adv-x="1363" d="M174 580v94h1016v-94h-1016zM594 102v174h164v-174h-164zM594 985v176h164v-176h-164z" />
<glyph unicode="&#xf8;" horiz-adv-x="1138" d="M117 522q0 133 33.5 237.5t115.5 186.5q53 55 130 90t173 35q111 0 197 -45l78 172l78 -33l-84 -186l18 -15q8 -7 18 -18q82 -82 116 -186.5t34 -237.5t-34 -237.5t-116 -186.5q-53 -55 -129.5 -90t-175.5 -35q-90 0 -172 35l-75 -170l-76 35l80 174q-16 12 -30.5 24.5 l-29.5 26.5q-82 82 -115.5 186.5t-33.5 237.5zM223 522q0 -102 23.5 -192t93.5 -162q6 -6 12 -13.5t17 -13.5l356 793q-68 35 -156 35q-74 0 -130 -24.5t-99 -67.5q-70 -72 -93.5 -162.5t-23.5 -192.5zM438 100q57 -25 131 -24q76 0 132.5 24.5t99.5 67.5q70 72 93.5 162 t23.5 192t-23 192.5t-94 162.5l-6 6z" />
<glyph unicode="&#xf9;" horiz-adv-x="1216" d="M186 356v691h105v-685q0 -137 62.5 -210.5t205.5 -73.5q96 0 164 37t107.5 100.5t58 143t18.5 165.5v523h105v-1045h-92l-13 191q-25 -51 -60.5 -91.5t-82.5 -69t-101.5 -43t-109.5 -14.5q-180 0 -273.5 102.5t-93.5 278.5zM389 1391l55 92l330 -242l-35 -57z" />
<glyph unicode="&#xfa;" horiz-adv-x="1216" d="M186 356v691h105v-685q0 -137 62.5 -210.5t205.5 -73.5q96 0 164 37t107.5 100.5t58 143t18.5 165.5v523h105v-1045h-92l-13 191q-25 -51 -60.5 -91.5t-82.5 -69t-101.5 -43t-109.5 -14.5q-180 0 -273.5 102.5t-93.5 278.5zM424 1241l330 242l59 -92l-354 -207z" />
<glyph unicode="&#xfb;" horiz-adv-x="1216" d="M186 356v691h105v-685q0 -137 62.5 -210.5t205.5 -73.5q96 0 164 37t107.5 100.5t58 143t18.5 165.5v523h105v-1045h-92l-13 191q-25 -51 -60.5 -91.5t-82.5 -69t-101.5 -43t-109.5 -14.5q-180 0 -273.5 102.5t-93.5 278.5zM289 1231l260 299h69l261 -299l-64 -57 l-231 274l-232 -274z" />
<glyph unicode="&#xfc;" horiz-adv-x="1216" d="M186 356v691h105v-685q0 -137 62.5 -210.5t205.5 -73.5q96 0 164 37t107.5 100.5t58 143t18.5 165.5v523h105v-1045h-92l-13 191q-25 -51 -60.5 -91.5t-82.5 -69t-101.5 -43t-109.5 -14.5q-180 0 -273.5 102.5t-93.5 278.5zM338 1300v134h125v-134h-125zM723 1300v134 h125v-134h-125z" />
<glyph unicode="&#xfd;" horiz-adv-x="999" d="M33 1044h112l367 -927l350 927h113l-483 -1267q-41 -102 -109 -157.5t-174 -55.5q-31 0 -56.5 2t-41.5 6q-20 4 -33 10v88q20 -4 43 -6q39 -6 84 -6q76 0 120 44t70 110l66 172zM330 1221l329 241l60 -92l-354 -207z" />
<glyph unicode="&#xfe;" horiz-adv-x="1212" d="M207 -420v1925h106v-637q47 100 141.5 151.5t200.5 51.5q94 0 166 -30.5t125 -84.5q80 -80 118 -192.5t38 -239.5t-38 -241.5t-118 -194.5q-53 -53 -124.5 -84t-166.5 -31q-106 0 -200.5 51.5t-141.5 151.5v-596h-106zM313 524q0 -86 16.5 -165.5t56.5 -143t105.5 -101.5 t163.5 -38q70 0 122 22.5t91 63.5q68 66 98.5 164t30.5 198t-30.5 196.5t-98.5 162.5q-39 41 -91 63.5t-122 22.5q-98 0 -163.5 -37t-105.5 -100.5t-56.5 -143.5t-16.5 -164z" />
<glyph unicode="&#xff;" horiz-adv-x="999" d="M33 1044h112l367 -927l350 927h113l-483 -1267q-41 -102 -109 -157.5t-174 -55.5q-31 0 -56.5 2t-41.5 6q-20 4 -33 10v88q20 -4 43 -6q39 -6 84 -6q76 0 120 44t70 110l66 172zM250 1300v134h127v-134h-127zM635 1300v134h125v-134h-125z" />
<glyph unicode="&#x152;" horiz-adv-x="2193" d="M121 741q0 80 4 163t22.5 164t53.5 154.5t98 135.5q70 68 166 108.5t219 40.5q121 0 218 -41t165 -108q18 -18 36.5 -41t29.5 -45v209h948v-105h-838v-542h737v-105h-737v-625h838v-104h-948v209q-14 -27 -31 -47.5t-35 -38.5q-68 -66 -165 -108t-218 -42q-123 0 -219 42 t-166 108q-63 61 -98 135t-53.5 155t-22.5 164.5t-4 163.5zM233 727q0 -66 2.5 -137.5t17.5 -142t43 -137t83 -115.5q57 -57 137 -86t168 -29q86 0 166 28.5t137 86.5q53 49 83 115.5t44 137t16.5 142.5t2.5 137v29q0 66 -2.5 137.5t-16.5 142t-44 136t-83 114.5 q-57 57 -137 86t-166 29q-88 0 -168 -29t-137 -86q-55 -49 -83 -114.5t-43 -136t-17.5 -142.5t-2.5 -137v-29z" />
<glyph unicode="&#x153;" horiz-adv-x="1904" d="M117 522q0 133 30.5 238.5t110.5 187.5q55 55 132 89t175 34t176 -33.5t131 -89.5q61 -59 93 -133l21 38q11 19 24 38q133 180 350 180q113 0 201 -45t151 -143q51 -74 69.5 -154t18.5 -164q0 -18 -1 -33.5t-1 -33.5h-782q0 -6 -1 -13.5t-1 -13.5q4 -84 29.5 -158.5 t74.5 -128.5q43 -53 103.5 -81.5t146.5 -28.5q137 0 221 86q29 29 50.5 67.5t31.5 85.5h109q-10 -68 -43 -126t-76 -99q-115 -115 -293 -115q-113 0 -190.5 42t-135.5 106q-41 49 -75 115q-31 -76 -95 -140q-53 -55 -130.5 -89t-176.5 -34q-98 0 -175 34t-132 89 q-80 82 -110.5 187.5t-30.5 238.5zM223 522q0 -102 20.5 -194t90.5 -164q84 -88 231 -88q150 0 234 88q70 72 90 164t20 194t-20.5 193.5t-89.5 163.5q-43 43 -100.5 66.5t-133.5 23.5q-74 0 -131 -23.5t-100 -66.5q-70 -72 -90.5 -163.5t-20.5 -193.5zM1016 594h678 q-2 160 -88 266q-41 51 -99.5 82t-146.5 31q-84 0 -146.5 -30t-103.5 -83q-20 -23 -36.5 -55.5t-30 -67.5t-20.5 -72.5t-7 -70.5z" />
<glyph unicode="&#x178;" horiz-adv-x="1136" d="M4 1481h117l450 -787l453 787h111l-512 -893v-588h-107v588zM313 1669v131h125v-131h-125zM698 1669v131h125v-131h-125z" />
<glyph unicode="&#x2c6;" horiz-adv-x="741" d="M76 1231l260 299h70l260 -299l-64 -57l-231 274l-232 -274z" />
<glyph unicode="&#x2dc;" horiz-adv-x="751" d="M80 1362q37 35 77 60.5t93 25.5q39 0 71.5 -13.5t64.5 -29.5t62.5 -29.5t61.5 -13.5q35 0 61.5 12t51.5 35l49 -51q-37 -33 -77 -58.5t-93 -25.5q-39 0 -72 13t-64.5 29.5t-63.5 30t-66 13.5q-33 0 -59.5 -13.5t-49.5 -33.5z" />
<glyph unicode="&#x2013;" horiz-adv-x="1282" d="M156 584v96h970v-96h-970z" />
<glyph unicode="&#x2014;" horiz-adv-x="2289" d="M156 584v96h1978v-96h-1978z" />
<glyph unicode="&#x2018;" horiz-adv-x="485" d="M145 1057v190q0 90 38 152.5t122 101.5l35 -57q-66 -37 -91.5 -79t-25.5 -120h115v-188h-193z" />
<glyph unicode="&#x2019;" horiz-adv-x="444" d="M135 1094q68 37 92.5 80t24.5 118h-115v189h193v-191q0 -90 -38 -152.5t-120 -101.5z" />
<glyph unicode="&#x201a;" horiz-adv-x="505" d="M156 -199q68 35 93 78t25 121h-114v188h190v-190q0 -90 -37 -152.5t-120 -101.5z" />
<glyph unicode="&#x201c;" horiz-adv-x="804" d="M145 1073v191q0 90 38 152.5t122 103.5l35 -60q-66 -35 -91.5 -78t-25.5 -120h115v-189h-193zM487 1073v191q0 90 37 152.5t121 103.5l37 -60q-68 -35 -93.5 -78t-25.5 -120h117v-189h-193z" />
<glyph unicode="&#x201d;" horiz-adv-x="784" d="M135 1094q68 37 92.5 80t24.5 118h-115v189h193v-191q0 -90 -38 -152.5t-120 -101.5zM477 1094q66 37 91.5 80t25.5 118h-115v189h191v-191q0 -90 -37 -152.5t-121 -101.5z" />
<glyph unicode="&#x201e;" horiz-adv-x="837" d="M145 -199q68 35 93.5 78t25.5 121h-117v188h193v-190q0 -90 -37 -152.5t-121 -101.5zM487 -199q66 35 91.5 78t25.5 121h-115v188h193v-190q0 -90 -38 -152.5t-122 -101.5z" />
<glyph unicode="&#x2022;" horiz-adv-x="888" d="M205 610q0 49 18.5 93.5t51 77t76.5 51t93 18.5q51 0 95.5 -18.5t76 -51t51 -77t19.5 -93.5q0 -51 -19.5 -94t-51 -75.5t-75.5 -51t-96 -18.5q-49 0 -93 18.5t-76.5 51t-51 75.5t-18.5 94z" />
<glyph unicode="&#x2026;" horiz-adv-x="1792" d="M209 0v186h180v-186h-180zM807 0v186h178v-186h-178zM1403 0v186h180v-186h-180z" />
<glyph unicode="&#x2039;" horiz-adv-x="657" d="M115 608l338 457l69 -51l-284 -406l284 -403l-69 -55z" />
<glyph unicode="&#x203a;" horiz-adv-x="657" d="M135 205l287 403l-287 406l72 51l336 -457l-336 -458z" />
<glyph unicode="&#x20ac;" horiz-adv-x="1236" d="M82 537v88h166q-2 25 -2 51v51v51q0 27 2 51h-166v89h174q14 111 53 212t123 187q164 164 404 164q96 0 184 -22.5t166 -78.5l-39 -88q-72 49 -149.5 68.5t-161.5 19.5q-98 0 -184.5 -33.5t-151.5 -107.5q-63 -70 -91 -151.5t-38 -169.5h602l-39 -89h-572q-2 -27 -2 -52 v-52v-50q0 -26 2 -50h492l-39 -88h-444q10 -88 37.5 -170t91.5 -152q66 -74 151.5 -107.5t184.5 -33.5q84 0 161.5 19.5t149.5 68.5l39 -88q-78 -55 -166 -78t-184 -23q-119 0 -219.5 38t-184.5 124q-80 82 -119 185.5t-57 216.5h-174z" />
<glyph unicode="&#x2122;" horiz-adv-x="1724" d="M57 1397v86h568v-86h-240v-756h-88v756h-240zM805 641v842h131l242 -680l241 680h133v-842h-88v737l-256 -719h-61l-256 719v-737h-86z" />
<glyph unicode="&#xe000;" horiz-adv-x="1055" d="M0 1055h1055v-1055h-1055v1055z" />
<glyph unicode="&#xfb01;" horiz-adv-x="1294" d="M68 948v96h208v185q0 57 18.5 110.5t55.5 94.5t92.5 64.5t126.5 23.5q47 0 85 -3t75 -12v-92q-31 4 -67.5 8t-81.5 4q-199 0 -199 -202v-181h328v-96h-328v-948h-105v948h-208zM948 1335v146h146v-146h-146zM967 0v1044h110v-1044h-110z" />
<glyph unicode="&#xfb02;" horiz-adv-x="1325" d="M68 948v96h208v185q0 57 18.5 110.5t55.5 94.5t92.5 64.5t126.5 23.5q47 0 85 -3t75 -12v-92q-31 4 -67.5 8t-81.5 4q-199 0 -199 -202v-181h328v-96h-328v-948h-105v948h-208zM944 209v1298h105v-1294q0 -53 20.5 -89t87.5 -36h49q18 0 41 4v-92q-16 -4 -38.5 -8 t-55.5 -4q-100 0 -154.5 53t-54.5 168z" />
<glyph unicode="&#xfb03;" horiz-adv-x="2009" d="M1665 1335v146h145v-146h-145zM1683 0v1044h111v-1044h-111zM801 948v96h208v185q0 57 18.5 110.5t55.5 94.5t92.5 64.5t126.5 23.5q47 0 85 -3t75 -12v-92q-31 4 -67.5 8t-81.5 4q-199 0 -199 -202v-181h328v-96h-328v-948h-105v948h-208zM68 948v96h208v185 q0 57 18.5 110.5t55.5 94.5t92.5 64.5t126.5 23.5q47 0 85 -3t75 -12v-92q-31 4 -67.5 8t-81.5 4q-199 0 -199 -202v-181h328v-96h-328v-948h-105v948h-208z" />
<glyph unicode="&#xfb04;" horiz-adv-x="2048" d="M1667 209v1298h104v-1294q0 -53 20.5 -89t88.5 -36h49q18 0 41 4v-92q-16 -4 -39 -8t-55 -4q-100 0 -154.5 53t-54.5 168zM801 948v96h208v185q0 57 18.5 110.5t55.5 94.5t92.5 64.5t126.5 23.5q47 0 85 -3t75 -12v-92q-31 4 -67.5 8t-81.5 4q-199 0 -199 -202v-181h328 v-96h-328v-948h-105v948h-208zM68 948v96h208v185q0 57 18.5 110.5t55.5 94.5t92.5 64.5t126.5 23.5q47 0 85 -3t75 -12v-92q-31 4 -67.5 8t-81.5 4q-199 0 -199 -202v-181h328v-96h-328v-948h-105v948h-208z" />
</font>
</defs>
</svg>
