<?xml version="1.0" standalone="no"?>
<!DOCTYPE svg PUBLIC "-//W3C//DTD SVG 1.1//EN" "http://www.w3.org/Graphics/SVG/1.1/DTD/svg11.dtd" >
<svg xmlns="http://www.w3.org/2000/svg">
<metadata>
This is a custom SVG webfont generated by Font Squirrel.
Copyright   : Copyright  1989 1990 1999 2001 Adobe Systems Incorporated  All Rights Reserved
Designer    : Morris Fuller Benton
Foundry URL : httpwwwadobecomtype
</metadata>
<defs>
<font id="BodoniStdPosterItalic" horiz-adv-x="1351" >
<font-face units-per-em="2048" ascent="1430" descent="-618" />
<missing-glyph horiz-adv-x="673" />
<glyph unicode=" "  horiz-adv-x="673" />
<glyph unicode="&#x09;" horiz-adv-x="673" />
<glyph unicode="&#xa0;" horiz-adv-x="673" />
<glyph unicode="!" horiz-adv-x="1013" d="M100 201q0 121 88 181t215 60q113 0 197 -63.5t84 -159.5q0 -113 -81 -179.5t-214 -66.5q-113 0 -201 59.5t-88 168.5zM272 1133q0 133 74 218t203 85q135 0 219 -72t84 -207q0 -78 -33 -149.5t-81 -127t-100 -109.5t-96 -120.5t-61 -138.5l-63 10q6 131 -70 334t-76 277 z" />
<glyph unicode="&#x22;" horiz-adv-x="1462" d="M353 1087.5q-1 59.5 2 97.5t10 68q29 158 217 158q164 0 163 -162q0 -37 -12 -88t-37.5 -119.5t-46.5 -117.5l-56 -132l-50 -114h-178l-6 161q-3 97 -4 143t-2 105.5zM841 1087.5q-1 59.5 2 97.5t9 68q29 158 217 158q164 0 164 -162q0 -37 -12.5 -88t-38.5 -120 l-47 -117l-56 -132l-49 -114h-178l-5 161q-3 97 -4 143t-2 105.5z" />
<glyph unicode="#" d="M104 399l15 193h213l41 235h-193l17 193h211l67 385h223l-67 -385h184l68 385h223l-68 -385h197l-16 -193h-215l-41 -235h194l-14 -193h-215l-68 -399h-223l70 399h-166l-68 -399h-244l70 399h-195zM555 592h184l41 235h-184z" />
<glyph unicode="$" d="M49 324q0 74 47 131t119 57q92 0 147.5 -47t55.5 -139q0 -70 -41 -108t-81 -53t-40 -28q0 -31 125 -68.5t166 -33.5l67 440q-6 4 -59 36l-66 39q-12 7 -61 40t-64 46l-55 46q-39 33 -54 54l-42 57q-27 35 -37 64.5t-19.5 67.5t-9.5 76q0 215 152 325t387 110 q14 0 43 -4.5t37 -4.5l27 146h84l-25 -150q223 -39 335.5 -115.5t112.5 -222.5q0 -76 -47 -119.5t-129 -43.5q-55 0 -106 43t-51 120q0 72 40 110t79.5 51.5t39.5 21.5q0 25 -98 58.5t-188 41.5l-66 -422q215 -127 293 -194q172 -150 172 -334q0 -111 -37 -193t-92 -128 t-141 -75.5t-167 -40t-186 -12.5l-20 -137h-80l21 137q-82 10 -160 32t-157 61.5t-125 107.5t-46 154zM453 1229q0 -27 14 -54.5t29.5 -46t50.5 -44t51 -35.5l57 -35q41 -25 45 -27l58 389q-57 4 -123 -5t-124 -45t-58 -97zM627 27q150 0 235.5 37.5t85.5 109.5 q0 68 -55 120t-203 136z" />
<glyph unicode="%" horiz-adv-x="1802" d="M20 889q0 180 140.5 348t328.5 168q68 0 183.5 -62.5t218.5 -62.5q86 0 184.5 38t165.5 109h86l-743 -1464h-101l664 1315l-4 4q-117 -82 -264 -82q-59 0 -109 27l-4 -4q57 -96 57 -219q0 -203 -133 -371t-330 -168q-164 0 -252 126t-88 298zM272 600q0 -90 80 -90 q66 0 86 102l137 652q10 45 -14 69.5t-59 24.5q-20 0 -34.5 -6t-31 -34t-28.5 -81l-99 -426q-37 -162 -37 -211zM971 332q0 256 141 416.5t299 160.5q123 0 237.5 -101t114.5 -306q0 -207 -127 -372t-305 -165q-152 0 -256 106.5t-104 260.5zM1223 115q-20 -102 80 -103 q37 0 53 27t33 104l124 611q20 109 -61 108q-47 0 -70.5 -34.5t-48.5 -157.5z" />
<glyph unicode="&#x26;" horiz-adv-x="1912" d="M27 373q0 182 134 303t425 215q-33 80 -33 188q0 170 134 263.5t312 93.5q174 0 276.5 -69t102.5 -191q0 -94 -63.5 -150.5t-163.5 -75.5q39 -104 123 -279t141 -235q37 33 78 96.5t41 110.5q0 80 -164 78v59h465v-59q-68 2 -112 -21.5t-89 -78.5l-188 -242 q39 -61 99.5 -116.5t113.5 -55.5q18 0 33.5 2t30 11t22.5 12.5t23 19.5l20 20q4 4 22.5 24.5t20.5 22.5l47 -26q-82 -166 -217 -245t-295 -79q-209 0 -336 111q-244 -111 -500 -111q-246 0 -374.5 117t-128.5 287zM489 670q0 -113 110 -326t210 -242q20 -6 61 -6 q55 0 113 27q-84 96 -162 230t-115 227l-104 262q-113 -55 -113 -172zM1044 1319q0 -66 93 -322q63 29 79.5 48.5t16.5 57.5t-21.5 111.5t-35.5 104.5q-33 63 -76 63q-56 0 -56 -63z" />
<glyph unicode="'" horiz-adv-x="788" d="M259 1087.5q-1 59.5 2 97.5t9 68q29 158 217 158q164 0 164 -162q0 -37 -12 -88t-39 -120l-47 -117l-55 -132l-49 -114h-179l-5 161q-3 97 -4 143t-2 105.5z" />
<glyph unicode="(" horiz-adv-x="1013" d="M92 438q0 240 81 438.5t207 318.5t267 183.5t275 63.5h106l-4 -47q-80 0 -141.5 -33t-105.5 -95.5t-69.5 -125t-52.5 -148.5q-72 -238 -115.5 -562.5t-43.5 -442.5q0 -137 46 -235.5t179 -149.5l-2 -52q-313 84 -470 317.5t-157 569.5z" />
<glyph unicode=")" horiz-adv-x="1013" d="M-45 -449l4 48q80 0 141.5 32.5t105.5 95t70.5 125t51.5 148.5q72 238 116.5 562.5t44.5 443.5q0 137 -47 235t-180 150l2 51q313 -84 471 -317.5t158 -569.5q0 -240 -82 -438.5t-207 -317t-267 -183.5t-276 -65h-106z" />
<glyph unicode="*" horiz-adv-x="899" d="M98 1153q0 121 123 121q33 0 72 -38t68.5 -81t61.5 -81t50 -38q20 0 21 19q0 49 -49.5 144t-49.5 140t38 71t83 26q49 0 81 -27t32 -73t-49.5 -139t-49.5 -134q0 -14 6.5 -20.5t18.5 -4.5q25 2 55.5 39t56 81t63.5 80t79 36q51 0 82 -38t31 -99q0 -45 -46.5 -73 t-97.5 -28q-203 0 -203 -55q0 -12 12.5 -18.5t59.5 -14.5t137 -14q78 -6 109 -35t31 -90q0 -43 -37 -76t-80 -33q-39 0 -77 36t-63.5 81t-57 81t-56.5 36q-20 0 -21 -31q0 -35 48.5 -128t48.5 -134q0 -45 -32 -77t-79 -32q-49 0 -86 26t-37 75q0 45 49.5 142t49.5 140 q0 18 -23 19q-18 0 -60 -46t-67 -89q-57 -100 -133 -101q-55 0 -83 34t-28 89.5t33 82t131 32.5q111 6 148 16.5t37 32.5q0 29 -64 41q-45 8 -164 18q-123 11 -123 109z" />
<glyph unicode="+" horiz-adv-x="1216" d="M78 391v244h389v391h242v-391h391v-244h-391v-391h-242v391h-389z" />
<glyph unicode="," horiz-adv-x="673" d="M-68 -319q299 45 443 190q94 92 94 141q-2 14 -12 15q-2 0 -66.5 -27t-124.5 -27q-117 0 -195.5 59.5t-78.5 168.5q0 115 83 178t214 63q133 0 217 -80.5t84 -216.5q0 -145 -102.5 -263t-249 -180t-306.5 -75v54z" />
<glyph unicode="-" horiz-adv-x="673" d="M12 272l74 404h545l-74 -404h-545z" />
<glyph unicode="." horiz-adv-x="673" d="M0 201q0 121 88 181t215 60q115 0 198 -63.5t83 -159.5q0 -113 -80 -179.5t-213 -66.5q-117 0 -204 59.5t-87 168.5z" />
<glyph unicode="/" horiz-adv-x="673" d="M-84 -31l580 1467h262l-576 -1467h-266z" />
<glyph unicode="0" d="M37 596q0 174 48 320.5t126 239.5t174 158.5t186.5 93.5t169.5 28q250 0 408 -180.5t158 -446.5q0 -346 -196 -593t-507 -247q-127 0 -229.5 44t-163.5 110.5t-102 152.5t-56.5 165t-15.5 155zM473 125q0 -96 86 -96q47 0 78 42t41 101l182 987q41 217 -69 217 q-37 0 -63 -19.5t-46 -80.5q-43 -131 -126 -593t-83 -558z" />
<glyph unicode="1" d="M35 0l10 59h260l230 1287h-238l8 59q293 0 731 27l-241 -1373h270l-10 -59h-1020z" />
<glyph unicode="2" d="M25 -31q0 119 39.5 220.5t104 175t142.5 140.5l156 132q78 66 142.5 132.5t104.5 154.5t40 188q0 119 -54.5 190.5t-164.5 71.5q-35 0 -87.5 -19.5t-52.5 -47.5q0 -18 28 -38t58.5 -36t58 -55t27.5 -93q0 -94 -63.5 -145t-158.5 -51t-154.5 61.5t-59.5 157.5 q0 117 89 194.5t197.5 105.5t225.5 28q281 0 453 -104.5t172 -299.5q0 -98 -45 -175t-123 -124t-158 -75.5t-176 -45.5q-115 -20 -224.5 -60t-212 -122t-124.5 -182l4 -4q147 145 412 145q86 0 227 -33.5t199 -33.5q82 0 102 59h68q-66 -412 -484 -412q-137 0 -309 47 t-217 47q-96 0 -111 -94h-71z" />
<glyph unicode="3" d="M23 285q0 100 63.5 163.5t163.5 63.5q94 0 156.5 -52t62.5 -151q0 -84 -50 -127t-98.5 -58t-48.5 -28q0 -20 53.5 -43.5t123.5 -23.5q78 0 122.5 46t79.5 132q66 160 66 381q0 147 -129 147q-8 0 -26.5 -1t-29.5 -1q-47 0 -47 37q0 12 12.5 21.5t26.5 9.5q10 0 34 -3 t36 -3q59 0 98 36q49 49 72.5 156t23.5 203q0 84 -49 130t-131 46q-141 0 -141 -47q0 -8 31.5 -28.5t65.5 -63.5t34 -105q0 -94 -60.5 -144t-158.5 -50q-63 0 -106.5 26.5t-61.5 67.5t-25.5 72.5t-7.5 60.5q0 115 116 198t351 83q319 0 477 -84t158 -260q0 -74 -37 -130.5 t-84 -89t-128 -59.5t-130 -37t-129 -22v-4q72 -12 129 -26.5t120.5 -43.5t105.5 -67t70 -96t28 -132t-30 -139.5t-99.5 -131t-212 -105.5t-340.5 -40q-154 0 -264.5 32t-161.5 83t-72.5 100.5t-21.5 100.5z" />
<glyph unicode="4" d="M-14 367l14 79l874 990h365l-174 -994h203l-15 -75h-202l-56 -308h224l-11 -59h-938l11 59h241l51 308h-587zM96 442h492l129 729l-4 5l-617 -709v-25z" />
<glyph unicode="5" d="M23 276q0 92 62 155t159 63q96 0 158.5 -57.5t62.5 -149.5q0 -72 -40 -120t-79 -66.5t-39 -20.5q0 -29 51.5 -42t90.5 -13q80 0 138 53t84.5 139t36 165t9.5 155q0 236 -213 235q-86 0 -155.5 -23.5t-111.5 -46t-59 -22.5q-27 0 -26 27q82 287 153 710q6 18 31 19 q72 -16 232.5 -37t256.5 -21q242 0 412 58q37 -4 37 -41q0 -31 -19.5 -74t-68.5 -95t-118 -94t-180.5 -72t-243.5 -30t-335 47l-71 -315q188 86 450 86q250 0 398.5 -115t148.5 -301q0 -92 -34 -169t-107.5 -145.5t-215 -108.5t-335.5 -40q-131 0 -230.5 21.5t-154 53.5 t-86 76t-40.5 79.5t-9 76.5z" />
<glyph unicode="6" d="M51 614q0 166 49.5 313.5t143.5 261.5t244.5 180.5t336.5 66.5q229 0 352 -90.5t123 -229.5q0 -94 -59 -150.5t-154 -56.5q-94 0 -155.5 48.5t-61.5 140.5q0 57 27 101t60 61l62 30q28 14 28 25q0 27 -44.5 42t-89.5 15q-131 0 -196.5 -126t-122.5 -478q86 47 197 47 q188 0 323 -100.5t135 -288.5q0 -211 -153.5 -334t-413.5 -123q-158 0 -275.5 45t-184 110.5t-106.5 158t-52.5 169t-12.5 162.5zM494 131q0 -51 17 -76.5t69 -25.5q68 0 94 110q86 375 86 506q0 98 -86 98q-31 0 -66 -26.5t-45 -79.5q-69 -338 -69 -506z" />
<glyph unicode="7" d="M96 975l99 455h59l-27 -134l21 -10q193 139 403 139q154 0 293 -47t191 -47q63 0 112 33t62 33q10 0 18 -11.5t8 -19.5q0 -10 -12 -30.5t-35 -49.5l-41 -51l-40 -47q-22 -25 -23 -27q-268 -322 -350 -553q-20 -55 -37 -182t-21 -182q-8 -139 -73.5 -228.5t-200.5 -89.5 q-143 0 -210 68.5t-67 179.5q0 88 45 164t142 174q129 137 353 314.5t320 279.5l-4 4q-256 -109 -405 -109q-104 0 -260 48.5t-234 44.5q-20 -61 -28 -113z" />
<glyph unicode="8" d="M10 346q0 86 30 152.5t72 107.5t112.5 72t131 45t146.5 29v4q-334 61 -334 321q0 125 84 210t193.5 117t234.5 32h88q252 0 390 -101.5t138 -251.5q0 -92 -42 -158.5t-112.5 -105.5t-147 -58.5t-160.5 -23.5v-4q92 -20 155.5 -42.5t125 -63.5t93 -107.5t31.5 -159.5 q0 -61 -28.5 -123.5t-94 -125t-198 -102.5t-312.5 -40q-252 0 -424 97.5t-172 279.5zM498 139q0 -111 75 -110q88 0 111 98q20 96 44 259t24 220q0 55 -21.5 77t-75.5 22q-37 0 -58.5 -29t-41.5 -107q-23 -90 -40 -222t-17 -208zM614 868q0 -106 76 -106q33 0 54.5 20.5 t37.5 85.5q59 246 60 371q0 80 -20.5 108.5t-65.5 28.5q-33 0 -55.5 -27.5t-41.5 -115.5q-45 -215 -45 -365z" />
<glyph unicode="9" d="M31 289q0 94 58 151.5t155 57.5q92 0 154.5 -49.5t62.5 -141.5q0 -57 -27.5 -101t-61.5 -61l-61 -29q-27 -13 -26 -24q0 -29 43 -44t90 -15q129 0 195.5 126t121.5 478q-84 -47 -196 -47q-188 0 -322.5 100.5t-134.5 288.5q0 211 152.5 334t414.5 123q156 0 274.5 -45 t184.5 -111t106.5 -158t53 -168.5t12.5 -162.5q0 -166 -50 -313.5t-144.5 -261.5t-244 -180.5t-335.5 -66.5q-229 0 -352 90.5t-123 229.5zM569 760q0 -98 88 -98q31 0 65 26.5t44 79.5q72 340 72 506q0 51 -18.5 76.5t-69.5 25.5q-66 0 -93 -110q-88 -375 -88 -506z" />
<glyph unicode=":" horiz-adv-x="673" d="M0 233q0 82 75 143.5t179 61.5q160 0 229.5 -68.5t69.5 -170.5q0 -70 -79 -134.5t-191 -64.5q-123 0 -203 57t-80 176zM109 780q0 84 75.5 144.5t177.5 60.5q160 0 231 -68.5t71 -171.5q0 -68 -79 -133t-194 -65q-121 0 -201.5 58t-80.5 175z" />
<glyph unicode=";" horiz-adv-x="673" d="M-68 -330q141 27 256 82t172 119q76 80 84 131q2 16 -10 16q-6 0 -63.5 -24.5t-124.5 -24.5q-113 0 -187.5 58.5t-74.5 165.5q0 106 81.5 159.5t194.5 53.5q135 0 216 -73t81 -218q0 -135 -104.5 -252t-245.5 -179.5t-275 -66.5v53zM109 780q0 84 75.5 144.5t177.5 60.5 q160 0 231 -68.5t71 -171.5q0 -68 -79 -133t-194 -65q-121 0 -201.5 58t-80.5 175z" />
<glyph unicode="&#x3c;" horiz-adv-x="1216" d="M84 418v190l1030 434v-233l-715 -297l715 -295v-233z" />
<glyph unicode="=" horiz-adv-x="1216" d="M78 174v244h1022v-244h-1022zM78 608v244h1022v-244h-1022z" />
<glyph unicode="&#x3e;" horiz-adv-x="1216" d="M84 -16v233l713 295l-713 297v233l1030 -434v-190z" />
<glyph unicode="?" d="M102 1130q0 123 116 214.5t343 91.5q260 0 445.5 -99.5t185.5 -277.5q0 -33 -7 -62.5t-15.5 -53t-31 -46.5t-33.5 -37t-44 -32.5l-46.5 -26.5t-54 -24.5l-50 -20.5t-55.5 -20l-52 -17q-68 -20 -106 -41t-73.5 -65t-43.5 -105l-70 10q10 109 45 195t72 132t64.5 113.5 t27.5 147.5q0 125 -69.5 190.5t-178.5 65.5q-80 0 -80 -33q0 -10 33 -22l70 -27q37 -14 69.5 -62.5t32.5 -123.5q0 -92 -70.5 -149.5t-173.5 -57.5q-109 0 -179.5 67t-70.5 176zM199 201q0 121 88 181t217 60q113 0 195.5 -63.5t82.5 -159.5q0 -113 -79.5 -179.5 t-213.5 -66.5q-117 0 -203.5 59.5t-86.5 168.5z" />
<glyph unicode="@" horiz-adv-x="1622" d="M63 670q0 334 230.5 550t556.5 216q295 0 496.5 -178.5t201.5 -446.5q0 -182 -109.5 -345t-285.5 -163q-92 0 -143.5 58.5t-48.5 97.5h-5q-14 -37 -86.5 -94.5t-156.5 -59.5q-76 -2 -140.5 62.5t-64.5 197.5q0 76 26.5 163t75.5 170t133 139.5t185 56.5q25 0 44 -5.5 t30.5 -10.5t23.5 -18t16.5 -19.5t15.5 -26t13 -23.5l21 70h161l-123 -504q-12 -47 2.5 -98t53.5 -51q66 0 130 135t64 264q0 182 -147.5 324.5t-382.5 142.5q-88 0 -173 -33t-165 -101.5t-130 -195.5t-50 -295q0 -219 166 -368.5t372 -149.5q231 0 422 102l21 -131 q-231 -133 -518 -133q-154 0 -281 46t-209 119t-138 167t-80 186.5t-24 182.5zM709 614q0 -78 25.5 -127t60.5 -49q82 0 143 95.5t82 291.5q0 72 -17.5 104t-62.5 32q-74 0 -152.5 -105t-78.5 -242z" />
<glyph unicode="A" horiz-adv-x="1576" d="M-119 0l10 55h5q46 0 85 38q40 40 82 126l590 1186h469l199 -1346h121l-10 -59h-859l9 59h145l-53 392h-420q-92 -186 -114.5 -237.5t-22.5 -84.5t25.5 -50.5t45 -19.5t62.5 -4l-10 -55h-359zM283 508h383l-86 600h-5z" />
<glyph unicode="B" horiz-adv-x="1687" d="M-27 0l11 59h79l236 1287h-149l10 59h844q360 0 515.5 -79t155.5 -241q0 -309 -628 -354v-4q299 -31 415.5 -120t116.5 -238q0 -162 -132 -265.5t-437 -103.5h-1037zM666 59h26q70 0 106 10q42 11 74 48q37 43 66 156.5t29 261.5q0 111 -37 139q-32 25 -123 25 q-13 0 -27 -1zM793 764h10q157 0 207 117q31 72 48 171t17 158q0 72 -31.5 102.5t-103.5 30.5h-41z" />
<glyph unicode="C" horiz-adv-x="1576" d="M84 586q0 229 114.5 425.5t312.5 310.5t423 114q102 0 188 -31t133.5 -60.5t55.5 -29.5q12 0 184 121h64l-72 -564h-53q-33 211 -128.5 336t-224.5 125q-117 0 -173 -53t-103 -221q-31 -117 -67 -316.5t-36 -353.5q0 -156 64.5 -227.5t210.5 -71.5q211 0 407 340l66 -29 q-121 -229 -280.5 -330.5t-413.5 -101.5q-285 0 -478.5 168t-193.5 449z" />
<glyph unicode="D" horiz-adv-x="1687" d="M-23 0l11 59h71l240 1287h-145l10 59h733q350 0 542.5 -150.5t192.5 -449.5q0 -111 -31.5 -221.5t-102.5 -216t-172 -186.5t-254.5 -131t-338.5 -50h-756zM653 59q88 0 138.5 21.5t78.5 89.5q66 166 129.5 540.5t63.5 493.5q0 141 -178 142z" />
<glyph unicode="E" horiz-adv-x="1576" d="M0 0l10 59h76l227 1287h-145l10 59h1338l-43 -512h-66q-14 242 -129 347.5t-356 105.5l-101 -576q121 0 189.5 54.5t105.5 174.5h68l-101 -583h-65q1 22 1 41q0 104 -36 160q-43 67 -172 92l-115 -650h54q57 0 108 5.5t95 21.5t79 26.5t70 40t56.5 46t52 58.5t44 57.5 t40.5 67.5l36 69q8 16 39 71h64l-99 -522h-1335z" />
<glyph unicode="F" horiz-adv-x="1462" d="M-18 0l10 59h82l229 1287h-149l10 59h1294l-43 -526h-63q2 190 -101.5 328.5t-314.5 138.5h-31l-106 -572q117 0 188.5 56.5t112.5 173.5h65l-106 -584h-60q0 7 1 14q0 135 -38 195q-40 63 -174 80l-118 -650h174l-10 -59h-852z" />
<glyph unicode="G" horiz-adv-x="1687" d="M51 633q0 211 117 398.5t302 296t386 108.5q160 0 253 -33t202 -111l200 144h54l-56 -533h-59q-18 176 -137 305t-289 129q-61 0 -107.5 -25.5t-75 -66.5t-50 -96t-34 -105.5t-22.5 -107.5q-2 -16 -4 -23q-100 -532 -100 -755q0 -143 100 -144q59 0 94 49.5t60 208.5 l59 398h-104l6 57h774l-6 -57h-103l-96 -635q-10 0 -60 7t-77 7q-70 0 -246 -40t-299 -40q-221 0 -379.5 96.5t-230.5 244t-72 323.5z" />
<glyph unicode="H" horiz-adv-x="1802" d="M-6 0l10 59h76l227 1287h-147l10 59h827l-10 -59h-90l-104 -588h243l101 588h-99l11 59h753l-10 -59h-66l-225 -1287h148l-11 -59h-837l10 59h102l111 641h-244l-112 -641h90l-10 -59h-754z" />
<glyph unicode="I" horiz-adv-x="1013" d="M-6 0l10 59h80l225 1287h-145l10 59h830l-11 -59h-71l-230 -1287h152l-10 -59h-840z" />
<glyph unicode="J" horiz-adv-x="1236" d="M-27 283q0 88 59.5 153.5t147.5 65.5q84 0 139.5 -48t55.5 -132q0 -170 -203 -170q-45 0 -45 -27q0 -61 131 -62q104 0 175 74t71 180q0 74 -36 136.5t-81 91.5l143 801h-161l10 59h852l-10 -59h-93l-127 -725q-16 -94 -28 -153.5t-31.5 -129.5t-41 -114t-54.5 -90 t-75 -72.5t-97.5 -50t-125 -33t-159.5 -9.5q-100 0 -192.5 31t-158 105t-65.5 178z" />
<glyph unicode="K" horiz-adv-x="1912" d="M39 0l10 59h78l227 1287h-151l10 59h895l-10 -59h-142l-114 -652l4 -4l196 173l172 147l125 107q59 52 86 88t27 61q0 47 -44 63.5t-185 16.5l10 59h723l-10 -55q-207 0 -381 -136l-258 -200l473 -955h121l-11 -59h-927l10 59h151l-282 627h-4l-111 -627h141l-10 -59 h-819z" />
<glyph unicode="L" horiz-adv-x="1462" d="M-12 0l10 59h78l227 1287h-143l10 59h913l-10 -59h-160l-229 -1287q229 0 361.5 64.5t252.5 247.5q61 96 86 170h68l-100 -541h-1364z" />
<glyph unicode="M" horiz-adv-x="1912" d="M-10 0l10 59h7q48 0 73 25q27 27 41 98l207 1164h-150l10 59h682l62 -576h4l281 576h667l-10 -59h-76l-229 -1287h157l-8 -59h-876l10 59h147l220 1192l-5 4l-604 -1255h-100l-125 1255h-4l-174 -1007q-12 -70 -12 -105q0 -49 28 -68q24 -16 83 -16h26l-10 -59h-332z" />
<glyph unicode="N" horiz-adv-x="1576" d="M-23 0l11 59q59 2 85.5 20.5t35.5 74.5l194 1073q-25 72 -66.5 98.5t-146.5 28.5l10 51h764l396 -836h4l116 619q8 42 9 71q0 44 -19 60q-31 27 -129 27l10 59h326l-10 -59q-57 0 -79 -40t-44 -157l-217 -1149h-334l-533 1124h-4l-170 -929q-5 -28 -5 -49q0 -45 24 -62 q35 -25 139 -25l-10 -59h-357z" />
<glyph unicode="O" horiz-adv-x="1687" d="M51 582q0 152 67.5 305t181.5 275t277.5 198t342.5 76q166 0 302 -53.5t221 -137.5t131 -186.5t46 -206.5q0 -229 -105.5 -428t-313.5 -327t-476 -128q-301 0 -487.5 177.5t-186.5 435.5zM635 164q0 -76 20.5 -108.5t73.5 -32.5q70 0 107.5 50t64.5 220l129 815 q10 92 13 147q0 8 1 15q0 44 -17 68q-19 28 -39.5 36t-55.5 8q-39 0 -61.5 -16t-49 -89t-51.5 -202t-63 -377q-72 -438 -72 -534z" />
<glyph unicode="P" horiz-adv-x="1687" d="M-23 0l11 59h84l223 1287h-143l10 59h854q340 0 499.5 -89t159.5 -298q0 -131 -99 -221t-247 -131q-68 -18 -157 -28.5t-138 -11.5q-25 -1 -63.5 -1t-90.5 1q-105 1 -116 1l-96 -568h180l-10 -59h-861zM776 682q119 0 165 24.5t71 110.5q23 82 43 214t20 192 q0 72 -22.5 97.5t-85.5 25.5h-74z" />
<glyph unicode="Q" horiz-adv-x="1687" d="M51 582q0 211 116 406.5t320.5 321.5t440.5 126q164 0 298 -53.5t218 -138.5t130 -190.5t46 -213.5q0 -299 -192.5 -544t-471.5 -300q14 -70 76 -123q59 -51 134 -51h5q94 2 158 40t127 130l37 -19q-63 -166 -177 -289.5t-263 -123.5q-254 0 -254 245q0 100 16 170 q-37 -4 -51 -4q-16 -2 -49 -2q-295 0 -479.5 177.5t-184.5 435.5zM635 145q0 -70 25.5 -96t87.5 -26q74 0 112 108q-4 135 -129 135q-45 0 -92 -47q-4 -37 -4 -74zM643 291q51 27 105 26q68 0 145 -65q152 877 151 1001q0 70 -25.5 99.5t-78.5 29.5q-63 0 -99 -47t-63 -213z " />
<glyph unicode="R" horiz-adv-x="1802" d="M-12 0l10 59h76l229 1287h-149l10 59h1003q270 0 406.5 -89t136.5 -226q0 -96 -54 -165t-144.5 -105t-172.5 -53t-176 -24v-4q227 -31 308 -129t81 -235q0 -39 -7 -112t-7 -111q0 -33 11.5 -46.5t41.5 -13.5q23 0 44.5 13.5t33.5 29t30.5 43t24.5 35.5l50 -23 q-61 -123 -157.5 -172t-244.5 -49q-412 0 -411 357q0 37 3 110.5t3 112.5q0 51 -11.5 82t-41 45t-54 18t-84.5 6l-110 -641h139l-10 -59h-807zM793 762q14 -1 26 -1q97 0 149 41q58 46 87 150q37 133 37 265q0 129 -113 129h-84z" />
<glyph unicode="S" d="M10 -31q59 406 62 531h57q59 -188 201.5 -328.5t322.5 -140.5q84 0 155 41t71 127q0 55 -40 98t-102.5 78t-140.5 69.5t-154.5 77.5t-139 97.5t-102.5 138.5t-40 186q0 225 147.5 358.5t376.5 133.5q70 0 164 -31t162 -80l225 111h45q-61 -385 -63 -496h-70 q-37 193 -160 308.5t-293 115.5q-68 0 -122 -38t-54 -107q0 -57 53.5 -107.5t132 -86.5t170 -86t170 -105.5t132 -147.5t53.5 -207q0 -86 -30 -169t-91 -161.5t-178 -129t-268 -50.5q-121 0 -200 30t-179 99l-213 -129h-60z" />
<glyph unicode="T" horiz-adv-x="1576" d="M76 860l114 545h1385l-70 -574h-63q-4 225 -58.5 355.5t-195.5 154.5l-230 -1282h205l-10 -59h-1010l11 59h194l230 1282h-17q-14 0 -43 -11t-77 -45t-97 -85t-105.5 -141t-101.5 -199h-61z" />
<glyph unicode="U" horiz-adv-x="1576" d="M102 1346l9 59h944l-11 -59h-167l-179 -1049q-5 -31 -5 -57q0 -160 192 -160q129 0 228 88t136 295l137 778q2 13 3 24q0 38 -27 59q-32 26 -99 26h-10l11 55h313l-10 -55q-55 -8 -77 -38t-32 -91l-139 -756q-29 -156 -81 -253t-139 -150.5t-193.5 -73t-266.5 -19.5 q-166 0 -281.5 43t-170 113t-70.5 146q-9 44 -10 91q0 35 6 72l159 912h-170z" />
<glyph unicode="V" horiz-adv-x="1576" d="M76 1346l10 59h860l-10 -59h-131l196 -854h5l177 344q108 205 155.5 304t47.5 130q0 47 -31.5 61.5t-123.5 14.5l10 59h365l-11 -59q-12 -2 -23 -6.5t-21.5 -10.5t-20.5 -15t-17.5 -16.5t-17.5 -21.5l-15 -22q-5 -7 -14.5 -24.5t-12.5 -22.5t-13 -23.5t-10 -20.5 l-607 -1163h-305l-311 1346h-131z" />
<glyph unicode="W" horiz-adv-x="1912" d="M43 1346l10 59h723l-10 -59h-64l123 -791h4l140 352l-70 439h-76l11 59h731l-11 -59h-98q4 -66 48 -374t63 -388h4q43 125 110 296l106 270q38 99 38 132q0 41 -25.5 52.5t-107.5 11.5l10 59h346l-10 -64q-6 0 -12 1q-60 0 -82 -21q-25 -23 -50 -88l-473 -1233h-297 l-131 778h-4l-317 -778h-299l-238 1346h-92z" />
<glyph unicode="X" horiz-adv-x="1687" d="M-51 0l10 59q100 16 161.5 58.5t160.5 146.5l313 332l-383 750h-160l10 59h963l-10 -59h-164l211 -402q18 25 81.5 93.5t112 128t48.5 89.5q0 37 -18.5 55.5t-35 23.5t-59.5 7t-55 5l10 59h543l-9 -59h-6q-147 0 -336 -199l-245 -258l428 -830h147l-10 -59h-948l10 59 h155l-249 478l-81 -87l-69 -75l-51 -56q-31 -33 -42 -50l-25 -40q-13 -23 -17 -40t-4 -37q0 -51 50 -72t159 -21l-10 -59h-586z" />
<glyph unicode="Y" horiz-adv-x="1576" d="M55 1346l11 59h880l-10 -59h-148l287 -687l225 400q102 189 103 216q0 39 -33 54q-31 14 -127 17l10 59h369l-10 -59q-80 -10 -123 -91l-371 -655l-90 -541h195l-11 -59h-974l10 59h170l88 506l-336 781h-115z" />
<glyph unicode="Z" horiz-adv-x="1462" d="M4 0v61l727 1285h-45q-162 0 -300 -118t-222 -308l-64 10l95 475h1212v-66l-723 -1280q432 0 643 467l70 -14l-125 -512h-1268z" />
<glyph unicode="[" horiz-adv-x="1126" d="M41 -420l330 1843h729l-17 -75h-311l-303 -1692h309l-14 -76h-723z" />
<glyph unicode="\" horiz-adv-x="563" d="M-119 1436h234l569 -1467h-231z" />
<glyph unicode="]" horiz-adv-x="1126" d="M0 -420l14 76h310l303 1692h-312l15 75h727l-332 -1843h-725z" />
<glyph unicode="^" horiz-adv-x="1216" d="M137 666l355 739h215l352 -739h-238l-223 501l-225 -501h-236z" />
<glyph unicode="_" horiz-adv-x="1013" d="M0 -152h1014v-102h-1014v102z" />
<glyph unicode="`" horiz-adv-x="673" d="M164 1380q0 49 34.5 81t75.5 32q90 0 162 -102l201 -281h-129l-258 160q-86 53 -86 110z" />
<glyph unicode="a" horiz-adv-x="1462" d="M27 418q0 225 151.5 397t353.5 172q121 0 191 -47t100 -160h4l35 189l101 -6q74 -4 110 -5q20 0 244 11l-127 -666q-14 -83 -15 -125q0 -11 2 -19q5 -38 35 -38q14 0 27.5 9t27 28.5t23.5 38t22 46.5l17 43l16 40q9 25 9 26h47q-70 -229 -165 -306t-241 -77 q-125 0 -189 79q-61 74 -61 189v15l-4 4q-51 -287 -329 -287q-188 0 -286.5 127t-98.5 322zM524 264q0 -150 76 -149q49 0 74.5 51t58.5 207q43 199 43 350q0 133 -61 133q-47 0 -68.5 -24.5t-52.5 -120.5q-29 -88 -49.5 -234.5t-20.5 -212.5z" />
<glyph unicode="b" d="M59 1346l11 59h139q182 0 508 22l-92 -524l4 -4q106 88 225 88q197 0 304.5 -117.5t107.5 -316.5q0 -59 -16.5 -128t-65.5 -153t-125 -148.5t-212 -109.5t-310 -45q-270 0 -387 148q-83 105 -84 266q0 65 14 139l147 824h-168zM500 102q0 -47 18.5 -68.5t65.5 -21.5 q45 0 69.5 49.5t55.5 227.5q63 362 63 491q0 33 -17.5 60.5t-47.5 27.5q-45 0 -69 -32.5t-52 -151.5q-35 -154 -60.5 -331t-25.5 -251z" />
<glyph unicode="c" horiz-adv-x="1236" d="M6 412q0 76 28.5 153.5t89 153.5t144.5 135t207 96t262 37q102 0 192.5 -22.5t162 -85t71.5 -160.5q0 -94 -67.5 -150.5t-165.5 -56.5q-86 0 -153.5 54.5t-67.5 142.5q0 49 15 82.5t35 48.5l36 26q16 12 16 21q0 55 -84 55q-23 0 -43 -11t-31.5 -23.5t-24 -39t-16.5 -39 t-12 -43.5q-82 -281 -82 -507q0 -217 184 -218q141 0 330 140l47 -25q-96 -94 -237.5 -150.5t-286.5 -56.5q-135 0 -239.5 34t-161 81t-92 112.5t-46 116t-10.5 99.5z" />
<glyph unicode="d" horiz-adv-x="1462" d="M25 432q0 121 56 247t172 217t257 91q201 0 303 -170h4l94 531h-186l10 59h158q182 0 508 23l-217 -1240q-4 -29 4 -47t24 -18q25 0 50.5 31.5t40 64.5t31 80t20.5 55h49q-90 -387 -377 -387q-139 0 -201.5 65.5t-66.5 205.5h-4q-35 -129 -124 -200t-222 -71 q-100 0 -176 40t-120 107.5t-65.5 147.5t-21.5 168zM524 242q0 -133 80 -133q37 0 65.5 44t59.5 179q53 219 53 389q0 66 -18.5 91.5t-58.5 25.5q-53 0 -85 -75t-59 -212q-37 -192 -37 -309z" />
<glyph unicode="e" d="M18 401q0 229 222.5 407.5t552.5 178.5q100 0 196 -21.5t179 -87t83 -167.5q0 -141 -154.5 -225.5t-385.5 -84.5q-20 0 -181 7q-18 -74 -18 -134q0 -215 174 -215q287 0 471 213h64q-238 -303 -682 -303q-233 0 -377 112.5t-144 319.5zM537 449q119 0 159 32 q41 35 71 140.5t30 216.5q0 49 -18.5 69.5t-69.5 20.5q-37 0 -59.5 -31t-43.5 -100q-53 -182 -69 -348z" />
<glyph unicode="f" horiz-adv-x="788" d="M-16 -141l188 1018h-141l10 57h147q16 104 41 184t68 154t113.5 114.5t164.5 40.5q143 0 215 -60t72 -157q0 -47 -42 -93t-115 -46q-82 0 -120 44t-38 104q0 51 21.5 77.5t43 39t21.5 26.5t-29 14q-70 0 -108.5 -58t-38.5 -142q0 -123 105 -186q96 -57 217 -57q12 0 24 1 l-10 -57h-146q-18 -106 -59 -319.5t-68.5 -380.5t-44.5 -318q-186 10 -239 10q-29 0 -252 -10z" />
<glyph unicode="g" d="M-8 -233q0 74 57 115.5t144 41.5q119 0 169 -45t50 -104q0 -25 -23.5 -64t-23.5 -49q0 -47 51 -47q90 0 141 64.5t72 146.5q68 276 71 377h-4q-51 -86 -131 -140.5t-174 -54.5q-176 0 -277.5 117t-101.5 297q0 61 17.5 133t57.5 149.5t97.5 140t146.5 102.5t191 40 q193 0 283 -196h4l31 178l110 -6q74 -4 103 -5q47 0 239 11q-57 -233 -112.5 -562t-83.5 -452q-41 -160 -214 -276.5t-501 -116.5q-389 0 -389 205zM512 283q0 -131 61 -131q41 0 69 50t65 197q12 55 29.5 176t17.5 170q0 113 -74 113q-31 0 -50.5 -26.5t-37.5 -98.5 q-80 -315 -80 -450z" />
<glyph unicode="h" d="M-18 -10l239 1356h-162l11 59h127q182 0 510 22l-117 -698l4 -4q137 262 330 262q131 0 209.5 -75.5t78.5 -217.5q0 -117 -54 -305t-54 -221q0 -31 33 -31q29 0 58.5 50.5t84.5 183.5h45q-27 -82 -46 -129t-54 -104.5t-73 -87.5t-100.5 -51.5t-140.5 -21.5 q-98 0 -169.5 62.5t-71.5 200.5q0 117 48 303t48 217q0 33 -9 46t-32 13q-27 0 -67 -56t-64 -132q-84 -272 -133 -641q-49 2 -121 6q-84 4 -127 4q-38 0 -231 -10z" />
<glyph unicode="i" horiz-adv-x="788" d="M-23 569q45 205 128 308.5t243 103.5q135 0 214 -83t79 -222q0 -100 -51 -283.5t-51 -204.5q0 -45 39 -45q20 0 38.5 18.5t35 50.5t27.5 59.5t21.5 61.5t14.5 42h49q-59 -233 -160.5 -315.5t-241.5 -82.5q-127 0 -195.5 70t-68.5 205q0 104 45 286.5t45 200.5 q0 70 -43 70q-37 0 -63.5 -59.5t-61.5 -180.5h-43zM150 1260q0 88 79.5 127.5t180.5 39.5q109 0 189.5 -44t80.5 -144q0 -90 -82 -128t-180 -38q-113 0 -190.5 42.5t-77.5 144.5z" />
<glyph unicode="j" horiz-adv-x="899" d="M-72 -227q0 63 42 108t122 45q66 0 113 -39t47 -90q0 -55 -22.5 -84.5t-44 -44t-21.5 -24.5q0 -16 31 -17q154 0 153 193q0 82 -45 129t-135 80q14 74 54 251t59.5 290.5t19.5 183.5q0 27 -11 41t-36 12q-43 -6 -88 -84t-60 -139h-47q49 182 159 289.5t257 107.5 q279 0 279 -281q0 -113 -37 -334t-78 -374q-18 -74 -35.5 -124t-52.5 -112.5t-78 -101.5t-112.5 -65.5t-159.5 -26.5q-109 0 -191 52.5t-82 158.5zM272 1260q0 88 80 127.5t178 39.5q111 0 191 -44t80 -144q0 -90 -81 -128t-181 -38q-111 0 -189 42.5t-78 144.5z" />
<glyph unicode="k" d="M0 -10l244 1356h-166l10 59h121q182 0 508 22l-152 -870q80 2 112 31.5t99 156.5q70 131 131.5 186.5t177.5 55.5q90 0 152.5 -53t62.5 -141q0 -92 -51 -140.5t-133 -48.5q-70 0 -117 42t-47 116q0 41 23.5 74.5t23.5 54.5q0 23 -24 22q-37 0 -73 -53t-62.5 -116.5 t-68.5 -123t-85 -69.5l4 -4q24 1 47 1q150 0 234 -36q70 -27 109.5 -95.5t45.5 -109.5q14 -109 52 -108q33 0 55 24.5t41.5 69.5t25.5 53l46 -10q-133 -358 -398 -359q-47 0 -83 5.5t-78 25t-67.5 54t-44 96t-18.5 147.5q0 125 -20.5 160t-81.5 43l-88 -518l-111 6 q-72 4 -116 4q-174 0 -240 -10z" />
<glyph unicode="l" horiz-adv-x="788" d="M84 1346l10 59h152q182 0 508 22l-209 -1183q-8 -42 -8 -71q0 -65 38 -64q84 0 164 249h47q-55 -184 -148 -286.5t-259 -102.5q-176 0 -252 84q-50 55 -50 170q0 59 13 133l174 990h-180z" />
<glyph unicode="m" horiz-adv-x="1912" d="M-10 610q100 377 356 377q137 0 193 -92q40 -67 40 -193q0 -47 -6 -102h5q39 154 131 270.5t233 116.5q137 0 193 -83q38 -57 38 -170q0 -50 -8 -111h4q39 139 137.5 251.5t229.5 112.5q139 0 204.5 -86t65.5 -176q0 -98 -62.5 -315t-62.5 -234q0 -35 31 -35 q27 0 53.5 44t77.5 184h53q-25 -72 -44 -119t-53 -104.5t-71.5 -90t-96 -55.5t-128.5 -23q-119 0 -178 76t-59 197q0 70 53 297t53 246q0 27 -24 26q-29 0 -53.5 -32.5t-63.5 -120.5q-66 -160 -152 -676l-112 6q-72 4 -111 4q-16 0 -219 -10l125 698q10 55 9 88q0 44 -17 43 q-37 0 -55.5 -31.5t-59.5 -142.5q-70 -199 -141 -655l-109 6q-74 4 -110 4q-104 0 -240 -10l131 684q13 70 13 100q0 7 -1 12q-4 25 -28 25q-31 0 -56.5 -48t-58.5 -153h-49z" />
<glyph unicode="n" horiz-adv-x="1462" d="M4 596q39 170 131 280.5t232 110.5q57 0 103 -17.5t86 -57.5t57 -118q10 -46 11 -104q0 -40 -6 -86h5q51 166 151 274.5t252 108.5q129 0 209 -75.5t80 -217.5q0 -117 -55.5 -305t-55.5 -221q0 -31 35 -31q29 0 57.5 50.5t83.5 183.5h47q-29 -82 -48 -129t-53 -104.5 t-73 -87.5t-100 -51.5t-141 -21.5q-98 0 -170 62.5t-72 200.5q0 117 49 303t49 217q0 33 -9 46t-32 13q-96 0 -204 -360l-82 -469q-49 2 -115 6q-82 4 -123 4q-14 0 -242 -10l123 674q10 58 11 93q0 54 -25 54q-53 0 -123 -215h-43z" />
<glyph unicode="o" d="M43 420q0 238 192.5 402.5t501.5 164.5q129 0 247 -45t204 -150.5t86 -254.5q0 -254 -198.5 -411t-489.5 -157q-139 0 -249 43t-172.5 110.5t-92 143.5t-29.5 154zM510 115q0 -100 70 -101q47 0 74.5 47.5t52.5 184.5q10 66 32 179l34 174q11 60 21.5 137t10.5 136 q0 31 -18.5 50.5t-49.5 19.5q-35 0 -60.5 -29.5t-43.5 -111.5q-123 -524 -123 -686z" />
<glyph unicode="p" horiz-adv-x="1462" d="M-111 -442l9 59h131l194 1110q5 26 5 45q0 55 -40 55q-31 0 -56.5 -41t-78.5 -186h-49q63 227 163.5 307t233.5 80q119 0 184 -72q61 -67 60 -194v-16h4q92 283 342 282q172 0 283.5 -114.5t111.5 -333.5q0 -215 -136 -389.5t-345 -174.5q-221 0 -303 168h-4l-94 -526 h174l-10 -59h-779zM627 223q0 -104 75 -104q55 0 86 67q29 61 66 255t37 278q0 37 -3 58.5t-21.5 41t-51.5 19.5q-59 0 -102 -103q-31 -74 -58.5 -248t-27.5 -264z" />
<glyph unicode="q" d="M43 369q0 190 93 334.5t232.5 214t293.5 69.5q121 0 201.5 -25.5t117.5 -49t53 -23.5q10 0 28.5 7t82.5 37l121 54h53l-254 -1370h162l-10 -59h-818l9 59h182l88 465l-4 4q-123 -117 -283 -117q-162 0 -255 117t-93 283zM535 203q0 -100 57 -101q78 0 104 125 q98 434 99 639q0 66 -72 66q-51 0 -78 -94q-110 -404 -110 -635z" />
<glyph unicode="r" horiz-adv-x="1236" d="M45 606q41 166 139.5 273.5t251.5 107.5q123 0 177 -74q47 -64 48 -214q0 -23 -2 -48h5q51 170 126.5 253t192.5 83q98 0 160.5 -56.5t62.5 -151.5t-57 -162.5t-166 -67.5q-98 0 -140 57.5t-42 138.5q0 35 -4 42.5t-21 7.5q-66 0 -203 -805q-49 2 -118 6q-82 4 -131 4 q-4 0 -222 -10l127 717q8 38 8 62q0 50 -30 50q-45 0 -115 -213h-47z" />
<glyph unicode="s" horiz-adv-x="1013" d="M-4 152q0 74 46 108.5t120 34.5q61 0 110.5 -33t49.5 -90q0 -55 -18.5 -83t-18.5 -34q0 -41 116 -41q123 0 123 115q0 37 -44 80t-109.5 87t-130 95t-108.5 122t-44 151q0 123 117 223t366 100q49 0 105.5 -8t122 -26.5t107.5 -55.5t42 -90q0 -70 -50 -100.5t-126 -30.5 q-61 0 -106 36t-45 95q0 27 20.5 56.5t20.5 37.5q0 16 -30 28.5t-73 12.5q-45 0 -85 -23.5t-40 -72.5q0 -39 46 -81t111.5 -84t131 -93t113 -129t47.5 -168q0 -129 -122 -225.5t-384 -96.5q-57 0 -111.5 6.5t-121 23.5t-107.5 57.5t-41 95.5z" />
<glyph unicode="t" horiz-adv-x="899" d="M76 901l10 57q332 41 627 342h49l-60 -342h170l-10 -57h-170l-108 -627q-5 -33 -6 -58q0 -89 67 -89q31 0 61.5 27.5t48 54.5t44 77t30.5 56h45q-70 -184 -177 -274.5t-300 -90.5q-188 0 -251 88q-47 66 -47 154q0 29 5 62l111 620h-139z" />
<glyph unicode="u" horiz-adv-x="1462" d="M-4 594q27 92 55.5 153.5t73.5 121t113.5 89t162.5 29.5q106 0 182 -68.5t76 -213.5q0 -100 -52 -278.5t-52 -246.5q0 -47 47 -47q31 0 63.5 36t49.5 73q100 193 172 727l106 -6q74 -4 109 -5q47 0 138 4.5l130 6.5q-82 -401 -125 -674q-12 -66 -12 -100q0 -11 1 -18 q5 -32 32 -32q14 0 27.5 11.5t37 60.5t53.5 139h48q-63 -217 -156.5 -302t-220.5 -85q-249 0 -249 290q0 34 3 73l-4 4q-88 -201 -178 -284t-244 -83q-123 0 -201 78t-78 203q0 78 31 217t70 250q14 41 14 66q0 41 -37 40q-72 0 -137 -229h-49z" />
<glyph unicode="v" d="M29 594q57 184 169.5 288.5t258.5 104.5q119 0 196.5 -71.5t77.5 -190.5q0 -86 -57.5 -269.5t-57.5 -269.5q0 -55 44.5 -87.5t99.5 -32.5q94 0 180 63.5t140.5 153.5t87 178t32.5 143q0 37 -12 37q-6 0 -59.5 -28.5t-96.5 -28.5q-100 0 -145 60.5t-45 125.5 q0 96 58 156.5t153 60.5q106 0 166.5 -88t60.5 -211q0 -102 -59.5 -255.5t-118.5 -233.5q-174 -229 -518 -230q-123 0 -212 34t-130 86t-57.5 98t-16.5 89q0 141 54 299t54 201q0 18 -10 31.5t-28 13.5q-35 0 -79 -55t-81 -172h-49z" />
<glyph unicode="w" horiz-adv-x="1912" d="M27 590q45 182 144 289.5t232 107.5q127 0 198 -72.5t71 -203.5q0 -96 -53.5 -307t-53.5 -226q0 -45 41 -45q39 0 85 74t77 188q23 84 40 170t40.5 225.5l30.5 178.5q31 -2 100 -6q82 -4 127 -5q61 0 227 11q-119 -465 -119 -676q0 -203 150 -203q156 0 279.5 176 t123.5 342q0 49 -10 49q-6 0 -63.5 -35.5t-110.5 -35.5q-78 0 -127 55t-49 133q0 88 53 150.5t137 62.5q117 0 181.5 -87t64.5 -224q0 -82 -20.5 -170t-70.5 -185.5t-125 -174t-194.5 -127t-269.5 -50.5q-166 0 -262 66.5t-131 224.5h-4q-63 -143 -152.5 -217t-228.5 -74 q-123 0 -187.5 81t-64.5 208q0 145 100 461q12 40 13 64q0 40 -33 40q-61 0 -139 -233h-47z" />
<glyph unicode="x" horiz-adv-x="1462" d="M12 160q0 86 49.5 137t133.5 51q78 0 127 -49t57 -129q4 -29 24 -29q33 0 74 47.5t45 83.5l-137 445q-20 66 -35.5 84t-42.5 18q-39 0 -82 -60.5t-67 -117.5l-49 -4q45 133 153.5 241.5t237.5 108.5q154 0 232.5 -54t117.5 -190q88 137 172 190.5t174 53.5 q72 0 134.5 -52t62.5 -144q0 -72 -50.5 -125.5t-150.5 -53.5q-76 0 -118 52.5t-42 91.5q0 53 -28 53q-25 0 -49.5 -19.5t-82.5 -91.5l146 -456q37 -113 82 -113q66 0 143 182l53 4q-76 -176 -170 -261t-266 -85q-250 0 -309 234q-137 -233 -344 -234q-84 0 -139.5 52.5 t-55.5 138.5z" />
<glyph unicode="y" d="M-10 594q25 84 53.5 146.5t72.5 122t110.5 92t150.5 32.5q129 0 205.5 -65.5t76.5 -192.5q0 -63 -12 -136t-38.5 -182.5l-37.5 -156.5q-8 -37 3.5 -61.5t31.5 -24.5q53 0 102.5 104.5t71.5 227.5l88 469l107 -6q78 -4 121 -5q25 0 247 11q-39 -168 -99 -504t-68 -373 q-25 -127 -67 -216t-121 -163.5t-209 -112.5t-312 -38q-430 0 -430 202q0 90 68.5 129t166.5 39q68 0 125.5 -41t57.5 -106q0 -49 -34 -87t-34 -48q0 -39 78 -39q43 0 75.5 17.5t73.5 76.5t76 196.5t68 354.5l-4 4q-90 -137 -168 -198.5t-211 -61.5q-115 0 -189.5 70.5 t-74.5 210.5q0 88 52 286.5t52 204.5q0 29 -6 43t-31 14q-31 0 -61.5 -47t-81.5 -188h-45z" />
<glyph unicode="z" horiz-adv-x="1236" d="M23 8q0 39 57 88l708 582l-4 4q-139 -78 -276 -78q-66 0 -153 34t-111 34q-41 0 -64.5 -23.5t-46.5 -70.5l-53 -7q31 150 145.5 283t259.5 133q106 0 189.5 -37t147 -73.5t120.5 -36.5q86 0 94 96q2 68 66 68q55 0 55 -39q0 -33 -20.5 -57.5t-81.5 -78.5l-699 -573l4 -4 q14 8 61.5 32.5t65.5 32.5l56 24q37 15 70.5 20.5t72.5 5.5q49 0 137 -29t133 -29q43 0 62.5 22.5t36.5 71.5h55q-66 -233 -168 -333.5t-266 -100.5q-160 0 -305 88q-8 4 -36 21.5l-39 24t-34.5 13.5t-46.5 7q-39 0 -54.5 -26.5t-15.5 -58.5t-16 -58.5t-51 -26.5 q-25 0 -40 15t-15 40z" />
<glyph unicode="{" horiz-adv-x="962" d="M6 500v4q96 23 136 76t59 163l63 363q37 215 142.5 272.5t455.5 57.5v-4q-90 -25 -133 -81.5t-61 -162.5l-68 -383q-27 -147 -72 -212t-147 -89v-4q94 -23 115.5 -88.5t3.5 -186.5l-72 -415q-18 -111 4.5 -164.5t104.5 -81.5l-2 -6q-127 0 -208 4t-143.5 16t-92.5 30.5 t-45 54.5t-14 78t13 112l70 405q18 106 -4.5 162.5t-104.5 79.5z" />
<glyph unicode="|" horiz-adv-x="448" d="M102 -508v2028h244v-2028h-244z" />
<glyph unicode="}" horiz-adv-x="962" d="M6 -438q90 25 133 81t62 162l67 379q27 147 72 212t147 91v5q-94 20 -119.5 91.5t1.5 184.5l71 416q18 111 -4 164t-106 82l2 6q129 0 210 -4.5t142 -16.5t92 -30.5t46.5 -54.5t14.5 -78t-14 -111l-71 -410q-18 -106 5 -162.5t105 -76.5v-5q-96 -25 -136 -78t-58 -159 l-64 -361q-37 -217 -143.5 -274t-454.5 -57v4z" />
<glyph unicode="~" horiz-adv-x="1216" d="M119 518q92 176 254 176q80 0 225 -65l44 -20l47 -20l40 -17q23 -9 41 -13t35 -4q39 0 73.5 24.5t54 50t50.5 72.5l74 -194q-41 -55 -67.5 -86t-77 -60.5t-109.5 -29.5q-86 0 -207 67q-125 72 -234 72q-102 0 -169 -147z" />
<glyph unicode="&#xa1;" horiz-adv-x="1013" d="M76 -164q0 78 31.5 149.5t80.5 127.5l101 109q51 54 96 121t61 138l62 -10q-4 -131 71.5 -334t75.5 -276q0 -133 -73.5 -218t-204.5 -85q-133 0 -217 71.5t-84 206.5zM244 774q0 113 79.5 179.5t213.5 66.5q117 0 203.5 -58.5t86.5 -168.5q0 -121 -88 -181.5t-217 -60.5 q-113 0 -195.5 63.5t-82.5 159.5z" />
<glyph unicode="&#xa2;" d="M109 389q0 184 109.5 325.5t266 207t322.5 65.5q16 0 53 -2t53 -2l99 234h96l-104 -252q227 -63 227 -258q0 -92 -64.5 -145.5t-156.5 -53.5q-113 0 -172 82l-195 -475q37 -63 137 -64q154 0 353 148l32 -35q-254 -225 -579 -207l-92 -229h-105l105 241 q-170 35 -277.5 145.5t-107.5 274.5zM604 205h4l193 467q-4 33 -4 45q0 55 25.5 88t50 50t24.5 36q0 47 -82 47q-51 0 -77.5 -33t-55.5 -141q-43 -154 -64.5 -327t-13.5 -232z" />
<glyph unicode="&#xa3;" d="M20 651l15 92h252q-35 113 -17 277q18 160 160.5 288t398.5 128q197 0 330 -87t133 -235q0 -92 -55 -153.5t-145 -61.5t-144.5 50t-54.5 141q0 61 26.5 102t59.5 54.5t60.5 26.5t27.5 30q0 63 -127 63q-96 0 -146.5 -87t-50.5 -192q0 -236 -8 -344h307l-12 -92h-313 q-18 -98 -65.5 -179t-84.5 -124t-37 -51q0 -20 21 -21q4 0 31.5 12.5t85 25t133.5 12.5q51 0 151.5 -20.5t116.5 -20.5q96 0 133 98l55 6q-8 -197 -126.5 -308.5t-319.5 -111.5q-88 0 -185.5 38t-162 76t-72.5 38q-4 0 -22.5 -38t-62.5 -78t-109 -40q-70 0 -122 41t-52 105 q0 92 49 144t139 52q49 0 89 -13t42 -13q18 0 18 88q0 109 -45 282h-295z" />
<glyph unicode="&#xa4;" d="M129 295l166 164q-70 84 -70 246q0 166 74 243l-168 166l135 137l164 -166q37 29 106.5 49.5t143.5 20.5q160 0 242 -70l163 166l136 -137l-164 -164q33 -31 52 -100.5t19 -144.5q0 -162 -67 -250l162 -164l-133 -135l-166 163q-84 -68 -244 -67q-172 0 -252 70 l-164 -162zM453 703.5q0 -101.5 65.5 -168t158.5 -66.5t159.5 66.5t66.5 168t-66.5 168t-159.5 66.5t-158.5 -66.5t-65.5 -168z" />
<glyph unicode="&#xa5;" d="M-74 1346l11 59h761l-10 -59h-149l286 -687l226 400q104 193 102 217q-2 39 -31.5 53t-128.5 17l11 59h368l-10 -59q-78 -10 -123 -91l-319 -563h387l-15 -78h-413l-9 -14l-26 -156h422l-15 -77h-420l-53 -308h195l-10 -59h-813l10 59h170l55 308h-430l14 77h428l21 121 l-21 49h-401l14 78h355l-281 654h-158z" />
<glyph unicode="&#xa6;" horiz-adv-x="448" d="M102 354h244v-708h-244v708zM102 659v709h244v-709h-244z" />
<glyph unicode="&#xa7;" horiz-adv-x="1236" d="M41 -150q0 55 32.5 98.5t90.5 43.5q61 0 100 -31t39 -88q0 -55 -46 -98t-46 -64q0 -31 69.5 -60.5t149.5 -29.5q256 0 256 109q0 37 -44 89t-108.5 104t-140.5 120t-140.5 134.5t-107.5 149.5t-43 162q0 127 104.5 217.5t248.5 81.5l4 7q-176 172 -176 311 q0 125 112.5 227.5t347.5 102.5q209 0 324 -75t115 -194q0 -68 -42 -108.5t-112 -40.5q-51 0 -83 36t-32 85q0 37 13.5 59.5t30 30.5t29.5 24.5t13 38.5q0 92 -221 92q-111 0 -164 -33.5t-53 -86.5q0 -37 60.5 -99.5t145.5 -135.5l170 -151q85 -79 144.5 -172.5t59.5 -175.5 q0 -133 -105.5 -223t-249.5 -94l-6 -10q63 -61 96 -97t64 -97.5t31 -119.5q0 -127 -121 -222t-361 -95q-76 0 -146.5 12.5t-143 41t-115.5 85.5t-43 139zM350 647q0 -43 82 -133t192.5 -165t178.5 -75q80 0 80 78q0 10 -4.5 23.5t-12.5 26.5l-16 26q-8 12 -23 28l-24 26 q-10 11 -25.5 24.5t-24 22t-23.5 21.5t-17 15q-4 2 -21.5 19.5t-28 27t-32 26.5l-35.5 27.5t-36.5 23.5t-40 20.5t-38 12.5t-39.5 5q-37 0 -64.5 -20.5t-27.5 -59.5z" />
<glyph unicode="&#xa8;" horiz-adv-x="673" d="M72 1277q0 69 46 115t115 46q68 0 114 -47.5t46 -112.5q0 -70 -45 -117t-115 -47q-72 0 -116.5 47t-44.5 116zM516 1278q0 66 46 113t116 47q66 0 114 -47.5t48 -112.5q0 -70 -47.5 -117t-116 -47t-114.5 47t-46 117z" />
<glyph unicode="&#xa9;" horiz-adv-x="1622" d="M33 700q0 315 219 525.5t559 210.5t559 -210t219 -526q0 -315 -219 -523t-559 -208t-559 208t-219 523zM250 709q0 -250 158.5 -419t402.5 -169q242 0 401.5 165t159.5 404q0 252 -158.5 423t-402.5 171q-242 0 -401.5 -167.5t-159.5 -407.5zM389 727q0 74 22.5 140.5 t73 133t151.5 104.5t243 38q31 0 55 -2t48 -8.5l38 -10.5t37.5 -12t32.5 -10q45 -14 45 -45v-158h-48q-70 176 -213 176q-100 0 -149 -87t-51 -236q-2 -178 42 -278.5t163 -100.5q74 0 137 52t104 140h49l-30 -170q-4 -25 -62 -45q-131 -47 -237 -47q-215 0 -333 111.5 t-118 314.5z" />
<glyph unicode="&#xaa;" horiz-adv-x="876" d="M57 1094q0 135 99.5 238.5t230.5 103.5q78 0 123 -29t65 -94h5l20 114q10 0 30.5 -3l33.5 -5q45 -4 69 -4q45 0 164 12l-82 -401q-8 -43 -10 -67.5t4 -34t20 -9.5q12 0 24.5 10.5t24 31t18.5 36t15.5 38t8.5 24.5h30q-43 -137 -105.5 -183.5t-156.5 -46.5 q-82 0 -125 46.5t-39 119.5l-4 4q-31 -170 -213 -170q-121 0 -185.5 76t-64.5 193zM381 1012q0 -90 49 -90q33 0 49.5 28.5t36.5 116.5q29 121 29 200t-37 79q-33 0 -46 -13.5t-34 -62.5q-18 -53 -32.5 -139t-14.5 -119z" />
<glyph unicode="&#xab;" horiz-adv-x="1126" d="M86 467l279 334h247l-290 -348l200 -306h-231zM500 467l278 334h248l-291 -348l201 -306h-231z" />
<glyph unicode="&#xac;" horiz-adv-x="1216" d="M78 608v244h1022v-633h-244v389h-778z" />
<glyph unicode="&#xad;" horiz-adv-x="673" d="M12 272l74 404h545l-74 -404h-545z" />
<glyph unicode="&#xae;" horiz-adv-x="1622" d="M33 700q0 315 219 525.5t559 210.5t559 -210t219 -526q0 -315 -219 -523t-559 -208t-559 208t-219 523zM250 709q0 -250 158.5 -419t402.5 -169q242 0 401.5 165t159.5 404q0 252 -158.5 423t-402.5 171q-242 0 -401.5 -167.5t-159.5 -407.5zM465 328v43q43 2 58.5 18.5 t15.5 59.5v544q0 72 -74 78v43h440q100 0 161.5 -53t61.5 -156q0 -68 -43 -126t-122 -79l118 -176l117 -166v-30h-205q-27 0 -58.5 56t-74.5 151.5t-67 136.5h-41v-223q0 -33 3 -45.5t21.5 -21.5t61.5 -11v-43h-373zM752 725h41q102 0 102 174q0 160 -86 160h-57v-334z" />
<glyph unicode="&#xaf;" horiz-adv-x="673" d="M72 1190l47 172h704l-49 -172h-702z" />
<glyph unicode="&#xb0;" horiz-adv-x="911" d="M76 1084.5q0 148.5 101.5 250t246.5 101.5q147 0 248.5 -101.5t101.5 -250t-101.5 -251t-248.5 -102.5q-145 0 -246.5 102.5t-101.5 251zM233 1084.5q0 -78.5 56.5 -138t134.5 -59.5t134 59.5t56 138t-55 138t-135 59.5q-78 0 -134.5 -59.5t-56.5 -138z" />
<glyph unicode="&#xb1;" horiz-adv-x="1216" d="M78 0v244h1022v-244h-1022zM78 553v244h389v229h242v-229h391v-244h-391v-229h-242v229h-389z" />
<glyph unicode="&#xb2;" horiz-adv-x="811" d="M8 555q0 82 36 150.5t88 114.5t113 94l113 88q53 40 89 96.5t36 122.5q0 72 -32.5 113.5t-90.5 41.5q-25 0 -57.5 -10t-32.5 -29q0 -10 27 -22t55.5 -35t28.5 -55q0 -57 -43 -87t-113 -30q-61 0 -99 37t-38 94q0 100 108.5 148.5t254.5 48.5q182 0 293.5 -62.5 t111.5 -179.5q0 -199 -326 -254q-121 -18 -235.5 -72.5t-149.5 -140.5l5 -4v6q96 88 286 88q57 0 148.5 -19.5t126.5 -19.5q53 0 69 25h43q-43 -248 -334 -248q-80 0 -198.5 28.5t-145.5 28.5q-59 0 -69 -57h-68z" />
<glyph unicode="&#xb3;" horiz-adv-x="811" d="M10 743q0 61 42 100.5t106 39.5q61 0 102 -29t41 -74q0 -51 -32.5 -76.5t-64.5 -33.5t-32 -19q0 -6 15.5 -15t43 -16.5t58.5 -7.5q74 0 131 86q43 90 43 217q0 90 -84 91q-6 0 -18.5 -1t-18.5 -1q-31 0 -31 43q0 18 27 18q6 0 21.5 -2t23.5 -2q23 0 63 12 q33 31 47.5 90.5t14.5 104.5q0 49 -32 77.5t-85 28.5q-90 0 -90 -28q0 -4 42 -32t42 -65q0 -57 -40 -88t-101 -31q-41 0 -70 15.5t-41 41t-16 44t-4 37.5q0 70 79.5 119t253.5 49q412 0 412 -207q0 -37 -14.5 -66.5t-44 -49t-59 -35t-72.5 -26t-70 -15.5t-70 -11v-4 q295 -39 295 -217q0 -43 -20.5 -82t-67.5 -80t-145 -64.5t-240 -23.5q-190 0 -265 58t-75 130z" />
<glyph unicode="&#xb4;" horiz-adv-x="673" d="M264 1110l238 281q59 70 96 86q33 16 72 16q47 0 81.5 -31.5t34.5 -81.5q0 -63 -86 -110l-303 -160h-133z" />
<glyph unicode="&#xb5;" horiz-adv-x="1462" d="M6 594q27 92 55.5 152.5t73.5 120t113.5 89t163.5 29.5q106 0 182 -67.5t76 -212.5q0 -100 -52.5 -278.5t-52.5 -246.5q0 -47 47 -47q31 0 64 36t49 73q100 193 172 727l110.5 -6.5t115.5 -4.5t123 4.5t134 6.5q-82 -401 -125 -674q-16 -86 -11 -118t32 -32 q14 0 27.5 11.5t37 60.5t54.5 139h47q-63 -217 -156.5 -302t-220.5 -85q-279 0 -246 363l-4 4q-47 -104 -81 -163.5t-87 -114t-123.5 -75t-171.5 -12.5q2 -33 21.5 -59.5t41 -45t39 -59t17.5 -96.5q0 -59 -60.5 -106t-142.5 -47q-106 0 -162.5 74.5t-56.5 201.5 q0 119 47 382t119 501q31 106 -22 106q-72 0 -138 -229h-49z" />
<glyph unicode="&#xb6;" horiz-adv-x="1255" d="M76 -342l10 57h143l148 856q-133 8 -192.5 97.5t-59.5 220.5q0 244 126 380t361 136h719l-10 -59h-143l-281 -1631h143l-10 -57h-954zM504 -285h137l281 1631h-138z" />
<glyph unicode="&#xb7;" horiz-adv-x="673" d="M47 496q0 121 88 180t215 59q115 0 198 -62.5t83 -160.5q0 -111 -80 -177.5t-215 -66.5q-113 0 -201 58.5t-88 169.5z" />
<glyph unicode="&#xb8;" horiz-adv-x="673" d="M-43 -387l45 72q68 -39 148 -39q106 0 106 78q0 51 -54.5 63t-92.5 -6l-37 39l139 180h102l-100 -121l4 -4q31 8 78 8q78 0 130 -40t52 -126q0 -76 -94 -122t-188 -46q-138 1 -238 64z" />
<glyph unicode="&#xb9;" horiz-adv-x="811" d="M49 575l6 52h150l149 741h-137l6 51q184 0 496 17l-156 -809h154l-6 -52h-662z" />
<glyph unicode="&#xba;" horiz-adv-x="811" d="M47 1096q0 141 126 240.5t327 99.5q131 0 239.5 -70t108.5 -201q0 -154 -129 -247t-320 -93q-174 0 -263 83.5t-89 187.5zM350 922q0 -59 45 -60q31 0 48.5 29t35.5 117q8 41 26.5 123.5t27 131t8.5 83.5q0 53 -41 53q-49 0 -70 -76q-80 -305 -80 -401z" />
<glyph unicode="&#xbb;" horiz-adv-x="1126" d="M33 147l289 351l-201 303h233l205 -318l-278 -336h-248zM446 147l289 351l-200 303h233l205 -318l-279 -336h-248z" />
<glyph unicode="&#xbc;" horiz-adv-x="2027" d="M119 575l6 52h151l150 741h-137l6 51q184 0 496 17l-156 -809h153l-6 -52h-663zM541 -31l905 1467h121l-903 -1467h-123zM979 225l10 43l567 594h259l-113 -586h131l-8 -51h-131l-37 -174h145l-8 -51h-641l8 51h158l33 174h-373zM1061 276h299l80 400l-6 2l-373 -397v-5z " />
<glyph unicode="&#xbd;" horiz-adv-x="2027" d="M80 575l6 52h150l149 741h-137l6 51q184 0 496 17l-156 -809h154l-7 -52h-661zM481 -31l903 1467h123l-905 -1467h-121zM1094 -31q0 82 34.5 150.5t88.5 114.5l113 95l114 88q53 40 88 96t35 122q0 72 -32 114t-89 42q-25 0 -58.5 -10.5t-33.5 -28.5q0 -10 28.5 -23.5 t56 -34t27.5 -55.5q0 -57 -44 -88t-111 -31q-61 0 -100.5 38t-39.5 95q0 100 110 148.5t253 48.5q184 0 294.5 -63.5t110.5 -178.5q0 -199 -323 -254q-117 -18 -230.5 -71.5t-150.5 -132.5l4 -3q96 84 281 84q57 0 148 -19t128 -19q53 0 70 24h43q-43 -248 -336 -248 q-78 0 -197 29t-145 29q-61 0 -72 -58h-65z" />
<glyph unicode="&#xbe;" horiz-adv-x="2027" d="M94 743q0 61 41 100.5t107 39.5q61 0 101 -29t40 -74q0 -51 -32 -76.5t-63.5 -33.5t-31.5 -19q0 -6 15.5 -15t42 -16.5t57.5 -7.5q76 0 133 86q41 90 41 228q0 90 -82 90q-6 0 -18.5 -1t-18.5 -1q-31 0 -31 22q0 18 27 19q6 0 21.5 -2t23.5 -2q35 0 61 22 q33 31 48.5 90.5t15.5 104.5q0 49 -33 77.5t-84 28.5q-92 0 -92 -28q0 -4 43 -32t43 -65q0 -57 -40 -88t-103 -31q-39 0 -68 15.5t-41 41t-16 44t-4 37.5q0 70 78.5 119t252.5 49q412 0 412 -207q0 -37 -13.5 -66.5t-43 -49t-59 -35t-72.5 -26t-70 -15.5t-70 -11v-4 q295 -39 295 -217q0 -43 -20.5 -82t-68.5 -80t-146.5 -64.5t-237.5 -23.5q-190 0 -265 58t-75 130zM582 -31l905 1467h121l-903 -1467h-123zM1030 225l10 43l568 594h258l-115 -586h133l-8 -51h-133l-35 -174h145l-8 -51h-641l8 51h158l33 174h-373zM1112 276h299l80 400 l-6 2l-373 -397v-5z" />
<glyph unicode="&#xbf;" d="M66 -66q0 33 7 63t15 53.5t29.5 46l34 36.5t45 32.5t46 27t53.5 24.5l50 21q10 4 56 19l53 17q66 23 104.5 42.5t74.5 63.5t44 105l67 -10q-10 -109 -43.5 -194.5t-70.5 -132t-65.5 -114t-28.5 -145.5q0 -127 70.5 -192.5t178.5 -65.5q80 0 80 33q0 12 -32.5 23.5 l-70.5 26t-69.5 62.5t-31.5 124q0 92 70.5 149t172.5 57q109 0 178.5 -67.5t69.5 -175.5q0 -123 -115.5 -214t-341.5 -91q-260 0 -445 99t-185 277zM475 774q0 113 80 179.5t213 66.5q117 0 204 -58.5t87 -168.5q0 -121 -88 -181.5t-217 -60.5q-113 0 -196 63.5t-83 159.5z " />
<glyph unicode="&#xc0;" horiz-adv-x="1576" d="M-119 0l10 55q49 -2 89 38t83 126l590 1186h469l199 -1346h121l-10 -59h-859l9 59h145l-53 392h-420q-92 -186 -114.5 -237.5t-22.5 -84.5t25.5 -50.5t45 -19.5t62.5 -4l-10 -55h-359zM283 508h383l-86 600h-5zM616 1757q0 49 35 81t74 32q92 0 164 -103l201 -280h-129 l-259 160q-86 55 -86 110z" />
<glyph unicode="&#xc1;" horiz-adv-x="1576" d="M-119 0l10 55q49 -2 89 38t83 126l590 1186h469l199 -1346h121l-10 -59h-859l9 59h145l-53 392h-420q-92 -186 -114.5 -237.5t-22.5 -84.5t25.5 -50.5t45 -19.5t62.5 -4l-10 -55h-359zM283 508h383l-86 600h-5zM715 1487l237 280q61 70 99 86q33 16 69 17q49 0 84 -32 t35 -81q0 -63 -88 -110l-301 -160h-135z" />
<glyph unicode="&#xc2;" horiz-adv-x="1576" d="M-119 0l10 55q49 -2 89 38t83 126l590 1186h469l199 -1346h121l-10 -59h-859l9 59h145l-53 392h-420q-92 -186 -114.5 -237.5t-22.5 -84.5t25.5 -50.5t45 -19.5t62.5 -4l-10 -55h-359zM283 508h383l-86 600h-5zM512 1487l317 356h244l168 -356h-129l-199 176l-245 -176 h-156z" />
<glyph unicode="&#xc3;" horiz-adv-x="1576" d="M-119 0l10 55q49 -2 89 38t83 126l590 1186h469l199 -1346h121l-10 -59h-859l9 59h145l-53 392h-420q-92 -186 -114.5 -237.5t-22.5 -84.5t25.5 -50.5t45 -19.5t62.5 -4l-10 -55h-359zM283 508h383l-86 600h-5zM508 1526q12 111 89 190.5t181 79.5q57 0 164 -40t148 -40 q55 0 94 72v2q2 2 2 4h110q-33 -115 -98 -193.5t-162 -78.5q-82 0 -189.5 42t-137.5 42q-72 0 -103 -80h-98z" />
<glyph unicode="&#xc4;" horiz-adv-x="1576" d="M-119 0l10 55q49 -2 89 38t83 126l590 1186h469l199 -1346h121l-10 -59h-859l9 59h145l-53 392h-420q-92 -186 -114.5 -237.5t-22.5 -84.5t25.5 -50.5t45 -19.5t62.5 -4l-10 -55h-359zM283 508h383l-86 600h-5zM522 1654.5q0 69.5 47 115t117 45.5q66 0 113 -46.5 t47 -113.5q0 -70 -46 -116t-115 -46t-116 46t-47 115.5zM969 1655q0 68 46 114t113 46q68 0 116 -46.5t48 -113.5q0 -70 -47 -116t-115.5 -46t-114.5 46t-46 116z" />
<glyph unicode="&#xc5;" horiz-adv-x="1576" d="M-119 0l10 55q49 -2 89 38t83 126l590 1186h469l199 -1346h121l-10 -59h-859l9 59h145l-53 392h-420q-92 -186 -114.5 -237.5t-22.5 -84.5t25.5 -50.5t45 -19.5t62.5 -4l-10 -55h-359zM283 508h383l-86 600h-5zM649 1696q0 92 66.5 159.5t160 67.5t161 -67.5t67.5 -159.5 q0 -96 -67.5 -163t-159.5 -67q-96 0 -162 67t-66 163zM770 1696q0 -45 30.5 -77t76.5 -32q41 0 72.5 32t31.5 77q0 41 -31.5 72.5t-72.5 31.5q-45 0 -76 -31.5t-31 -72.5z" />
<glyph unicode="&#xc6;" horiz-adv-x="1912" d="M-100 0l10 59q45 2 70.5 24.5t58.5 82.5l561 1022q37 70 5 114t-107 44h-62l10 59h1393l-45 -510h-59q-12 440 -353 451l-108 -580q113 8 167 63.5t89 171.5h63l-104 -583h-57q12 141 -23 206.5t-141 86.5l-121 -652q211 4 325.5 96.5t241.5 364.5h55l-98 -520h-1237 l10 59h138l90 490h-314q-29 0 -45 -29l-155 -287q-37 -70 -37 -104q0 -43 46 -59.5t97 -14.5l-10 -55h-354zM362 608h322l125 721h-49z" />
<glyph unicode="&#xc7;" horiz-adv-x="1576" d="M84 586q0 229 114.5 425.5t312.5 310.5t423 114q102 0 188 -31t133.5 -60.5t55.5 -29.5q12 0 184 121h64l-72 -564h-53q-33 211 -128.5 336t-224.5 125q-117 0 -173 -53t-103 -221q-31 -117 -67 -316.5t-36 -353.5q0 -156 64.5 -227.5t210.5 -71.5q211 0 407 340l66 -29 q-121 -229 -280.5 -330.5t-413.5 -101.5q-8 0 -15 2l-75 -92l4 -4q31 8 75 8q80 0 131.5 -40t51.5 -126q0 -76 -94.5 -122t-186.5 -46q-139 0 -237 64l45 72q66 -39 147 -39q106 0 107 78q0 51 -54.5 63t-93.5 -6l-39 39l125 157q-246 33 -404.5 195t-158.5 414z" />
<glyph unicode="&#xc8;" horiz-adv-x="1576" d="M0 0l10 59h76l227 1287h-145l10 59h1338l-43 -512h-66q-14 242 -129 347.5t-356 105.5l-101 -576q121 0 189.5 54.5t105.5 174.5h68l-101 -583h-65q8 135 -35 201.5t-172 91.5l-115 -650h54q57 0 108 5.5t95 21.5t79 26.5t70 40t56.5 46t52 58.5t44 57.5t40.5 67.5l36 69 q8 16 39 71h64l-99 -522h-1335zM616 1757q0 49 35 81t74 32q92 0 164 -103l201 -280h-129l-259 160q-86 55 -86 110z" />
<glyph unicode="&#xc9;" horiz-adv-x="1576" d="M0 0l10 59h76l227 1287h-145l10 59h1338l-43 -512h-66q-14 242 -129 347.5t-356 105.5l-101 -576q121 0 189.5 54.5t105.5 174.5h68l-101 -583h-65q8 135 -35 201.5t-172 91.5l-115 -650h54q57 0 108 5.5t95 21.5t79 26.5t70 40t56.5 46t52 58.5t44 57.5t40.5 67.5l36 69 q8 16 39 71h64l-99 -522h-1335zM715 1487l237 280q61 70 99 86q33 16 69 17q49 0 84 -32t35 -81q0 -63 -88 -110l-301 -160h-135z" />
<glyph unicode="&#xca;" horiz-adv-x="1576" d="M0 0l10 59h76l227 1287h-145l10 59h1338l-43 -512h-66q-14 242 -129 347.5t-356 105.5l-101 -576q121 0 189.5 54.5t105.5 174.5h68l-101 -583h-65q8 135 -35 201.5t-172 91.5l-115 -650h54q57 0 108 5.5t95 21.5t79 26.5t70 40t56.5 46t52 58.5t44 57.5t40.5 67.5l36 69 q8 16 39 71h64l-99 -522h-1335zM512 1487l317 356h244l168 -356h-129l-199 176l-245 -176h-156z" />
<glyph unicode="&#xcb;" horiz-adv-x="1576" d="M0 0l10 59h76l227 1287h-145l10 59h1338l-43 -512h-66q-14 242 -129 347.5t-356 105.5l-101 -576q121 0 189.5 54.5t105.5 174.5h68l-101 -583h-65q8 135 -35 201.5t-172 91.5l-115 -650h54q57 0 108 5.5t95 21.5t79 26.5t70 40t56.5 46t52 58.5t44 57.5t40.5 67.5l36 69 q8 16 39 71h64l-99 -522h-1335zM522 1654.5q0 69.5 47 115t117 45.5q66 0 113 -46.5t47 -113.5q0 -70 -46 -116t-115 -46t-116 46t-47 115.5zM969 1655q0 68 46 114t113 46q68 0 116 -46.5t48 -113.5q0 -70 -47 -116t-115.5 -46t-114.5 46t-46 116z" />
<glyph unicode="&#xcc;" horiz-adv-x="1013" d="M-6 0l10 59h80l225 1287h-145l10 59h830l-11 -59h-71l-230 -1287h152l-10 -59h-840zM334 1757q0 49 34.5 81t75.5 32q90 0 162 -103l201 -280h-127l-260 160q-86 55 -86 110z" />
<glyph unicode="&#xcd;" horiz-adv-x="1013" d="M-6 0l10 59h80l225 1287h-145l10 59h830l-11 -59h-71l-230 -1287h152l-10 -59h-840zM434 1487l238 280q59 70 96 86q33 16 72 17q49 0 82.5 -32t33.5 -81q0 -63 -86 -110l-303 -160h-133z" />
<glyph unicode="&#xce;" horiz-adv-x="1013" d="M-6 0l10 59h80l225 1287h-145l10 59h830l-11 -59h-71l-230 -1287h152l-10 -59h-840zM231 1487l316 356h244l167 -356h-129l-196 176l-248 -176h-154z" />
<glyph unicode="&#xcf;" horiz-adv-x="1013" d="M-6 0l10 59h80l225 1287h-145l10 59h830l-11 -59h-71l-230 -1287h152l-10 -59h-840zM242 1654.5q0 69.5 46 115t115 45.5q68 0 114 -46.5t46 -113.5q0 -70 -45 -116t-115 -46q-72 0 -116.5 46t-44.5 115.5zM688 1655q0 68 45 114t115 46q66 0 114 -46.5t48 -113.5 q0 -70 -47.5 -116t-116 -46t-113.5 46t-45 116z" />
<glyph unicode="&#xd0;" horiz-adv-x="1687" d="M-23 0l11 59h71l117 643h-137l10 58h139l111 586h-145l10 59h733q350 0 542.5 -150.5t192.5 -449.5q0 -111 -31.5 -221.5t-102.5 -216t-172 -186.5t-254.5 -131t-338.5 -50h-756zM653 59q104 2 146.5 20.5t70.5 88.5q66 166 129.5 540.5t63.5 493.5q0 143 -178 144 l-107 -586h119l-10 -58h-119z" />
<glyph unicode="&#xd1;" horiz-adv-x="1576" d="M-23 0l11 59q59 2 85.5 20.5t35.5 74.5l194 1073q-25 72 -66.5 98.5t-146.5 28.5l10 51h764l396 -836h4l116 619q20 104 -10.5 131t-128.5 27l10 59h326l-10 -59q-57 0 -79 -40t-44 -157l-217 -1149h-334l-533 1124h-4l-170 -929q-16 -86 19 -111t139 -25l-10 -59h-357z M508 1526q12 111 89 190.5t181 79.5q57 0 164 -40t148 -40q55 0 94 72v2q2 2 2 4h110q-33 -115 -98 -193.5t-162 -78.5q-82 0 -189.5 42t-137.5 42q-72 0 -103 -80h-98z" />
<glyph unicode="&#xd2;" horiz-adv-x="1687" d="M51 582q0 152 67.5 305t181.5 275t277.5 198t342.5 76q166 0 302 -53.5t221 -137.5t131 -186.5t46 -206.5q0 -229 -105.5 -428t-313.5 -327t-476 -128q-301 0 -487.5 177.5t-186.5 435.5zM635 164q0 -76 20.5 -108.5t73.5 -32.5q70 0 107.5 50t64.5 220l129 815 q10 92 13.5 147.5t-16 83t-40 35.5t-55.5 8q-39 0 -61.5 -16t-49 -89t-51.5 -202t-63 -377q-72 -438 -72 -534zM672 1757q0 49 33.5 81t74.5 32q92 0 162 -103l201 -280h-127l-260 160q-84 55 -84 110z" />
<glyph unicode="&#xd3;" horiz-adv-x="1687" d="M51 582q0 152 67.5 305t181.5 275t277.5 198t342.5 76q166 0 302 -53.5t221 -137.5t131 -186.5t46 -206.5q0 -229 -105.5 -428t-313.5 -327t-476 -128q-301 0 -487.5 177.5t-186.5 435.5zM635 164q0 -76 20.5 -108.5t73.5 -32.5q70 0 107.5 50t64.5 220l129 815 q10 92 13.5 147.5t-16 83t-40 35.5t-55.5 8q-39 0 -61.5 -16t-49 -89t-51.5 -202t-63 -377q-72 -438 -72 -534zM770 1487l238 280q61 70 98 86q31 16 70 17q49 0 83.5 -32t34.5 -81q0 -63 -88 -110l-301 -160h-135z" />
<glyph unicode="&#xd4;" horiz-adv-x="1687" d="M51 582q0 152 67.5 305t181.5 275t277.5 198t342.5 76q166 0 302 -53.5t221 -137.5t131 -186.5t46 -206.5q0 -229 -105.5 -428t-313.5 -327t-476 -128q-301 0 -487.5 177.5t-186.5 435.5zM567 1487l318 356h241l170 -356h-131l-196 176l-248 -176h-154zM635 164 q0 -76 20.5 -108.5t73.5 -32.5q70 0 107.5 50t64.5 220l129 815q10 92 13.5 147.5t-16 83t-40 35.5t-55.5 8q-39 0 -61.5 -16t-49 -89t-51.5 -202t-63 -377q-72 -438 -72 -534z" />
<glyph unicode="&#xd5;" horiz-adv-x="1687" d="M51 582q0 152 67.5 305t181.5 275t277.5 198t342.5 76q166 0 302 -53.5t221 -137.5t131 -186.5t46 -206.5q0 -229 -105.5 -428t-313.5 -327t-476 -128q-301 0 -487.5 177.5t-186.5 435.5zM561 1526q14 111 90 190.5t183 79.5q57 0 163.5 -40t145.5 -40q57 0 96 72l2 2v4 h109q-31 -115 -96.5 -193.5t-161.5 -78.5q-82 0 -189.5 42t-138.5 42q-72 0 -102 -80h-101zM635 164q0 -76 20.5 -108.5t73.5 -32.5q70 0 107.5 50t64.5 220l129 815q10 92 13.5 147.5t-16 83t-40 35.5t-55.5 8q-39 0 -61.5 -16t-49 -89t-51.5 -202t-63 -377 q-72 -438 -72 -534z" />
<glyph unicode="&#xd6;" horiz-adv-x="1687" d="M51 582q0 152 67.5 305t181.5 275t277.5 198t342.5 76q166 0 302 -53.5t221 -137.5t131 -186.5t46 -206.5q0 -229 -105.5 -428t-313.5 -327t-476 -128q-301 0 -487.5 177.5t-186.5 435.5zM578 1654.5q0 69.5 47 115t114 45.5q68 0 115 -46.5t47 -113.5q0 -70 -46 -116 t-116 -46t-115.5 46t-45.5 115.5zM635 164q0 -76 20.5 -108.5t73.5 -32.5q70 0 107.5 50t64.5 220l129 815q10 92 13.5 147.5t-16 83t-40 35.5t-55.5 8q-39 0 -61.5 -16t-49 -89t-51.5 -202t-63 -377q-72 -438 -72 -534zM1024 1655q0 68 45 114t115 46q68 0 115 -46.5 t47 -113.5q0 -70 -46.5 -116t-116 -46t-114.5 46t-45 116z" />
<glyph unicode="&#xd7;" horiz-adv-x="1216" d="M119 201l313 311l-313 313l168 166l311 -311l313 311l166 -166l-315 -313l315 -311l-166 -166l-313 313l-311 -313z" />
<glyph unicode="&#xd8;" horiz-adv-x="1687" d="M51 582q0 152 67.5 305t181.5 275t277.5 198t342.5 76q166 0 294 -52l97 146h125l-125 -189q147 -82 228 -215t81 -274q0 -229 -105.5 -428t-313.5 -327t-476 -128q-158 0 -285 54l-98 -148h-123l127 193q-139 80 -217 216t-78 298zM635 164q0 -76 24.5 -108.5 t88.5 -32.5q47 0 80.5 45t56.5 161q88 479 110 633l-4 4l-342 -526q-14 -123 -14 -176zM688 590l4 -4l338 522q12 100 12 141q0 74 -25.5 103.5t-90.5 29.5q-23 0 -39.5 -11t-40 -55t-45 -126t-51 -232.5t-62.5 -367.5z" />
<glyph unicode="&#xd9;" horiz-adv-x="1576" d="M102 1346l9 59h944l-11 -59h-167l-179 -1049q-37 -217 187 -217q129 0 228 88t136 295l137 778q10 55 -24.5 83t-108.5 26l11 55h313l-10 -55q-55 -8 -77 -38t-32 -91l-139 -756q-29 -156 -81 -253t-139 -150.5t-193.5 -73t-266.5 -19.5q-166 0 -281.5 43t-170 113 t-71 146.5t-3.5 162.5l159 912h-170zM647 1757q0 49 34 81t75 32q92 0 162 -103l200 -280h-127l-260 160q-84 55 -84 110z" />
<glyph unicode="&#xda;" horiz-adv-x="1576" d="M102 1346l9 59h944l-11 -59h-167l-179 -1049q-37 -217 187 -217q129 0 228 88t136 295l137 778q10 55 -24.5 83t-108.5 26l11 55h313l-10 -55q-55 -8 -77 -38t-32 -91l-139 -756q-29 -156 -81 -253t-139 -150.5t-193.5 -73t-266.5 -19.5q-166 0 -281.5 43t-170 113 t-71 146.5t-3.5 162.5l159 912h-170zM776 1487l238 280q61 70 98 86q31 16 70 17q49 0 83.5 -32t34.5 -81q0 -63 -88 -110l-301 -160h-135z" />
<glyph unicode="&#xdb;" horiz-adv-x="1576" d="M102 1346l9 59h944l-11 -59h-167l-179 -1049q-37 -217 187 -217q129 0 228 88t136 295l137 778q10 55 -24.5 83t-108.5 26l11 55h313l-10 -55q-55 -8 -77 -38t-32 -91l-139 -756q-29 -156 -81 -253t-139 -150.5t-193.5 -73t-266.5 -19.5q-166 0 -281.5 43t-170 113 t-71 146.5t-3.5 162.5l159 912h-170zM553 1487l317 356h244l168 -356h-131l-197 176l-245 -176h-156z" />
<glyph unicode="&#xdc;" horiz-adv-x="1576" d="M102 1346l9 59h944l-11 -59h-167l-179 -1049q-37 -217 187 -217q129 0 228 88t136 295l137 778q10 55 -24.5 83t-108.5 26l11 55h313l-10 -55q-55 -8 -77 -38t-32 -91l-139 -756q-29 -156 -81 -253t-139 -150.5t-193.5 -73t-266.5 -19.5q-166 0 -281.5 43t-170 113 t-71 146.5t-3.5 162.5l159 912h-170zM584 1654.5q0 69.5 47 115t114 45.5q68 0 115 -46.5t47 -113.5q0 -70 -46 -116t-114.5 -46t-115.5 46t-47 115.5zM1030 1655q0 68 45 114t115 46q68 0 115 -46.5t47 -113.5q0 -70 -46 -116t-116 -46t-115 46t-45 116z" />
<glyph unicode="&#xdd;" horiz-adv-x="1576" d="M55 1346l11 59h880l-10 -59h-148l287 -687l225 400q104 193 103 217q-2 39 -33 53t-127 17l10 59h369l-10 -59q-80 -10 -123 -91l-371 -655l-90 -541h195l-11 -59h-974l10 59h170l88 506l-336 781h-115zM797 1487l237 280q61 70 96 86q33 16 72 17q49 0 83 -32t34 -81 q0 -63 -86 -110l-303 -160h-133z" />
<glyph unicode="&#xde;" horiz-adv-x="1687" d="M-23 0l11 59h84l223 1287h-143l10 59h803l-11 -59h-61l-41 -234h113q342 0 500.5 -90t158.5 -299q0 -131 -99.5 -221t-244.5 -131q-154 -41 -567 -41l-45 -271h180l-10 -59h-861zM723 385q117 0 164 25.5t71 111.5q23 82 43.5 215t20.5 191q0 72 -22.5 98.5t-86.5 26.5 h-73z" />
<glyph unicode="&#xdf;" d="M14 -10l174 971q86 475 586 475q289 0 426 -94.5t137 -239.5q0 -109 -67.5 -184.5t-158.5 -109.5t-196 -40v-4q367 -80 367 -371q0 -180 -128 -302t-310 -122q-96 0 -157.5 29t-121.5 98l41 43q25 -33 64 -33q51 0 67 87l33 164l28 140q7 36 13 88t6 95q0 49 -19.5 63.5 t-72.5 16.5q-18 0 -18 24.5t22 24.5h43q25 0 37 10t20 43q23 82 50.5 222.5t27.5 209.5q0 45 -21.5 64.5t-72.5 19.5q-45 0 -70.5 -32.5t-44.5 -151.5l-209 -1204q-35 2 -119.5 6t-133.5 4q-29 0 -222 -10z" />
<glyph unicode="&#xe0;" horiz-adv-x="1462" d="M27 418q0 225 151.5 397t353.5 172q121 0 191 -47t100 -160h4l35 189l101 -6q74 -4 110 -5q20 0 244 11l-127 -666q-18 -106 -13 -144t35 -38q14 0 27.5 9t27 28.5t23.5 38t22 46.5l17 43l16 40q9 25 9 26h47q-70 -229 -165 -306t-241 -77q-125 0 -189.5 79t-60.5 204 l-4 4q-51 -287 -329 -287q-188 0 -286.5 127t-98.5 322zM524 264q0 -150 76 -149q49 0 74.5 51t58.5 207q43 199 43 350q0 133 -61 133q-47 0 -68.5 -24.5t-52.5 -120.5q-29 -88 -49.5 -234.5t-20.5 -212.5zM559 1380q0 49 35 81t76 32q90 0 161 -102l201 -281h-127 l-260 160q-86 53 -86 110z" />
<glyph unicode="&#xe1;" horiz-adv-x="1462" d="M27 418q0 225 151.5 397t353.5 172q121 0 191 -47t100 -160h4l35 189l101 -6q74 -4 110 -5q20 0 244 11l-127 -666q-18 -106 -13 -144t35 -38q14 0 27.5 9t27 28.5t23.5 38t22 46.5l17 43l16 40q9 25 9 26h47q-70 -229 -165 -306t-241 -77q-125 0 -189.5 79t-60.5 204 l-4 4q-51 -287 -329 -287q-188 0 -286.5 127t-98.5 322zM524 264q0 -150 76 -149q49 0 74.5 51t58.5 207q43 199 43 350q0 133 -61 133q-47 0 -68.5 -24.5t-52.5 -120.5q-29 -88 -49.5 -234.5t-20.5 -212.5zM659 1110l238 281q59 70 96 86q33 16 72 16q49 0 83 -31.5 t34 -81.5q0 -63 -86 -110l-303 -160h-134z" />
<glyph unicode="&#xe2;" horiz-adv-x="1462" d="M27 418q0 225 151.5 397t353.5 172q121 0 191 -47t100 -160h4l35 189l101 -6q74 -4 110 -5q20 0 244 11l-127 -666q-18 -106 -13 -144t35 -38q14 0 27.5 9t27 28.5t23.5 38t22 46.5l17 43l16 40q9 25 9 26h47q-70 -229 -165 -306t-241 -77q-125 0 -189.5 79t-60.5 204 l-4 4q-51 -287 -329 -287q-188 0 -286.5 127t-98.5 322zM457 1110l315 356h244l168 -356h-129l-197 176l-248 -176h-153zM524 264q0 -150 76 -149q49 0 74.5 51t58.5 207q43 199 43 350q0 133 -61 133q-47 0 -68.5 -24.5t-52.5 -120.5q-29 -88 -49.5 -234.5t-20.5 -212.5z " />
<glyph unicode="&#xe3;" horiz-adv-x="1462" d="M27 418q0 225 151.5 397t353.5 172q121 0 191 -47t100 -160h4l35 189l101 -6q74 -4 110 -5q20 0 244 11l-127 -666q-18 -106 -13 -144t35 -38q14 0 27.5 9t27 28.5t23.5 38t22 46.5l17 43l16 40q9 25 9 26h47q-70 -229 -165 -306t-241 -77q-125 0 -189.5 79t-60.5 204 l-4 4q-51 -287 -329 -287q-188 0 -286.5 127t-98.5 322zM451 1149q14 111 89.5 190.5t180.5 79.5q57 0 163.5 -41t147.5 -41q57 0 94 74v2q2 2 2 4h111q-33 -115 -97.5 -193.5t-162.5 -78.5q-80 0 -187.5 42t-138.5 42q-74 0 -104 -80h-98zM524 264q0 -150 76 -149 q49 0 74.5 51t58.5 207q43 199 43 350q0 133 -61 133q-47 0 -68.5 -24.5t-52.5 -120.5q-29 -88 -49.5 -234.5t-20.5 -212.5z" />
<glyph unicode="&#xe4;" horiz-adv-x="1462" d="M27 418q0 225 151.5 397t353.5 172q121 0 191 -47t100 -160h4l35 189l101 -6q74 -4 110 -5q20 0 244 11l-127 -666q-18 -106 -13 -144t35 -38q14 0 27.5 9t27 28.5t23.5 38t22 46.5l17 43l16 40q9 25 9 26h47q-70 -229 -165 -306t-241 -77q-125 0 -189.5 79t-60.5 204 l-4 4q-51 -287 -329 -287q-188 0 -286.5 127t-98.5 322zM467 1277q0 69 46 115t116 46q68 0 113.5 -47.5t45.5 -112.5q0 -70 -45 -117t-114.5 -47t-115.5 47t-46 116zM524 264q0 -150 76 -149q49 0 74.5 51t58.5 207q43 199 43 350q0 133 -61 133q-47 0 -68.5 -24.5 t-52.5 -120.5q-29 -88 -49.5 -234.5t-20.5 -212.5zM913 1278q0 66 45.5 113t114.5 47q66 0 114 -47.5t48 -112.5q0 -70 -47 -117t-115.5 -47t-114 47t-45.5 117z" />
<glyph unicode="&#xe5;" horiz-adv-x="1462" d="M27 418q0 225 151.5 397t353.5 172q121 0 191 -47t100 -160h4l35 189l101 -6q74 -4 110 -5q20 0 244 11l-127 -666q-18 -106 -13 -144t35 -38q14 0 27.5 9t27 28.5t23.5 38t22 46.5l17 43l16 40q9 25 9 26h47q-70 -229 -165 -306t-241 -77q-125 0 -189.5 79t-60.5 204 l-4 4q-51 -287 -329 -287q-188 0 -286.5 127t-98.5 322zM524 264q0 -150 76 -149q49 0 74.5 51t58.5 207q43 199 43 350q0 133 -61 133q-47 0 -68.5 -24.5t-52.5 -120.5q-29 -88 -49.5 -234.5t-20.5 -212.5zM592 1337q0 94 66.5 161t160.5 67t161 -66.5t67 -161.5 q0 -94 -67 -160.5t-161 -66.5q-96 0 -161.5 66.5t-65.5 160.5zM713 1337q0 -43 30.5 -74.5t75.5 -31.5q43 0 74 31.5t31 74.5t-31 75t-74 32q-45 0 -75.5 -32t-30.5 -75z" />
<glyph unicode="&#xe6;" horiz-adv-x="1912" d="M37 397q0 219 142.5 404.5t355.5 185.5q197 0 301 -166l32 164q111 -10 183 -10q84 0 172 10l-21 -111q94 63 172 91q78 23 193 22q137 0 224 -74.5t87 -158.5q0 -160 -147.5 -254t-452.5 -94h-102q-12 -57 -13 -146q0 -117 41 -161t156 -44q223 0 414 221h65 q-233 -307 -618 -307q-172 0 -276.5 50.5t-156.5 185.5q-57 -119 -144 -177.5t-220 -58.5q-190 0 -288.5 119t-98.5 309zM504 131q0 -51 14 -67.5t51 -16.5q63 0 101 111q37 121 74.5 324.5t37.5 289.5q0 106 -77 107q-41 0 -61.5 -34t-41.5 -114q-33 -125 -65.5 -328.5 t-32.5 -271.5zM1182 453q98 -2 140 17t60 75q49 147 50 278q0 82 -74 82q-47 0 -69.5 -39t-47.5 -147z" />
<glyph unicode="&#xe7;" horiz-adv-x="1236" d="M6 412q0 76 28.5 153.5t89 153.5t144.5 135t207 96t262 37q102 0 192.5 -22.5t162 -85t71.5 -160.5q0 -94 -67.5 -150.5t-165.5 -56.5q-86 0 -153.5 54.5t-67.5 142.5q0 49 15 82.5t35 48.5l36 26q16 12 16 21q0 55 -84 55q-23 0 -43 -11t-31.5 -23.5t-24 -39t-16.5 -39 t-12 -43.5q-82 -281 -82 -507q0 -217 184 -218q141 0 330 140l47 -25q-92 -92 -230 -147.5t-278 -59.5l-75 -90l4 -4q29 8 75 8q80 0 131.5 -40t51.5 -126q0 -76 -94.5 -122t-186.5 -46q-139 0 -237 64l45 72q66 -39 147 -39q104 0 105 78q0 51 -53.5 63t-92.5 -6l-39 39 l121 153q-117 10 -205 47t-135 83.5t-77.5 107.5t-40 107.5t-9.5 93.5z" />
<glyph unicode="&#xe8;" d="M18 401q0 229 222.5 407.5t552.5 178.5q100 0 196 -21.5t179 -87t83 -167.5q0 -141 -154.5 -225.5t-385.5 -84.5q-20 0 -181 7q-18 -74 -18 -134q0 -215 174 -215q287 0 471 213h64q-238 -303 -682 -303q-233 0 -377 112.5t-144 319.5zM504 1380q0 49 33.5 81t74.5 32 q92 0 162 -102l201 -281h-127l-260 160q-84 53 -84 110zM537 449q119 0 159 32q41 35 71 140.5t30 216.5q0 49 -18.5 69.5t-69.5 20.5q-37 0 -59.5 -31t-43.5 -100q-53 -182 -69 -348z" />
<glyph unicode="&#xe9;" d="M18 401q0 229 222.5 407.5t552.5 178.5q100 0 196 -21.5t179 -87t83 -167.5q0 -141 -154.5 -225.5t-385.5 -84.5q-20 0 -181 7q-18 -74 -18 -134q0 -215 174 -215q287 0 471 213h64q-238 -303 -682 -303q-233 0 -377 112.5t-144 319.5zM537 449q119 0 159 32 q41 35 71 140.5t30 216.5q0 49 -18.5 69.5t-69.5 20.5q-37 0 -59.5 -31t-43.5 -100q-53 -182 -69 -348zM602 1110l238 281q61 70 96 86q33 16 72 16q49 0 82.5 -31.5t33.5 -81.5q0 -63 -86 -110l-303 -160h-133z" />
<glyph unicode="&#xea;" d="M18 401q0 229 222.5 407.5t552.5 178.5q100 0 196 -21.5t179 -87t83 -167.5q0 -141 -154.5 -225.5t-385.5 -84.5q-20 0 -181 7q-18 -74 -18 -134q0 -215 174 -215q287 0 471 213h64q-238 -303 -682 -303q-233 0 -377 112.5t-144 319.5zM399 1110l316 356h243l168 -356 h-129l-196 176l-248 -176h-154zM537 449q119 0 159 32q41 35 71 140.5t30 216.5q0 49 -18.5 69.5t-69.5 20.5q-37 0 -59.5 -31t-43.5 -100q-53 -182 -69 -348z" />
<glyph unicode="&#xeb;" d="M18 401q0 229 222.5 407.5t552.5 178.5q100 0 196 -21.5t179 -87t83 -167.5q0 -141 -154.5 -225.5t-385.5 -84.5q-20 0 -181 7q-18 -74 -18 -134q0 -215 174 -215q287 0 471 213h64q-238 -303 -682 -303q-233 0 -377 112.5t-144 319.5zM410 1277q0 69 47 115t114 46 q68 0 114 -47.5t46 -112.5q0 -70 -45 -117t-113.5 -47t-115.5 47t-47 116zM537 449q119 0 159 32q41 35 71 140.5t30 216.5q0 49 -18.5 69.5t-69.5 20.5q-37 0 -59.5 -31t-43.5 -100q-53 -182 -69 -348zM856 1278q0 66 45 113t115 47q68 0 115 -47.5t47 -112.5 q0 -70 -46.5 -117t-116 -47t-114.5 47t-45 117z" />
<glyph unicode="&#xec;" horiz-adv-x="788" d="M-23 569q45 205 128 308.5t243 103.5q135 0 214 -83t79 -222q0 -100 -51 -283.5t-51 -204.5q0 -45 39 -45q20 0 38.5 18.5t35 50.5t27.5 59.5t21.5 61.5t14.5 42h49q-59 -233 -160.5 -315.5t-241.5 -82.5q-127 0 -195.5 70t-68.5 205q0 104 45 286.5t45 200.5 q0 70 -43 70q-37 0 -63.5 -59.5t-61.5 -180.5h-43zM221 1380q0 49 35 81t74 32q92 0 164 -102l200 -281h-129l-260 160q-84 53 -84 110z" />
<glyph unicode="&#xed;" horiz-adv-x="788" d="M-23 569q45 205 128 308.5t243 103.5q135 0 214 -83t79 -222q0 -100 -51 -283.5t-51 -204.5q0 -45 39 -45q20 0 38.5 18.5t35 50.5t27.5 59.5t21.5 61.5t14.5 42h49q-59 -233 -160.5 -315.5t-241.5 -82.5q-127 0 -195.5 70t-68.5 205q0 104 45 286.5t45 200.5 q0 70 -43 70q-37 0 -63.5 -59.5t-61.5 -180.5h-43zM319 1110l238 281q61 70 98 86q33 16 70 16q49 0 84 -31.5t35 -81.5q0 -63 -88 -110l-301 -160h-136z" />
<glyph unicode="&#xee;" horiz-adv-x="788" d="M-23 569q45 205 128 308.5t243 103.5q135 0 214 -83t79 -222q0 -100 -51 -283.5t-51 -204.5q0 -45 39 -45q20 0 38.5 18.5t35 50.5t27.5 59.5t21.5 61.5t14.5 42h49q-59 -233 -160.5 -315.5t-241.5 -82.5q-127 0 -195.5 70t-68.5 205q0 104 45 286.5t45 200.5 q0 70 -43 70q-37 0 -63.5 -59.5t-61.5 -180.5h-43zM117 1110l317 356h244l168 -356h-131l-197 176l-246 -176h-155z" />
<glyph unicode="&#xef;" horiz-adv-x="788" d="M-23 569q45 205 128 308.5t243 103.5q135 0 214 -83t79 -222q0 -100 -51 -283.5t-51 -204.5q0 -45 39 -45q20 0 38.5 18.5t35 50.5t27.5 59.5t21.5 61.5t14.5 42h49q-59 -233 -160.5 -315.5t-241.5 -82.5q-127 0 -195.5 70t-68.5 205q0 104 45 286.5t45 200.5 q0 70 -43 70q-37 0 -63.5 -59.5t-61.5 -180.5h-43zM127 1277q0 69 47 115t117 46q66 0 113 -47.5t47 -112.5q0 -70 -46.5 -117t-113.5 -47q-72 0 -118 47t-46 116zM573 1278q0 66 46.5 113t113.5 47q68 0 116 -47.5t48 -112.5q0 -70 -47 -117t-115.5 -47t-115 47t-46.5 117z " />
<glyph unicode="&#xf0;" d="M43 420q0 242 176 404.5t488 162.5q92 0 149 -35q-12 117 -57 205l-293 -86l-103 88l336 101q-47 68 -118 122l188 54q109 -25 203 -97l252 76l100 -90l-260 -76q170 -203 170 -540q0 -197 -54.5 -342.5t-150.5 -230.5t-217 -126t-266 -41q-139 0 -249 43t-172.5 110.5 t-92 143.5t-29.5 154zM520 115q0 -100 70 -101q47 0 74.5 48.5t52.5 195.5l44 216q30 146 42 223t12 134q0 96 -74 97q-35 0 -64.5 -42t-43.5 -112q-113 -507 -113 -659z" />
<glyph unicode="&#xf1;" horiz-adv-x="1462" d="M4 596q39 170 131 280.5t232 110.5q57 0 103 -17.5t86 -57.5t57.5 -118.5t4.5 -189.5h5q51 166 151 274.5t252 108.5q129 0 209 -75.5t80 -217.5q0 -117 -55.5 -305t-55.5 -221q0 -31 35 -31q29 0 57.5 50.5t83.5 183.5h47q-29 -82 -48 -129t-53 -104.5t-73 -87.5 t-100 -51.5t-141 -21.5q-98 0 -170 62.5t-72 200.5q0 117 49 303t49 217q0 33 -9 46t-32 13q-96 0 -204 -360l-82 -469q-49 2 -115 6q-82 4 -123 4q-14 0 -242 -10l123 674q27 147 -14 147q-53 0 -123 -215h-43zM451 1149q14 111 89.5 190.5t180.5 79.5q57 0 163.5 -41 t147.5 -41q57 0 94 74v2q2 2 2 4h111q-33 -115 -97.5 -193.5t-162.5 -78.5q-80 0 -187.5 42t-138.5 42q-74 0 -104 -80h-98z" />
<glyph unicode="&#xf2;" d="M43 420q0 238 192.5 402.5t501.5 164.5q129 0 247 -45t204 -150.5t86 -254.5q0 -254 -198.5 -411t-489.5 -157q-139 0 -249 43t-172.5 110.5t-92 143.5t-29.5 154zM504 1380q0 49 33.5 81t74.5 32q92 0 162 -102l201 -281h-127l-260 160q-84 53 -84 110zM510 115 q0 -100 70 -101q47 0 74.5 47.5t52.5 184.5q10 66 32 179l34 174q11 60 21.5 137t10.5 136q0 31 -18.5 50.5t-49.5 19.5q-35 0 -60.5 -29.5t-43.5 -111.5q-123 -524 -123 -686z" />
<glyph unicode="&#xf3;" d="M43 420q0 238 192.5 402.5t501.5 164.5q129 0 247 -45t204 -150.5t86 -254.5q0 -254 -198.5 -411t-489.5 -157q-139 0 -249 43t-172.5 110.5t-92 143.5t-29.5 154zM510 115q0 -100 70 -101q47 0 74.5 47.5t52.5 184.5q10 66 32 179l34 174q11 60 21.5 137t10.5 136 q0 31 -18.5 50.5t-49.5 19.5q-35 0 -60.5 -29.5t-43.5 -111.5q-123 -524 -123 -686zM602 1110l238 281q61 70 96 86q33 16 72 16q49 0 82.5 -31.5t33.5 -81.5q0 -63 -86 -110l-303 -160h-133z" />
<glyph unicode="&#xf4;" d="M43 420q0 238 192.5 402.5t501.5 164.5q129 0 247 -45t204 -150.5t86 -254.5q0 -254 -198.5 -411t-489.5 -157q-139 0 -249 43t-172.5 110.5t-92 143.5t-29.5 154zM399 1110l316 356h243l168 -356h-129l-196 176l-248 -176h-154zM510 115q0 -100 70 -101q47 0 74.5 47.5 t52.5 184.5q10 66 32 179l34 174q11 60 21.5 137t10.5 136q0 31 -18.5 50.5t-49.5 19.5q-35 0 -60.5 -29.5t-43.5 -111.5q-123 -524 -123 -686z" />
<glyph unicode="&#xf5;" d="M43 420q0 238 192.5 402.5t501.5 164.5q129 0 247 -45t204 -150.5t86 -254.5q0 -254 -198.5 -411t-489.5 -157q-139 0 -249 43t-172.5 110.5t-92 143.5t-29.5 154zM393 1149q14 111 90 190.5t183 79.5q55 0 161.5 -41t147.5 -41q57 0 96 74v2q2 2 2 4h109 q-33 -115 -97.5 -193.5t-162.5 -78.5q-80 0 -187.5 42t-138.5 42q-74 0 -102 -80h-101zM510 115q0 -100 70 -101q47 0 74.5 47.5t52.5 184.5q10 66 32 179l34 174q11 60 21.5 137t10.5 136q0 31 -18.5 50.5t-49.5 19.5q-35 0 -60.5 -29.5t-43.5 -111.5q-123 -524 -123 -686z " />
<glyph unicode="&#xf6;" d="M43 420q0 238 192.5 402.5t501.5 164.5q129 0 247 -45t204 -150.5t86 -254.5q0 -254 -198.5 -411t-489.5 -157q-139 0 -249 43t-172.5 110.5t-92 143.5t-29.5 154zM410 1277q0 69 47 115t114 46q68 0 114 -47.5t46 -112.5q0 -70 -45 -117t-113.5 -47t-115.5 47t-47 116z M510 115q0 -100 70 -101q47 0 74.5 47.5t52.5 184.5q10 66 32 179l34 174q11 60 21.5 137t10.5 136q0 31 -18.5 50.5t-49.5 19.5q-35 0 -60.5 -29.5t-43.5 -111.5q-123 -524 -123 -686zM856 1278q0 66 45 113t115 47q68 0 115 -47.5t47 -112.5q0 -70 -46.5 -117t-116 -47 t-114.5 47t-45 117z" />
<glyph unicode="&#xf7;" horiz-adv-x="1216" d="M78 391v244h1022v-244h-1022zM401 93q0 77 55.5 132.5t133.5 55.5q76 0 131 -56.5t55 -130.5q0 -72 -55 -131t-129 -59q-78 0 -134.5 56t-56.5 133zM401 932q0 78 55.5 133t133.5 55q76 0 131 -56t55 -132q0 -70 -55 -128.5t-129 -58.5q-78 0 -134.5 56.5t-56.5 130.5z " />
<glyph unicode="&#xf8;" d="M43 420q0 238 192.5 402.5t501.5 164.5q72 0 135 -16l127 233h99l-140 -258q139 -47 227.5 -150.5t88.5 -258.5q0 -254 -198.5 -411t-489.5 -157q-84 0 -150 15l-143 -267h-105l160 291q-152 55 -228.5 172t-76.5 240zM506 145q2 -76 20.5 -103.5t53.5 -27.5 q47 0 74.5 48.5t54.5 195.5q14 82 41.5 216t35.5 181l-4 4zM539 338l4 -4l264 487q0 121 -70 121q-37 0 -61.5 -28.5t-42.5 -112.5q-57 -252 -94 -463z" />
<glyph unicode="&#xf9;" horiz-adv-x="1462" d="M-4 594q27 92 55.5 153.5t73.5 121t113.5 89t162.5 29.5q106 0 182 -68.5t76 -213.5q0 -100 -52 -278.5t-52 -246.5q0 -47 47 -47q31 0 63.5 36t49.5 73q100 193 172 727l106 -6q74 -4 109 -5q47 0 138 4.5l130 6.5q-82 -401 -125 -674q-16 -86 -11 -118t32 -32 q14 0 27.5 11.5t37 60.5t53.5 139h48q-63 -217 -156.5 -302t-220.5 -85q-279 0 -246 363l-4 4q-88 -201 -178 -284t-244 -83q-123 0 -201 78t-78 203q0 78 31 217t70 250q37 106 -23 106q-72 0 -137 -229h-49zM559 1380q0 49 35 81t76 32q90 0 161 -102l201 -281h-127 l-260 160q-86 53 -86 110z" />
<glyph unicode="&#xfa;" horiz-adv-x="1462" d="M-4 594q27 92 55.5 153.5t73.5 121t113.5 89t162.5 29.5q106 0 182 -68.5t76 -213.5q0 -100 -52 -278.5t-52 -246.5q0 -47 47 -47q31 0 63.5 36t49.5 73q100 193 172 727l106 -6q74 -4 109 -5q47 0 138 4.5l130 6.5q-82 -401 -125 -674q-16 -86 -11 -118t32 -32 q14 0 27.5 11.5t37 60.5t53.5 139h48q-63 -217 -156.5 -302t-220.5 -85q-279 0 -246 363l-4 4q-88 -201 -178 -284t-244 -83q-123 0 -201 78t-78 203q0 78 31 217t70 250q37 106 -23 106q-72 0 -137 -229h-49zM659 1110l238 281q59 70 96 86q33 16 72 16q49 0 83 -31.5 t34 -81.5q0 -63 -86 -110l-303 -160h-134z" />
<glyph unicode="&#xfb;" horiz-adv-x="1462" d="M-4 594q27 92 55.5 153.5t73.5 121t113.5 89t162.5 29.5q106 0 182 -68.5t76 -213.5q0 -100 -52 -278.5t-52 -246.5q0 -47 47 -47q31 0 63.5 36t49.5 73q100 193 172 727l106 -6q74 -4 109 -5q47 0 138 4.5l130 6.5q-82 -401 -125 -674q-16 -86 -11 -118t32 -32 q14 0 27.5 11.5t37 60.5t53.5 139h48q-63 -217 -156.5 -302t-220.5 -85q-279 0 -246 363l-4 4q-88 -201 -178 -284t-244 -83q-123 0 -201 78t-78 203q0 78 31 217t70 250q37 106 -23 106q-72 0 -137 -229h-49zM457 1110l315 356h244l168 -356h-129l-197 176l-248 -176h-153z " />
<glyph unicode="&#xfc;" horiz-adv-x="1462" d="M-4 594q27 92 55.5 153.5t73.5 121t113.5 89t162.5 29.5q106 0 182 -68.5t76 -213.5q0 -100 -52 -278.5t-52 -246.5q0 -47 47 -47q31 0 63.5 36t49.5 73q100 193 172 727l106 -6q74 -4 109 -5q47 0 138 4.5l130 6.5q-82 -401 -125 -674q-16 -86 -11 -118t32 -32 q14 0 27.5 11.5t37 60.5t53.5 139h48q-63 -217 -156.5 -302t-220.5 -85q-279 0 -246 363l-4 4q-88 -201 -178 -284t-244 -83q-123 0 -201 78t-78 203q0 78 31 217t70 250q37 106 -23 106q-72 0 -137 -229h-49zM467 1277q0 69 46 115t116 46q68 0 113.5 -47.5t45.5 -112.5 q0 -70 -45 -117t-114.5 -47t-115.5 47t-46 116zM913 1278q0 66 45.5 113t114.5 47q66 0 114 -47.5t48 -112.5q0 -70 -47 -117t-115.5 -47t-114 47t-45.5 117z" />
<glyph unicode="&#xfd;" d="M-10 594q25 84 53.5 146.5t72.5 122t110.5 92t150.5 32.5q129 0 205.5 -65.5t76.5 -192.5q0 -63 -12 -136t-38.5 -182.5l-37.5 -156.5q-8 -37 3.5 -61.5t31.5 -24.5q53 0 102.5 104.5t71.5 227.5l88 469l107 -6q78 -4 121 -5q25 0 247 11q-39 -168 -99 -504t-68 -373 q-25 -127 -67 -216t-121 -163.5t-209 -112.5t-312 -38q-430 0 -430 202q0 90 68.5 129t166.5 39q68 0 125.5 -41t57.5 -106q0 -49 -34 -87t-34 -48q0 -39 78 -39q43 0 75.5 17.5t73.5 76.5t76 196.5t68 354.5l-4 4q-90 -137 -168 -198.5t-211 -61.5q-115 0 -189.5 70.5 t-74.5 210.5q0 88 52 286.5t52 204.5q0 29 -6 43t-31 14q-31 0 -61.5 -47t-81.5 -188h-45zM602 1110l238 281q61 70 96 86q33 16 72 16q49 0 82.5 -31.5t33.5 -81.5q0 -63 -86 -110l-303 -160h-133z" />
<glyph unicode="&#xfe;" horiz-adv-x="1462" d="M-162 -442l10 59h129l304 1729h-170l10 59h129q182 0 508 22l-105 -606l6 -6q33 84 109 128t172 44q174 0 284.5 -114.5t110.5 -333.5q0 -143 -46 -266t-159.5 -210.5t-275.5 -87.5q-221 0 -303 168h-4l-94 -526h172l-9 -59h-778zM575 223q0 -104 76 -104q57 0 86 67 q29 61 66 255t37 278q0 37 -3 58.5t-21.5 41t-51.5 19.5q-57 0 -100 -103q-33 -74 -61 -248t-28 -264z" />
<glyph unicode="&#xff;" d="M-10 594q25 84 53.5 146.5t72.5 122t110.5 92t150.5 32.5q129 0 205.5 -65.5t76.5 -192.5q0 -63 -12 -136t-38.5 -182.5l-37.5 -156.5q-8 -37 3.5 -61.5t31.5 -24.5q53 0 102.5 104.5t71.5 227.5l88 469l107 -6q78 -4 121 -5q25 0 247 11q-39 -168 -99 -504t-68 -373 q-25 -127 -67 -216t-121 -163.5t-209 -112.5t-312 -38q-430 0 -430 202q0 90 68.5 129t166.5 39q68 0 125.5 -41t57.5 -106q0 -49 -34 -87t-34 -48q0 -39 78 -39q43 0 75.5 17.5t73.5 76.5t76 196.5t68 354.5l-4 4q-90 -137 -168 -198.5t-211 -61.5q-115 0 -189.5 70.5 t-74.5 210.5q0 88 52 286.5t52 204.5q0 29 -6 43t-31 14q-31 0 -61.5 -47t-81.5 -188h-45zM410 1277q0 69 47 115t114 46q68 0 114 -47.5t46 -112.5q0 -70 -45 -117t-113.5 -47t-115.5 47t-47 116zM856 1278q0 66 45 113t115 47q68 0 115 -47.5t47 -112.5q0 -70 -46.5 -117 t-116 -47t-114.5 47t-45 117z" />
<glyph unicode="&#x152;" horiz-adv-x="1912" d="M10 588q0 137 53.5 278.5t151.5 263t257 198.5t347 77h1123l-44 -514h-53q-37 469 -342 455l-104 -580q106 12 156.5 64.5t86.5 162.5h64l-98 -561h-60q6 137 -33.5 200.5t-128.5 74.5l-114 -648q190 0 311 98.5t240 374.5h59l-102 -532h-1168q-106 0 -207.5 30.5 t-193.5 95t-146.5 183.5t-54.5 279zM537 172q0 -119 96 -119q43 0 68.5 33t39.5 117l172 950q37 201 -82 201q-18 0 -33.5 -6.5t-23.5 -11.5t-18.5 -21.5t-12.5 -22.5t-11 -30.5t-11 -28.5q-29 -84 -106.5 -487.5t-77.5 -573.5z" />
<glyph unicode="&#x153;" horiz-adv-x="1912" d="M33 420q0 238 192.5 402.5t501.5 164.5q172 0 297 -104q143 104 414 104q68 0 137.5 -15.5t136 -45t109.5 -86t43 -131.5q0 -133 -158 -220.5t-403 -87.5q-45 0 -136 5q-16 -68 -16 -156q0 -86 47 -141.5t129 -55.5q121 0 237.5 59.5t198.5 157.5h62q-205 -301 -623 -301 q-213 0 -301 109q-158 -109 -326 -109q-152 0 -264 45t-168.5 116t-83 143.5t-26.5 146.5zM489 115q0 -100 68 -101q47 0 74.5 48.5t54.5 195.5l34 173l33 170q11 58 20 135t9 136q0 31 -18.5 50.5t-48.5 19.5q-35 0 -60.5 -29.5t-44.5 -111.5q-121 -530 -121 -686z M1178 449q94 -4 141 25.5t70 107.5q43 145 43 266q0 53 -21.5 72.5t-60.5 19.5q-33 0 -51.5 -18.5t-43 -104.5t-59.5 -270z" />
<glyph unicode="&#x178;" horiz-adv-x="1576" d="M55 1346l11 59h880l-10 -59h-148l287 -687l225 400q104 193 103 217q-2 39 -33 53t-127 17l10 59h369l-10 -59q-80 -10 -123 -91l-371 -655l-90 -541h195l-11 -59h-974l10 59h170l88 506l-336 781h-115zM604 1654.5q0 69.5 47 115t115 45.5t114 -46.5t46 -113.5 q0 -70 -45 -116t-114 -46t-116 46t-47 115.5zM1051 1655q0 68 45 114t114 46q68 0 115 -46.5t47 -113.5q0 -70 -46 -116t-115.5 -46t-114.5 46t-45 116z" />
<glyph unicode="&#x2c6;" horiz-adv-x="673" d="M61 1110l316 356h244l167 -356h-129l-196 176l-248 -176h-154z" />
<glyph unicode="&#x2dc;" horiz-adv-x="673" d="M55 1149q14 111 90 190.5t181 79.5q57 0 163.5 -41t147.5 -41q57 0 94 74l2 2v4h111q-33 -115 -97.5 -193.5t-162.5 -78.5q-80 0 -187.5 42t-138.5 42q-74 0 -104 -80h-99z" />
<glyph unicode="&#x2013;" horiz-adv-x="1013" d="M-25 317l48 312h1013l-47 -312h-1014z" />
<glyph unicode="&#x2014;" horiz-adv-x="2027" d="M-25 317l48 312h2027l-47 -312h-2028z" />
<glyph unicode="&#x2018;" horiz-adv-x="788" d="M109 893q0 145 102 263t249.5 180.5t305.5 74.5v-53q-297 -45 -442 -191q-92 -92 -93 -141q2 -14 13 -14q2 0 65.5 26.5t124.5 26.5q115 0 195 -59.5t80 -167.5q0 -117 -84 -179.5t-213 -62.5q-133 0 -218 81t-85 216z" />
<glyph unicode="&#x2019;" horiz-adv-x="788" d="M53 596v53q297 47 443 191q92 92 92 141q-2 14 -13 14q-2 0 -65.5 -26.5t-124.5 -26.5q-115 0 -194.5 59.5t-79.5 167.5q0 117 84 179.5t213 62.5q133 0 217 -81t84 -216q0 -145 -101.5 -263t-249 -180.5t-305.5 -74.5z" />
<glyph unicode="&#x201a;" horiz-adv-x="788" d="M-2 -319q299 45 442 190q92 92 92 141q-2 14 -12 15q-2 0 -65.5 -27t-124.5 -27q-115 0 -194 59.5t-79 168.5q0 115 83 178t212 63q135 0 219 -80.5t84 -216.5q0 -145 -102 -263t-249.5 -180t-305.5 -75v54z" />
<glyph unicode="&#x201c;" horiz-adv-x="1462" d="M49 893q0 145 102.5 263t249 180.5t306.5 74.5v-53q-299 -45 -443 -191q-94 -92 -94 -141q2 -14 12 -14q2 0 65.5 26.5t125.5 26.5q117 0 195.5 -59.5t78.5 -167.5q0 -117 -83 -179.5t-214 -62.5q-133 0 -217 81t-84 216zM772 893q0 145 102.5 263t250 180.5t305.5 74.5 v-53q-299 -45 -443 -191q-92 -92 -92 -141q2 -14 12 -14q2 0 65.5 26.5t125.5 26.5q115 0 193.5 -59.5t78.5 -167.5q0 -117 -83 -179.5t-212 -62.5q-135 0 -219 81t-84 216z" />
<glyph unicode="&#x201d;" horiz-adv-x="1462" d="M66 596v53q297 47 442 191q92 92 92 141q-2 14 -12 14q-2 0 -65.5 -26.5t-125.5 -26.5q-115 0 -194.5 59.5t-79.5 167.5q0 117 84 179.5t213 62.5q133 0 217 -81t84 -216q0 -145 -102.5 -263t-248.5 -180.5t-304 -74.5zM788 596v53q299 47 443 191q92 92 92 141 q-2 14 -10 14q-2 0 -66.5 -26.5t-126.5 -26.5q-115 0 -193.5 59.5t-78.5 167.5q0 117 83 179.5t212 62.5q135 0 219 -81t84 -216q0 -145 -102.5 -263t-250 -180.5t-305.5 -74.5z" />
<glyph unicode="&#x201e;" horiz-adv-x="1462" d="M-4 -319q299 45 442 190q92 92 92 141q-2 14 -12 15q-2 0 -65.5 -27t-124.5 -27q-115 0 -194 59.5t-79 168.5q0 115 83 178t212 63q135 0 219 -80.5t84 -216.5q0 -145 -102 -263t-249.5 -180t-305.5 -75v54zM719 -319q299 45 442 190q94 92 94 141q-2 14 -12 15 q-2 0 -65.5 -27t-124.5 -27q-117 0 -196 59.5t-79 168.5q0 115 83 178t214 63q133 0 217 -80.5t84 -216.5q0 -145 -102.5 -263t-248.5 -180t-306 -75v54z" />
<glyph unicode="&#x2022;" horiz-adv-x="1013" d="M117 702q-2 162 111.5 277t279.5 115q162 0 276.5 -115t114.5 -277.5t-114.5 -276.5t-277.5 -114t-275.5 112.5t-114.5 278.5z" />
<glyph unicode="&#x2026;" horiz-adv-x="2027" d="M-4 201q0 121 88 181t217 60q113 0 196 -63.5t83 -159.5q0 -113 -80 -179.5t-213 -66.5q-117 0 -204 59.5t-87 168.5zM672 201q0 121 88 181t215 60q115 0 197.5 -63.5t82.5 -159.5q0 -113 -79.5 -179.5t-214.5 -66.5q-113 0 -201 59.5t-88 168.5zM1346 201q0 121 88 181 t217 60q113 0 195.5 -63.5t82.5 -159.5q0 -113 -80 -179.5t-213 -66.5q-117 0 -203.5 59.5t-86.5 168.5z" />
<glyph unicode="&#x2039;" horiz-adv-x="673" d="M59 467l279 334h248l-289 -348l201 -306h-234z" />
<glyph unicode="&#x203a;" horiz-adv-x="673" d="M33 147l289 351l-201 303h233l205 -318l-278 -336h-248z" />
<glyph unicode="&#x20ac;" d="M-6 541l41 77h117q2 80 20 179h-166l41 77h146q74 250 256 406t407 156q33 0 63.5 -4.5t56 -10.5t49.5 -14t43 -18.5l34 -19.5l27 -18q13 -9 21 -17l13 -13l8 -4l150 119h57l-51 -449h-45q-37 127 -130 235.5t-214 108.5q-84 0 -123 -65.5t-80 -261.5l-26 -130h501 l-41 -77h-473l-32 -179h413l-41 -77h-385q-12 -96 -12 -152q0 -150 58.5 -226.5t162.5 -76.5t199.5 92t157.5 217l47 -10l-56 -418h-63l-78 125q-154 -123 -371 -123q-223 0 -375.5 164t-166.5 408h-160z" />
<glyph unicode="&#x2122;" horiz-adv-x="2027" d="M8 1217v188h778v-188h-55q-23 119 -125 118h-55v-614q0 -53 13.5 -67.5t70.5 -12.5v-55h-475v55q49 -4 66.5 13.5t17.5 66.5v614h-56q-102 0 -125 -118h-55zM862 1350v55h361l241 -498l265 498h282v-55q-47 2 -65.5 -15.5t-18.5 -64.5v-549q0 -45 16.5 -62.5t67.5 -17.5 v-55h-455v55q47 0 68 18.5t21 61.5v385l-7 4l-266 -522h-33l-247 532l-5 -2v-327q0 -96 16.5 -125t76.5 -25v-55h-273v55q57 0 73.5 27.5t16.5 122.5v450q-35 109 -135 109z" />
<glyph unicode="&#xe000;" horiz-adv-x="985" d="M0 985h985v-985h-985v985z" />
<glyph unicode="&#xfb01;" horiz-adv-x="1462" d="M-2 -141l188 1018h-141l10 57h148q16 104 40.5 184t67.5 154t114 114.5t165 40.5q143 0 215 -60t72 -157q0 -47 -42 -93t-118 -46q-80 0 -118 44t-38 104q0 51 21.5 77.5t43 39t21.5 26.5t-29 14q-70 0 -108.5 -58t-38.5 -142q0 -123 105.5 -185.5t240.5 -56.5l-10 -57 h-145q-18 -106 -59.5 -319.5t-69 -380.5t-44.5 -318q-188 10 -239 10q-29 0 -252 -10zM776 162q-8 76 2 160l107 612h135q111 0 334 24l-121 -677q-14 -61 -10 -92t11 -38.5t23 -7.5q76 0 134 232h49q-49 -238 -141.5 -318t-251.5 -80q-125 0 -194 54.5t-77 130.5zM930 1242 q0 85 57 135t156 50q119 0 177 -51t58 -131q0 -72 -63.5 -123t-147.5 -51q-104 0 -170.5 43t-66.5 128z" />
<glyph unicode="&#xfb02;" horiz-adv-x="1462" d="M0 -141l188 1018h-141l10 57h148q68 494 387 493q143 0 215 -60t72 -157q0 -47 -42 -93t-118 -46q-80 0 -118 44t-38 104q0 51 21.5 77.5t43 39t21.5 26.5t-28 14q-70 0 -109 -58t-39 -142q0 -123 105.5 -185.5t240.5 -56.5l-14 -57h-141q-18 -106 -59.5 -319.5 t-69 -380.5t-43.5 -318q-188 10 -240 10q-29 0 -252 -10zM786 395l187 1010q223 0 465 22l-215 -1224q-16 -94 37 -94q66 0 131 249h47q-35 -190 -124 -289.5t-272 -99.5q-334 0 -256 426z" />
<glyph unicode="&#xfb03;" horiz-adv-x="2365" d="M1554 569q45 205 128 308.5t243 103.5q135 0 214 -83t79 -222q0 -100 -51 -283.5t-51 -204.5q0 -45 39 -45q20 0 38.5 18.5t35 50.5t27.5 59.5t21.5 61.5t14.5 42h49q-59 -233 -160.5 -315.5t-241.5 -82.5q-127 0 -195.5 70t-68.5 205q0 104 45 286.5t45 200.5 q0 70 -43 70q-37 0 -63.5 -59.5t-61.5 -180.5h-43zM1727 1260q0 88 79.5 127.5t180.5 39.5q109 0 189.5 -44t80.5 -144q0 -90 -82 -128t-180 -38q-113 0 -190.5 42.5t-77.5 144.5zM772 -141l188 1018h-141l10 57h147q16 104 41 184t68 154t113.5 114.5t164.5 40.5 q143 0 215 -60t72 -157q0 -47 -42 -93t-115 -46q-82 0 -120 44t-38 104q0 51 21.5 77.5t43 39t21.5 26.5t-29 14q-70 0 -108.5 -58t-38.5 -142q0 -123 105 -186q96 -57 217 -57q12 0 24 1l-10 -57h-146q-18 -106 -59 -319.5t-68.5 -380.5t-44.5 -318q-186 10 -239 10 q-29 0 -252 -10zM-16 -141l188 1018h-141l10 57h147q16 104 41 184t68 154t113.5 114.5t164.5 40.5q143 0 215 -60t72 -157q0 -47 -42 -93t-115 -46q-82 0 -120 44t-38 104q0 51 21.5 77.5t43 39t21.5 26.5t-29 14q-70 0 -108.5 -58t-38.5 -142q0 -123 105 -186 q96 -57 217 -57q12 0 24 1l-10 -57h-146q-18 -106 -59 -319.5t-68.5 -380.5t-44.5 -318q-186 10 -239 10q-29 0 -252 -10z" />
<glyph unicode="&#xfb04;" horiz-adv-x="2365" d="M1661 1346l10 59h152q182 0 508 22l-209 -1183q-8 -42 -8 -71q0 -65 38 -64q84 0 164 249h47q-55 -184 -148 -286.5t-259 -102.5q-176 0 -252 84q-50 55 -50 170q0 59 13 133l174 990h-180zM772 -141l188 1018h-141l10 57h147q16 104 41 184t68 154t113.5 114.5 t164.5 40.5q143 0 215 -60t72 -157q0 -47 -42 -93t-115 -46q-82 0 -120 44t-38 104q0 51 21.5 77.5t43 39t21.5 26.5t-29 14q-70 0 -108.5 -58t-38.5 -142q0 -123 105 -186q96 -57 217 -57q12 0 24 1l-10 -57h-146q-18 -106 -59 -319.5t-68.5 -380.5t-44.5 -318 q-186 10 -239 10q-29 0 -252 -10zM-16 -141l188 1018h-141l10 57h147q16 104 41 184t68 154t113.5 114.5t164.5 40.5q143 0 215 -60t72 -157q0 -47 -42 -93t-115 -46q-82 0 -120 44t-38 104q0 51 21.5 77.5t43 39t21.5 26.5t-29 14q-70 0 -108.5 -58t-38.5 -142 q0 -123 105 -186q96 -57 217 -57q12 0 24 1l-10 -57h-146q-18 -106 -59 -319.5t-68.5 -380.5t-44.5 -318q-186 10 -239 10q-29 0 -252 -10z" />
</font>
</defs>
</svg>
